<svg id="AmericanExpress" xmlns="http://www.w3.org/2000/svg" width="102.683" height="33.127" viewBox="0 0 102.683 33.127">
  <g id="Layer_1" data-name="Layer 1" transform="translate(0 0)">
    <g id="layer1">
      <path id="path3046" d="M35.721,185.82,30.54,197.863h3.382l.936-2.411h5.567l.95,2.411h3.448L39.646,185.82Zm1.916,2.807,1.693,4.21H35.938Z" transform="translate(-30.54 -185.811)" fill="#c0cbdc"/>
      <path id="path3048" d="M93.12,197.853V185.81l4.793.016,2.788,7.765,2.72-7.782h4.753v12.043h-3.01v-8.874l-3.183,8.874H99.332l-3.2-8.874v8.874Z" transform="translate(-78.483 -185.803)" fill="#c0cbdc"/>
      <path id="path3050" d="M166.29,197.853V185.81h9.824V188.5h-6.783v2.061h6.624v2.542h-6.622v2.14h6.783v2.608Z" transform="translate(-134.539 -185.803)" fill="#c0cbdc"/>
      <path id="path3052" d="M215.75,185.789v12.043h3.01V193.55h1.258l3.611,4.28h3.679l-3.962-4.444a3.67,3.67,0,0,0,3.3-3.7,3.9,3.9,0,0,0-4.21-3.906Zm3.01,2.692H222.2a1.38,1.38,0,0,1,1.424,1.268,1.359,1.359,0,0,1-1.38,1.268H218.76Z" transform="translate(-172.43 -185.78)" fill="#c0cbdc"/>
      <path id="path3054" d="M270.723,197.853H267.65V185.81h3.073Z" transform="translate(-212.191 -185.803)" fill="#c0cbdc"/>
      <path id="path3056" d="M292.932,197.853h-.662c-3.211,0-5.16-2.531-5.16-5.974,0-3.527,1.927-6.07,5.981-6.07h3.328v2.851h-3.462c-1.637,0-2.807,1.284-2.807,3.249,0,2.339,1.331,3.312,3.249,3.312h.791Z" transform="translate(-227.099 -185.803)" fill="#c0cbdc"/>
      <path id="path3058" d="M323.038,185.82l-5.178,12.043h3.373l.945-2.411h5.557l.95,2.411h3.448l-5.176-12.043Zm1.918,2.807,1.693,4.21h-3.4l1.7-4.21Z" transform="translate(-250.657 -185.811)" fill="#c0cbdc"/>
      <path id="path3060" d="M380.38,197.853V185.81h3.829l4.886,7.567V185.81h3.013v12.043h-3.7l-5.012-7.765v7.765Z" transform="translate(-298.554 -185.803)" fill="#c0cbdc"/>
      <path id="path3062" d="M124.29,287.953V275.91h9.824V278.6h-6.783v2.061h6.622V283.2h-6.619v2.14h6.783v2.613Z" transform="translate(-102.362 -254.829)" fill="#c0cbdc"/>
      <path id="path3064" d="M330.11,290.834V279.67h9.824v2.5h-6.783v1.911h6.594v2.351h-6.591V288.4h6.783v2.432Z" transform="translate(-260.042 -257.71)" fill="#c0cbdc"/>
      <path id="path3066" d="M167.552,287.93l4.783-5.941-4.9-6.1h3.791l2.917,3.759,2.928-3.77h3.644l-4.835,6.023,4.783,6.027h-3.782l-2.832-3.707-2.762,3.707Z" transform="translate(-135.42 -254.806)" fill="#c0cbdc"/>
      <path id="path3068" d="M225.57,275.92v12.043h3.09v-3.8h3.169c2.683,0,4.715-1.422,4.715-4.189a3.964,3.964,0,0,0-4.322-4.051Zm3.09,2.725H232a1.36,1.36,0,0,1,1.488,1.387,1.39,1.39,0,0,1-1.5,1.385H228.66v-2.772Z" transform="translate(-179.953 -254.837)" fill="#c0cbdc"/>
      <path id="path3072" d="M278.08,275.887V287.93H281.1v-4.278h1.268l3.611,4.278h3.679l-3.962-4.444a3.665,3.665,0,0,0,3.3-3.7,3.9,3.9,0,0,0-4.21-3.908Zm3.022,2.695h3.443a1.38,1.38,0,0,1,1.424,1.268,1.359,1.359,0,0,1-1.38,1.268H281.1Z" transform="translate(-220.181 -254.806)" fill="#c0cbdc"/>
      <path id="path3074" d="M376.824,287.953v-2.613h6.025c.891,0,1.277-.482,1.277-1.01s-.384-1.02-1.277-1.02h-2.723a3.367,3.367,0,0,1-3.686-3.607c0-1.93,1.207-3.794,4.725-3.794h5.864l-1.268,2.711H380.69c-.971,0-1.268.508-1.268.994a1.048,1.048,0,0,0,1.109,1.05h2.854c2.638,0,3.782,1.5,3.782,3.457a3.61,3.61,0,0,1-3.927,3.831Z" transform="translate(-295.535 -254.829)" fill="#c0cbdc"/>
      <path id="path3076" d="M424.071,287.953v-2.613H430.1c.893,0,1.279-.482,1.279-1.01s-.386-1.02-1.279-1.02h-2.723a3.365,3.365,0,0,1-3.684-3.607c0-1.93,1.207-3.794,4.725-3.794h5.873l-1.268,2.711h-5.083c-.968,0-1.268.508-1.268.994a1.05,1.05,0,0,0,1.111,1.05h2.851c2.638,0,3.784,1.5,3.784,3.457a3.611,3.611,0,0,1-3.927,3.831Z" transform="translate(-331.734 -254.829)" fill="#c0cbdc"/>
    </g>
  </g>
</svg>
