<svg xmlns="http://www.w3.org/2000/svg" viewBox="0 0 1610.33 593.08"><defs><style>.cls-1{fill:#733e39;}.cls-1,.cls-11,.cls-2,.cls-3,.cls-33,.cls-34,.cls-35,.cls-38,.cls-39,.cls-4,.cls-40,.cls-41,.cls-43,.cls-44,.cls-45,.cls-48,.cls-5,.cls-51,.cls-52,.cls-53,.cls-6,.cls-7,.cls-8,.cls-9{isolation:isolate;}.cls-2{fill:#3e2731;}.cls-3{fill:#c0cbdc;}.cls-4{fill:#8b9bb4;}.cls-37,.cls-5{fill:#fff;}.cls-6{fill:#262b44;}.cls-7{fill:#3a4466;}.cls-8{fill:#181425;}.cls-9{fill:#feae34;}.cls-10,.cls-12,.cls-36,.cls-42,.cls-46,.cls-47,.cls-49,.cls-50,.cls-54{fill:none;stroke-linecap:round;stroke-miterlimit:10;}.cls-10,.cls-12{stroke:#3e2731;}.cls-10,.cls-36,.cls-42,.cls-46,.cls-49,.cls-54{stroke-width:1.44px;}.cls-11{fill:#be4a2f;}.cls-13{fill:#ffffe0;}.cls-14{opacity:0.5;}.cls-15{fill:#f2cb9b;}.cls-16{fill:#7b334c;}.cls-17{fill:#887d8d;}.cls-18{fill:#b8b4b2;}.cls-19{fill:#44355d;}.cls-20{fill:#80b878;}.cls-21{fill:#5c8ba8;}.cls-22{fill:#dcdac9;}.cls-23{fill:#f2a561;}.cls-24{fill:#4e6679;}.cls-25{fill:#fcef8d;}.cls-26{fill:#621748;}.cls-27{fill:#3d003d;}.cls-28{fill:#e3a084;}.cls-29{fill:#af5d8b;}.cls-30{fill:#d37b86;}.cls-31{fill:#5b3374;}.cls-32{fill:#804085;}.cls-33,.cls-55{fill:#0099db;}.cls-33{opacity:0.48;}.cls-34{fill:#e8b796;}.cls-35{fill:#b86f50;}.cls-36{stroke:#8b9bb4;}.cls-38{fill:#c28569;}.cls-39{fill:#e4a672;}.cls-40{fill:#265c42;}.cls-41{fill:#3e8948;}.cls-42,.cls-50{stroke:#733e39;}.cls-43{fill:#a22633;}.cls-44{fill:#68386c;}.cls-45{fill:#b55088;}.cls-46{stroke:#a22633;}.cls-47{stroke:#f6757a;}.cls-48{fill:#e43b44;}.cls-49{stroke:#181425;}.cls-51{fill:#fee761;}.cls-52{fill:#d77643;}.cls-53{fill:#ead4aa;}.cls-54{stroke:#68386c;}</style></defs><g id="Layer_2" data-name="Layer 2"><g id="Layer_1-2" data-name="Layer 1"><path class="cls-1" d="M106.56,276.41l4.61-17.22A13.39,13.39,0,0,1,110,260c-6,3.67-25.69,14.09-23.63-38.9,0,0,25.56-42.67,38.23,16l2,25.94S111.67,286.41,106.56,276.41Z"/><circle class="cls-1" cx="87.74" cy="240.98" r="4.46"/><path class="cls-2" d="M113.67,227.52s-3.56-26.44-27.34-6.44v3.5s-20.44-12.61-6-29.73,37.56-9.66,37.56-9.66,39.11-3.89,32.33,36.89c0,0,7.5,33.55-26.94,33.55l.82-18.52S129,220.27,113.67,227.52Z"/><circle class="cls-1" cx="120.51" cy="230.41" r="7.6"/><path class="cls-3" d="M77.67,467.74a69.5,69.5,0,0,1-19.34-4l45.84-190a2.3,2.3,0,0,1,.68-1.15l3.61-3.3-1.65,7.11Z"/><path class="cls-4" d="M79.53,467.85a66.06,66.06,0,0,1-12.06-1.52L106,279.92c.11-.45.4-1.93.83-3.51l.84,2.6.76,3.09Z"/><path class="cls-5" d="M88.65,395h11.52L113.4,277.35s-5,2.95-6.59-.94Z"/><polygon class="cls-6" points="88.65 395.03 62.11 568.19 92.78 574.85 115.67 493.74 88.65 395.03"/><path class="cls-7" d="M165.78,573.52s-48-51.67-59.67-83.33c0,0-14.6-42.33-17.46-95.16h60.13s1.82,70.82-2.59,96.82c0,0,26.59,43.67,37.59,66.34Z"/><path class="cls-3" d="M126.39,260.6,137,264.34a9.88,9.88,0,0,1,4.66,3.42c8.35,11.17,40.76,59.4,34,127.09a85.46,85.46,0,0,1-23.47,1.56l9,72.22s-44.44,7.34-71.78.89L112.83,275.1s5.1-.49,12.6-11.57Z"/><path class="cls-1" d="M28.57,318.25S8,317.08,1.14,297.45c-4.06-11.67,3.78-30.18,7-6.84.14,1,2.58,5.27,3.53,4.94,1.4-.48.73-3.32.73-7,0-5,5-8.16,4.78-4.59-.11,1.71-.24,5.39.51,6.93,1.2,2.46,2.64,4,1.77,10.24a18.54,18.54,0,0,0,10.44,4.76Z"/><path class="cls-4" d="M104.22,273.53s-12.8,32.71-25.89,37.07c-11.57,3.86-50.08-11.25-50.08-11.25l-5.08,34.84L87,345.08Z"/><path class="cls-1" d="M166.17,396.25s6.77,29.27-8.23,40.94c-13.39,10.41-7.12-14-5.62-19.41a2.86,2.86,0,0,0-.41-2.46c-.77-1-2.27-1.9-5,.2-3,2.34-3.48-.83-3.46-3.19a5.46,5.46,0,0,1,1.69-3.95,19.5,19.5,0,0,1,10.36-4.86s2.3-1.58,1.13-6.92Z"/><path class="cls-4" d="M128.11,303.74s21.33,42.34,18.42,91.29C146.53,395,139.89,338.85,128.11,303.74Z"/><path class="cls-8" d="M82.56,591.63H29.89s16.91-13.22,38-16.78l11.37,2.89S82.67,581,82.56,591.63Z"/><path class="cls-1" d="M69,569.69l-1.57,6.94s2.77,8.55,11.78,2.89l1.09-7.38Z"/><path class="cls-8" d="M156.11,591.63s7.17-6.83,16-8.39l2.35-9.15,8.46-7.89s10.44.57,13.61,7.32l-9.84,18.11Z"/><path class="cls-1" d="M170.51,569.49l8.37-7.13,4.9,4.66s-.1,9.82-8.67,7.83Z"/><rect class="cls-4" x="5.56" y="20.41" width="7.06" height="571.22"/><circle class="cls-9" cx="9.08" cy="13.81" r="8.25"/><path class="cls-2" d="M111.17,259.19l4.55-3.16s-4.33,4-5.78,7.74Z"/><path class="cls-2" d="M116.47,228.53a4.73,4.73,0,0,1,5.73-2.3c4,1.19,3.11,5.62,3.11,5.62a6.18,6.18,0,0,0-8.84-3.32Z"/><path class="cls-10" d="M91.12,225.53c1.76-1.57,3.83,0,3.83,0"/><ellipse class="cls-11" cx="91.28" cy="250.62" rx="0.66" ry="3.25" transform="translate(-54.1 27) rotate(-13.02)"/><path class="cls-12" d="M90.28,231.85c1.76-1.58,3.83,0,3.83,0"/><circle class="cls-2" cx="110.44" cy="216.19" r="6.62"/><circle class="cls-2" cx="98.52" cy="210.54" r="7.4"/><circle class="cls-2" cx="123.52" cy="250.06" r="5.57"/><circle class="cls-2" cx="125.4" cy="242.22" r="3.9"/><path class="cls-13" d="M734.1,276.8l5.33-21.33s-28,28.66-25.56-34c0,0,25.56-42.67,38.23,16l3.55,25.77S739.21,286.8,734.1,276.8Z"/><circle class="cls-13" cx="715.28" cy="241.37" r="4.46"/><path class="cls-13" d="M741.68,236.24s-4,1.56-6.11,0V216.35l6.2-5s-19.45,3.17-27.9,10.17l-2.08-3.34s2-20.55,30.11-23.55c0,0,27.89.55,28.67,26.55s-21.5,29.28-21.5,29.28,4.45-4.52,2-12.63S744.46,228.13,741.68,236.24Z"/><circle class="cls-13" cx="748.05" cy="230.8" r="7.6"/><path class="cls-13" d="M657.76,359.29s-25,11.48-22.76,28c0,0,.64,2,2.35,1,0,0,6-11.33,15.61-11.17,0,0,4,.74,4.93,6.74,0,0,1.45,2.25,2.94.16,0,0,3.52-8,.51-12.28l3.23-2.19Z"/><path class="cls-13" d="M727,279.62s-10.27,34.88-22.49,45.1-51.11,32.89-51.11,32.89,14.67,19.22,19.56,21.5c0,0,24.3-13.37,42.36-27.28S727,279.62,727,279.62Z"/><path class="cls-13" d="M713.87,221.47v4.94s-3.19-2.47-2.08-8.28Z"/><path class="cls-13" d="M718.23,418.41s-18.05-3.76-20.5-6.75l29.06-131.49A5,5,0,0,1,729,277l5.56-3.79-1.11,125.34Z"/><path class="cls-13" d="M754.73,396.44s-11.5,3.36-39.13-2.33l15.8-114.84h18.67Z"/><polygon class="cls-13" points="734.57 273.24 757.4 260.91 759.9 264.24 741.19 283.58 734.57 273.24"/><path class="cls-13" d="M635.68,592l35.22-16.79,10.89,4.11s6.37,7.57,4.93,12.68Z"/><path class="cls-13" d="M670.07,578.08l3.33-11.49L686.73,571l-5.66,11.56S672.57,585.24,670.07,578.08Z"/><polygon class="cls-13" points="664.57 566.59 715.6 394.11 747.24 455.24 692.57 575.96 664.57 566.59"/><path class="cls-13" d="M805.46,592s7.16-6.83,16-8.39l2.34-9.15,8.47-7.89s10.44.57,13.6,7.32L836,592Z"/><path class="cls-13" d="M818.23,568.08l8.53-6.72,6.36,6s-.1,9.82-8.66,7.83Z"/><path class="cls-13" d="M715.6,394.11l19,100.47s42.35,63.36,77.68,80.25l18.15-14.59-55.5-75.58,4.67-90.55Z"/><path class="cls-13" d="M722.79,416.35s13.2,9,55.53,2C778.32,418.31,747.79,433.47,722.79,416.35Z"/><path class="cls-13" d="M827,384.35s4.3,30.65-10.11,42.12-1.55-19.67-6.55-21.06-9.86,5.5-7-3.94c2.24-7.37,11.86-5.89,11.86-5.89s.77-6.23,0-8"/><path class="cls-13" d="M759.9,264.35l-18,12.34L722.79,416.35s26,13.56,61.11,0l-9.11-94.22s21.78,30.45,30.22,67.78c0,0,15.56.67,28.22-6.44C833.23,383.47,819.68,299.69,759.9,264.35Z"/><polyline class="cls-13" points="739.18 280.41 732.38 286.32 733.9 288.83 728.24 367.91 720.57 378.08 716.57 367.91 728.99 287.99 730.46 285.74 729.74 280.41 734.57 273.24"/><path class="cls-13" d="M740.19,289.21l.81-5.93-1.82-2.87A22.44,22.44,0,0,1,740.19,289.21Z"/><g class="cls-14"><path class="cls-15" d="M734.1,276.41l5.33-21.33s-28,28.66-25.56-34c0,0,25.56-42.67,38.23,16l3.55,25.77S739.21,286.41,734.1,276.41Z"/><circle class="cls-15" cx="715.28" cy="240.98" r="4.46"/><path class="cls-16" d="M741.68,235.85s-4,1.56-6.11,0V216l6.2-5.06s-19.45,3.17-27.9,10.17l-2.08-3.34s2-20.55,30.11-23.55c0,0,27.89.55,28.67,26.55S749.07,250,749.07,250s4.45-4.52,2-12.63S744.46,227.74,741.68,235.85Z"/><circle class="cls-15" cx="748.05" cy="230.41" r="7.6"/><path class="cls-15" d="M657.76,358.9s-25,11.48-22.76,28c0,0,.64,2,2.35,1,0,0,6-11.33,15.61-11.17,0,0,4,.74,4.93,6.74,0,0,1.45,2.25,2.94.16,0,0,3.52-8,.51-12.28l3.23-2.19Z"/><path class="cls-17" d="M727,279.23s-10.27,34.88-22.49,45.1-51.11,32.89-51.11,32.89,14.67,19.22,19.56,21.5c0,0,24.3-13.37,42.36-27.28S727,279.23,727,279.23Z"/><path class="cls-16" d="M713.87,221.08V226s-3.19-2.47-2.08-8.28Z"/><path class="cls-18" d="M718.23,418s-18.05-3.76-20.5-6.75l29.06-131.49a5,5,0,0,1,2.22-3.14l5.56-3.79-1.11,125.34Z"/><path class="cls-13" d="M754.73,396.05s-11.5,3.36-39.13-2.33l15.8-114.84h18.67Z"/><polygon class="cls-13" points="734.57 272.85 757.4 260.52 759.9 263.85 741.19 283.19 734.57 272.85"/><path class="cls-19" d="M635.68,591.63l35.22-16.79L681.79,579s6.37,7.57,4.93,12.68Z"/><path class="cls-20" d="M670.07,577.69l3.33-11.49,13.33,4.43-5.66,11.56S672.57,584.85,670.07,577.69Z"/><polygon class="cls-17" points="664.57 566.21 715.6 393.72 747.24 454.85 692.57 575.57 664.57 566.21"/><path class="cls-19" d="M805.46,591.63s7.16-6.83,16-8.39l2.34-9.15,8.47-7.89s10.44.57,13.6,7.32L836,591.63Z"/><path class="cls-20" d="M818.23,567.69l8.53-6.72,6.36,6s-.1,9.82-8.66,7.83Z"/><path class="cls-18" d="M715.6,393.72l19,100.47s42.35,63.36,77.68,80.25l18.15-14.59-55.5-75.58,4.67-90.55Z"/><path class="cls-17" d="M722.79,416s13.2,9,55.53,1.95C778.32,417.92,747.79,433.08,722.79,416Z"/><path class="cls-15" d="M827,384s4.3,30.64-10.11,42.11-1.55-19.67-6.55-21.06-9.86,5.5-7-3.94c2.24-7.36,11.86-5.89,11.86-5.89s.77-6.22,0-8"/><path class="cls-18" d="M759.9,264l-18,12.33L722.79,416s26,13.55,61.11,0l-9.11-94.23s21.78,30.45,30.22,67.78c0,0,15.56.67,28.22-6.44C833.23,383.08,819.68,299.3,759.9,264Z"/><polyline class="cls-21" points="739.18 280.02 732.38 285.94 733.9 288.44 728.24 367.52 720.57 377.69 716.57 367.52 728.99 287.6 730.46 285.35 729.74 280.02 734.57 272.85"/><path class="cls-22" d="M740.19,288.82l.81-5.93L739.18,280A22.44,22.44,0,0,1,740.19,288.82Z"/></g><path class="cls-13" d="M482.11,348s-22.89,26-31.53,33.63c-14.5,12.88-22.83,29.29-14.51,35.81a2.53,2.53,0,0,0,2.88-2.83c-.12-3.16,8.45-20.41,16.2-8.66,3,4.54,3-5.3,2.14-9.82a5,5,0,0,1,.81-3.81c4.31-6.18,24.36-29.47,33.94-37.77C508.42,340.38,482.11,348,482.11,348Z"/><path class="cls-13" d="M563.61,335.89S589.35,407,565,431.3c0,0-8.85,6.92-6.65-10.39s-3.7-9.76-3.7-9.76-5.8,3.26-2.51-6.06c2.43-6.9,11.65-4.74,11.65-4.74s1-33.39-12-56.26C551.8,344.09,549.33,331.2,563.61,335.89Z"/><path class="cls-13" d="M445.65,375.54l35.51-49L500.09,351l-30.22,46.73S453.42,385.32,445.65,375.54Z"/><path class="cls-13" d="M471.86,388s-17.33,54.45-18,93.79c0,0,2.66,38.44,75.33,88.89l20.22-11.34-29.55-56.89L515,388.88Z"/><path class="cls-13" d="M471.86,388s12.9,79.56,34.9,109.12c0,0,43.55,22,97.77-25.89L595,451.77s-31.27,0-43.86,3.11c0,0-1.47-51.78-10.59-68S471.86,388,471.86,388Z"/><path class="cls-13" d="M522.82,264.79s45.6,10.53,59.94,125.2a44.3,44.3,0,0,1-28,3.33s-9.67-55.33-20.67-68.66l13.67,63.49s-48.67,13.08-82.67-2.92L490.41,280a6.83,6.83,0,0,1,2.18-3.63l11.17-9.09"/><path class="cls-13" d="M496.69,278.62l8.62-22.25s-28,28.66-25.55-34c0,0,25.55-42.67,38.22,16l5.38,29.35a2.62,2.62,0,0,1-.83,2.42c-3.84,3.46-16.91,14.63-23.6,12.92A3.33,3.33,0,0,1,496.69,278.62Z"/><circle class="cls-13" cx="482.2" cy="241.12" r="4.2"/><path class="cls-13" d="M503,235.81s-7.59-22.44-23.25-13.44c0,0-5.25-3.11-3.06-8.22S491.12,195.92,510,198.7s23.11,13.89,23.11,13.89,7.66,12.22-2.11,28.78-18.16,9.73-18.6,9.73,3.79-3.16,2.9-13.49S509.23,224,509.23,224A18,18,0,0,0,503,235.81Z"/><circle class="cls-13" cx="512.72" cy="229.76" r="7.16"/><path class="cls-13" d="M526.32,204.8s8.1-21.65,31.27-6.48-5.33,52.5-5.33,52.5,3-42.66-18.84-36.16S526.32,204.8,526.32,204.8Z"/><path class="cls-13" d="M523.4,591.43s7.17-6.83,16-8.39l3.46-7.36,8.65-7.83s8.77-.59,11.93,6.16L554,591.43Z"/><path class="cls-13" d="M612.34,463.47a65.12,65.12,0,0,0,27.4,20.6l-19-42.53c-11.9,2.78-11.87,11.57-11.87,11.57"/><path class="cls-13" d="M534.23,567.84l10,6.6s8.2,2.43,7.28-6.59l-5.9-6.39Z"/><path class="cls-13" d="M596.45,454.75l12.7-1s5.5,2.64,2.94,9l-9.32,4.81Z"/><g class="cls-14"><path class="cls-16" d="M482.52,348.2s-22.88,26-31.52,33.63c-14.51,12.88-22.83,29.29-14.51,35.8a2.52,2.52,0,0,0,2.88-2.82c-.13-3.16,8.44-20.41,16.19-8.67,3,4.55,3-5.29,2.14-9.81a5,5,0,0,1,.82-3.81c4.3-6.18,24.36-29.48,33.94-37.77C508.84,340.58,482.52,348.2,482.52,348.2Z"/><path class="cls-16" d="M564,336.09s25.74,71.08,1.38,95.41c0,0-8.86,6.92-6.65-10.39s-3.7-9.76-3.7-9.76-5.8,3.26-2.52-6.06c2.44-6.9,11.65-4.74,11.65-4.74s1-33.39-12-56.26C552.22,344.29,549.75,331.4,564,336.09Z"/><path class="cls-23" d="M446.06,375.74l35.52-49,18.93,24.5L470.28,398S453.84,385.52,446.06,375.74Z"/><path class="cls-24" d="M472.28,388.18S455,442.63,454.28,482c0,0,2.67,38.44,75.34,88.88l20.22-11.33-29.56-56.89L515.4,389.08Z"/><path class="cls-21" d="M472.28,388.18s12.89,79.56,34.89,109.12c0,0,43.56,22,97.78-25.89L595.4,452s-31.28,0-43.86,3.11c0,0-1.48-51.78-10.59-68S472.28,388.18,472.28,388.18Z"/><path class="cls-25" d="M523.24,265s45.6,10.53,59.93,125.2a44.36,44.36,0,0,1-28,3.33s-9.66-55.33-20.66-68.67l13.66,63.5s-48.66,13.08-82.66-2.92l25.32-105.19A6.8,6.8,0,0,1,493,276.6l11.16-9.08"/><path class="cls-16" d="M497.1,278.82l8.63-22.25s-28,28.66-25.56-34c0,0,25.56-42.67,38.23,16l5.37,29.35a2.6,2.6,0,0,1-.82,2.42C519.11,273.8,506,285,499.34,283.26A3.33,3.33,0,0,1,497.1,278.82Z"/><circle class="cls-16" cx="482.62" cy="241.31" r="4.2"/><path class="cls-26" d="M503.42,236s-7.58-22.44-23.25-13.44c0,0-5.25-3.12-3.05-8.23s14.41-18.22,33.3-15.44,23.11,13.89,23.11,13.89,7.67,12.22-2.11,28.78-18.15,9.73-18.59,9.73,3.79-3.16,2.9-13.49-6.08-13.64-6.08-13.64A18,18,0,0,0,503.42,236Z"/><circle class="cls-16" cx="513.14" cy="229.96" r="7.16"/><path class="cls-26" d="M526.73,205s8.11-21.65,31.28-6.48-5.34,52.5-5.34,52.5,3-42.67-18.83-36.17S526.73,205,526.73,205Z"/><path class="cls-27" d="M523.82,591.63s7.16-6.83,16-8.39l3.46-7.36,8.65-7.83s8.76-.59,11.93,6.16l-9.46,17.42Z"/><path class="cls-27" d="M612.76,463.67a65.12,65.12,0,0,0,27.39,20.6L621.2,441.74c-11.9,2.78-11.87,11.56-11.87,11.56"/><path class="cls-22" d="M534.65,568l10,6.61s8.2,2.43,7.28-6.59l-5.9-6.39Z"/><path class="cls-22" d="M596.86,455l12.7-1s5.5,2.64,3,9l-9.32,4.81Z"/></g><path class="cls-13" d="M388.06,336.09s25.75,71.08,1.39,95.41c0,0-8.86,6.92-6.65-10.39s-3.7-9.76-3.7-9.76-5.8,3.26-2.52-6.06c2.43-6.9,11.65-4.74,11.65-4.74s1-33.39-12-56.26C376.26,344.29,373.79,331.4,388.06,336.09Z"/><path class="cls-13" d="M296.32,388.18s12.89,79.56,34.89,109.12c0,0,43.56,22,97.78-25.89L419.43,452s-31.27,0-43.85,3.11c0,0-1.48-51.78-10.59-68S296.32,388.18,296.32,388.18Z"/><path class="cls-13" d="M272.57,591.63H219.9s16.91-13.22,38-16.78l11.37,2.89S272.68,581,272.57,591.63Z"/><path class="cls-13" d="M257.64,577.3l3.11-15.61,13.68,4.75-7.24,14.41S259.41,585.52,257.64,577.3Z"/><path class="cls-13" d="M254,560.23l40.62-173.59s64.08-24.87,71.68,3.07-80.63,181.14-80.63,181.14Z"/><path class="cls-13" d="M278.6,311.67s-32.83,11-44.15,13.26c-19,3.85-34.45,13.86-30.52,23.68a2.51,2.51,0,0,0,3.9-1c1.48-2.79,17.56-13.41,18.36.64.31,5.44,5.25-3.08,6.78-7.42a5,5,0,0,1,2.62-2.88c6.83-3.19,35.86-13.26,48.31-15.62C305.19,318.29,278.6,311.67,278.6,311.67Z"/><path class="cls-13" d="M315.24,279.61s-10.25,24.5-80.69,39.62c0,0,4.22,17.11,11.11,29.77,0,0,42.48-10.48,61-24.68S315.24,279.61,315.24,279.61Z"/><path class="cls-13" d="M347.28,265s45.6,10.53,59.93,125.2a44.36,44.36,0,0,1-28,3.33s-9.66-55.33-20.66-68.67l13.66,63.5s-48.67,13.08-82.67-2.92l25.33-105.19a6.8,6.8,0,0,1,2.18-3.64l11.16-9.08"/><path class="cls-13" d="M321.14,278.82l8.63-22.25s-28,28.66-25.56-34c0,0,25.56-42.67,38.22,16l5.38,29.35a2.6,2.6,0,0,1-.82,2.42c-3.84,3.46-16.91,14.63-23.61,12.92A3.33,3.33,0,0,1,321.14,278.82Z"/><circle class="cls-13" cx="306.66" cy="241.31" r="4.2"/><path class="cls-13" d="M327.46,236s-7.58-22.44-23.25-13.44c0,0-5.25-3.12-3-8.23s14.41-18.22,33.3-15.44,23.11,13.89,23.11,13.89,7.67,12.22-2.11,28.78-18.15,9.73-18.59,9.73,3.79-3.16,2.9-13.49-6.08-13.64-6.08-13.64A18,18,0,0,0,327.46,236Z"/><circle class="cls-13" cx="337.18" cy="229.96" r="7.16"/><path class="cls-13" d="M350.77,205s8.11-21.65,31.28-6.48-5.34,52.5-5.34,52.5,3-42.67-18.83-36.17S350.77,205,350.77,205Z"/><path class="cls-13" d="M436.8,463.67a65.06,65.06,0,0,0,27.39,20.6l-18.95-42.53c-11.9,2.78-11.88,11.56-11.88,11.56"/><path class="cls-13" d="M420.9,455l12.7-1s5.5,2.64,2.95,9l-9.32,4.81Z"/><g class="cls-14"><path class="cls-28" d="M388.06,336.09s25.75,71.08,1.39,95.41c0,0-8.86,6.92-6.65-10.39s-3.7-9.76-3.7-9.76-5.8,3.26-2.52-6.06c2.43-6.9,11.65-4.74,11.65-4.74s1-33.39-12-56.26C376.26,344.29,373.79,331.4,388.06,336.09Z"/><path class="cls-29" d="M296.32,388.18s12.89,79.56,34.89,109.12c0,0,43.56,22,97.78-25.89L419.43,452s-31.27,0-43.85,3.11c0,0-1.48-51.78-10.59-68S296.32,388.18,296.32,388.18Z"/><path class="cls-27" d="M272.57,591.63H219.9s16.91-13.22,38-16.78l11.37,2.89S272.68,581,272.57,591.63Z"/><path class="cls-22" d="M257.64,577.3l3.11-15.61,13.68,4.75-7.24,14.41S259.41,585.52,257.64,577.3Z"/><path class="cls-30" d="M254,560.23l40.62-173.59s64.08-24.87,71.68,3.07-80.63,181.14-80.63,181.14Z"/><path class="cls-28" d="M278.6,311.67s-32.83,11-44.15,13.26c-19,3.85-34.45,13.86-30.52,23.68a2.51,2.51,0,0,0,3.9-1c1.48-2.79,17.56-13.41,18.36.64.31,5.44,5.25-3.08,6.78-7.42a5,5,0,0,1,2.62-2.88c6.83-3.19,35.86-13.26,48.31-15.62C305.19,318.29,278.6,311.67,278.6,311.67Z"/><path class="cls-31" d="M315.24,279.61s-10.25,24.5-80.69,39.62c0,0,4.22,17.11,11.11,29.77,0,0,42.48-10.48,61-24.68S315.24,279.61,315.24,279.61Z"/><path class="cls-32" d="M347.28,265s45.6,10.53,59.93,125.2a44.36,44.36,0,0,1-28,3.33s-9.66-55.33-20.66-68.67l13.66,63.5s-48.67,13.08-82.67-2.92l25.33-105.19a6.8,6.8,0,0,1,2.18-3.64l11.16-9.08"/><path class="cls-28" d="M321.14,278.82l8.63-22.25s-28,28.66-25.56-34c0,0,25.56-42.67,38.22,16l5.38,29.35a2.6,2.6,0,0,1-.82,2.42c-3.84,3.46-16.91,14.63-23.61,12.92A3.33,3.33,0,0,1,321.14,278.82Z"/><circle class="cls-28" cx="306.66" cy="241.31" r="4.2"/><path class="cls-26" d="M327.46,236s-7.58-22.44-23.25-13.44c0,0-5.25-3.12-3-8.23s14.41-18.22,33.3-15.44,23.11,13.89,23.11,13.89,7.67,12.22-2.11,28.78-18.15,9.73-18.59,9.73,3.79-3.16,2.9-13.49-6.08-13.64-6.08-13.64A18,18,0,0,0,327.46,236Z"/><circle class="cls-28" cx="337.18" cy="229.96" r="7.16"/><path class="cls-26" d="M350.77,205s8.11-21.65,31.28-6.48-5.34,52.5-5.34,52.5,3-42.67-18.83-36.17S350.77,205,350.77,205Z"/><path class="cls-27" d="M436.8,463.67a65.06,65.06,0,0,0,27.39,20.6l-18.95-42.53c-11.9,2.78-11.88,11.56-11.88,11.56"/><path class="cls-22" d="M420.9,455l12.7-1s5.5,2.64,2.95,9l-9.32,4.81Z"/></g><path class="cls-5" d="M12.74,27.62V193.8s181.94-86.59,398.64,43.47,521.55-42.59,521.55-42.59L890.37,45.78S614.91,207,424.65,74.11,12.74,27.62,12.74,27.62Z"/><path class="cls-33" d="M12.61,27.62V193.8s181.94-86.59,398.64,43.47,521.56-42.59,521.56-42.59L890.25,45.78S614.78,207,424.52,74.11,12.61,27.62,12.61,27.62Z"/><path class="cls-34" d="M427.74,276.41l3.39-13.48c.18-.68.72-3.23.49-3.08-6.21,4.28-24.1,13.34-24.73-38.83,0,0,26.18-42.61,38.85,16.06l3.56,25.77S432.85,286.41,427.74,276.41Z"/><circle class="cls-34" cx="408.92" cy="240.98" r="4.46"/><path class="cls-4" d="M435.32,235.85s-4,1.56-6.11,0V216l6.2-5.06S415.33,214,406.89,221l-3.27-3.79s2.76-14.48,20.84-20.66a33.26,33.26,0,0,1,24.07.66c7.39,3.23,15.05,9.87,15.68,23.51,1.3,28-19,32.66-19,32.66s3.21-6.75-.45-16C441.6,229.51,438.1,227.74,435.32,235.85Z"/><circle class="cls-34" cx="442.4" cy="230.32" r="7.06"/><path class="cls-34" d="M351.41,358.9s-25,11.48-22.77,28c0,0,.65,2,2.35,1,0,0,6-11.33,15.62-11.17,0,0,4,.74,4.92,6.74,0,0,1.46,2.25,3,.16,0,0,3.51-8,.51-12.28l3.22-2.19Z"/><path class="cls-1" d="M420.61,279.23s-10.27,34.88-22.49,45.1S347,357.22,347,357.22s14.66,19.22,19.55,21.5c0,0,24.3-13.37,42.37-27.28S420.61,279.23,420.61,279.23Z"/><path class="cls-4" d="M406.89,221l.11,4.76s-5.7-2-3.38-8.55Z"/><path class="cls-35" d="M411.88,418s-18.06-3.76-20.5-6.75l29.06-131.49a4.94,4.94,0,0,1,2.21-3.14l5.56-3.79L427.1,398.19Z"/><path class="cls-5" d="M448.38,396.05s-11.5,3.36-39.13-2.33l15.8-114.84h18.66Z"/><polygon class="cls-5" points="428.21 272.85 451.05 260.52 453.55 263.85 434.83 283.19 428.21 272.85"/><path class="cls-6" d="M329.32,591.63s12.74-16.06,35.22-16.79c4-.13,10.9,4.11,10.9,4.11s4.94,4,4.92,12.68Z"/><path class="cls-3" d="M363.71,576.44,367.05,565l13.33,4.43-5.67,11.56S367.33,582,363.71,576.44Z"/><polygon class="cls-1" points="358.21 566.21 409.25 393.72 440.88 454.85 386.21 575.57 358.21 566.21"/><path class="cls-6" d="M499.1,591.63s4.07-8,16-8.39l2.35-9.15,8.46-7.89s10.44.57,13.61,7.32l-9.83,18.11Z"/><path class="cls-3" d="M511.44,568l9-7.06,6.36,6s-1.16,8.5-8.67,7.83Z"/><path class="cls-35" d="M409.25,393.72l19,100.47s42.35,63.36,77.69,80.25l18.15-14.59-55.5-75.58,4.66-90.55Z"/><path class="cls-1" d="M416.44,416s13.19,9,55.53,1.95C472,417.92,441.44,433.08,416.44,416Z"/><path class="cls-34" d="M519,382.44s7.16,31.22-3.06,40c-14,12-4.14-13.62-7.14-17.85-1.42-2-.84,1.8-1.64,3.14-1.07,1.77-3.05,1.19-3.2-4.23a8,8,0,0,1,5.48-7.89s-.37-6.25-1.45-7.86"/><path class="cls-35" d="M453.55,264l-18,12.33L416.44,416s26,13.55,61.11,0l-9.11-94.23s21.77,30.45,30.22,67.78c0,0,15.55.67,28.22-6.44C526.88,383.08,513.32,299.3,453.55,264Z"/><polyline class="cls-6" points="432.82 280.02 426.02 285.94 427.55 288.44 421.88 367.52 414.21 377.69 410.21 367.52 422.63 287.6 424.1 285.35 423.38 280.02 428.21 272.85"/><path class="cls-3" d="M433.83,288.82l.81-5.93L432.82,280A22.44,22.44,0,0,1,433.83,288.82Z"/><ellipse class="cls-2" cx="412.41" cy="231.39" rx="0.97" ry="2.8"/><path class="cls-36" d="M410.33,226.46c1.58-1.76,3.81-.42,3.81-.42"/><path class="cls-37" d="M410.91,250.41s3.23.39,10.2-3.37c0,0-2.88,5.83-8.62,7.68A41,41,0,0,1,410.91,250.41Z"/><path class="cls-38" d="M438.17,228.08a4.71,4.71,0,0,1,5.72-2.3c4.05,1.19,3.11,5.61,3.11,5.61a6.16,6.16,0,0,0-8.83-3.31Z"/><path class="cls-38" d="M431.62,259.85l4.63-3.06s-2,4.58-5.3,6.86C431,263.65,431.23,262.2,431.62,259.85Z"/><path class="cls-1" d="M468.44,321.74s-5.11-7.05-8.61-9.22c0,0,8.92,12.44,9.5,18.51C469.33,331,468.79,323.55,468.44,321.74Z"/><path class="cls-4" d="M445.41,238.5s1.88,8-1.59,10.68c0,0,4.28-1.54,4.37-7.3S445.41,238.5,445.41,238.5Z"/><polyline class="cls-3" points="1474 269.56 1467.63 280.23 1464.76 301.06 1489.38 300.06 1493.84 262.85"/><path class="cls-39" d="M1472.28,276.41l5.34-21.33s-28,28.66-25.56-34c0,0,25.56-42.67,38.22,16l3.56,25.77S1477.39,286.41,1472.28,276.41Z"/><circle class="cls-39" cx="1453.46" cy="240.98" r="4.46"/><path class="cls-1" d="M1474,228.08l-1.16-11.56,8.55-5.58s-13.11,6.21-25.55,4.85a7.4,7.4,0,0,1-2.53,5.06s-15.08,5.59-9.58-13.66,47.91-15,50.08-13.17,29.45,30.2-1.65,56.89l-3.68-19.64Z"/><circle class="cls-39" cx="1486.23" cy="230.41" r="7.6"/><path class="cls-1" d="M1453.34,246.77s3.47,11.53,2.69,17.86h6.56L1482.7,254l-4-24.85-4.71-1-1.16,17.36-7.17,4.3-4.68-4a3.79,3.79,0,0,0-3.9-.6Z"/><path class="cls-39" d="M1420.92,379.52s-18.5,20.33-10,34.67c0,0,1.39,1.61,2.56,0,0,0,1.11-12.78,10-16.39,0,0,4-.89,7.16,4.28,0,0,2.23,1.5,2.78-1,0,0,.11-8.73-4.33-11.5l2.11-3.28Z"/><path class="cls-39" d="M1548.26,388.19s4.29,30.64-10.12,42.11-1.55-19.67-6.55-21.06-9.86,5.5-7-3.94c2.24-7.36,11.87-5.89,11.87-5.89s.77-6.22,0-8"/><path class="cls-3" d="M1493.84,262.85s57.53,15.78,61.53,127.12a55.81,55.81,0,0,1-27.34,2.88s-5.77-41.21-18.44-64.72c0,0-14.22-2.53-14.22-28.57Z"/><path class="cls-4" d="M1416.76,379.35s11.38,9.84,25.79,12.5l19-33.5,4.17-81.94L1449,333.52S1425.92,362.52,1416.76,379.35Z"/><path class="cls-40" d="M1519.59,560.41l-17.33,10.22s-52.56-31.2-73.33-80.19a23.13,23.13,0,0,1-1.78-9.93c.37-9.5,2.65-31.36,14.22-65.43,0,0,20.66-20.26,38.66,57.09C1480,472.17,1497.81,520.19,1519.59,560.41Z"/><path class="cls-41" d="M1568.92,451.74s-29.11-.66-43.78,1.34l-15.55-124.95s-27.28-25.35-3.83-59.28c0,0-6.67-4.54-11.92-6,0,0-5.68,6.4-11,33.31,0,0-9.59-.64-13.93.53a195,195,0,0,1,5.08-27.13l-7.25,6a3.58,3.58,0,0,0-1.22,2.11l-24.16,137.39c16,1.33,19.11,26.66,19.11,26.66s5.78,42.67,25.55,55.34,68.45-5.37,92.67-24.91Z"/><path class="cls-8" d="M1495.88,591.63s7.17-6.83,16-8.39l2.35-9.15,8.46-7.89s10.44.57,13.61,7.32l-9.83,18.11Z"/><path class="cls-8" d="M1579.51,453.3s0-8.78,11.87-11.56l18.95,42.53a65.12,65.12,0,0,1-27.39-20.6"/><path class="cls-7" d="M1570.79,455.64l11-2.67s6.56,2.33,3.78,9l-9.33,5.11Z"/><path class="cls-7" d="M1506.82,567.94l9.88,7.18s7.11-.09,6.78-7.18l-5.91-6.34Z"/><path class="cls-35" d="M1482.7,228.33a4.71,4.71,0,0,1,5.72-2.3c4.06,1.19,3.11,5.61,3.11,5.61a6.17,6.17,0,0,0-8.83-3.31Z"/><ellipse class="cls-2" cx="1456.86" cy="230.32" rx="1.11" ry="3.19"/><path class="cls-42" d="M1455,224.53a4.7,4.7,0,0,1,4.26,0"/><path class="cls-35" d="M226.33,278.47l4.95-20.5s-1.13.59-3.28,1.55c-8.06,3.6-24.19,10.18-21.33-38.44,0,0,25.55-42.67,38.22,16l4.41,31.32S231.44,288.47,226.33,278.47Z"/><path class="cls-35" d="M211.61,241a4.46,4.46,0,0,1-4.46,4.46,3.71,3.71,0,0,1-4.07-3.92c0-2.46,2.37-6.08,4.83-6.08S211.61,238.52,211.61,241Z"/><path class="cls-43" d="M231.42,232.85S223,212.1,206.67,221.08c0,0-5.25-3.11-3.06-8.23s14.42-18.22,33.31-15.44S260,211.3,260,211.3s7.67,12.22-2.11,28.78-15.64,10.12-16.09,10.12,2.59-4.69.4-13.88c-2.41-10.09-6.08-13.64-6.08-13.64S232.89,224.6,231.42,232.85Z"/><circle class="cls-35" cx="240.49" cy="228.92" r="7.6"/><path class="cls-35" d="M187.31,333.48s-27.5,19.15-37.39,24.37c-16.61,8.77-28.22,22.29-21.89,30.34a2.43,2.43,0,0,0,3.35-2c.62-3,12.65-17.26,17.23-4.43,1.78,5,4-4.29,4.28-8.74a4.89,4.89,0,0,1,1.64-3.4c5.47-4.82,29.69-22.11,40.61-27.7C213.81,332.36,187.31,333.48,187.31,333.48Z"/><path class="cls-44" d="M215.81,279.23s-9.46,34-31,50.59c0,0,5.73,10.53,19.54,18.95L222,325.27Z"/><polygon class="cls-44" points="194.28 404.06 154.81 550.41 218.59 569.08 234.29 507.88 235.47 447.08 194.28 404.06"/><path class="cls-45" d="M194.28,404.05l22.87,71.53a68.43,68.43,0,0,0,6.37,14.15L270,568.05l48.17-24.86-40.75-67.71a20,20,0,0,1-2.85-11c.49-13.86,1.37-48.18-1.57-59.16C265.32,376.53,194.28,404.05,194.28,404.05Z"/><path class="cls-44" d="M194.28,404.05s34.6,22.52,78.9,1.83Z"/><path class="cls-35" d="M299.8,330.52s32.79,68.11,11,94.78c0,0-8.11,7.78-7.67-9.67s-4.67-9.33-4.67-9.33-5.43,3.83-3.11-5.78c1.73-7.11,11.11-5.89,11.11-5.89s-2.41-33.32-17.59-54.77C288.88,339.86,285.12,327.3,299.8,330.52Z"/><path class="cls-45" d="M228.17,277.85l20.61-12.11s6.92-2.22,10.08.78,47.34,55,47.34,55-6.5,16.33-37.5,29.17c0,0,5.66,35.16,12,52.5,0,0-48.69,21.33-95.85-3.5,0,0,29.08-58.83,30.32-118.17a4.8,4.8,0,0,1,2-3.83l11.14-7.53Z"/><circle class="cls-43" cx="262.31" cy="204.73" r="13.8"/><path class="cls-44" d="M255.52,350.88l-6.35-44.66A101.71,101.71,0,0,1,255.52,350.88Z"/><path class="cls-3" d="M128.36,591.63s19.1-12.16,30.39-11.51l11.28.65s4.67,2.64,5,10.86Z"/><path class="cls-3" d="M293.71,591.63s7.17-6.83,16-8.39l3.46-7.36,8.65-7.83s8.77-.59,11.93,6.16l-9.46,17.42Z"/><path class="cls-35" d="M165.39,553.51l-7,28.14a7.45,7.45,0,0,0,10,2.67L180.73,558Z"/><path class="cls-35" d="M289.67,557.91l26,19.9s8.89,1.64,8.66-6.87l-18.68-21.3Z"/><path class="cls-1" d="M231.28,258l5.64-3.09a31.88,31.88,0,0,0-6.79,7.85Z"/><path class="cls-1" d="M236.59,226.66a4.72,4.72,0,0,1,5.73-2.3c4.05,1.19,3.11,5.61,3.11,5.61a6.19,6.19,0,0,0-8.84-3.31Z"/><ellipse class="cls-2" cx="212.7" cy="231.48" rx="0.97" ry="2.8"/><path class="cls-46" d="M210.8,225.64c2.07-2.34,4.14,0,4.14,0"/><path class="cls-47" d="M209.58,251.5a12.14,12.14,0,0,0,6.42-2"/><path class="cls-38" d="M598.06,324.11s-22.85,27.43-31.53,35.58c-14.59,13.7-22.7,30.86-13.94,37.34a2.6,2.6,0,0,0,2.89-3c-.22-3.26,8.12-21.3,16.45-9.41,3.22,4.61,2.94-5.54,1.93-10.18a5.15,5.15,0,0,1,.73-3.95c4.26-6.5,24.26-31.09,33.9-39.92C625,315.49,598.06,324.11,598.06,324.11Z"/><path class="cls-40" d="M609.28,341.62s-10.08-6.32-15.41-23.21c0,0,28.8-31.9,31.58-43.6l4.28,21Z"/><path class="cls-6" d="M599.34,414.62s-22.69,64.9-25.69,102.23l39.67,11.34s5.66-27.67,23.33-68.67S599.34,414.62,599.34,414.62Z"/><path class="cls-7" d="M667.65,535.85S623.36,520.54,613.84,419l60.28-2.93s1.4,32.26-2.6,50.69c-1.47,6.74-1.33,14.91,2.63,20.56l20.61,27.84Z"/><path class="cls-38" d="M687.42,331s36.06,70.29,13.21,98.36c0,0-8.54,8.21-8.33-9.93s-5.13-9.63-5.13-9.63-5.75,4.07-3.41-6c1.73-7.42,11.77-6.3,11.77-6.3s-4-37.39-20.6-59.45C674.93,338.09,671.69,327.88,687.42,331Z"/><path class="cls-41" d="M655.83,263.31c7.41,4.33,21.45,18.14,38.93,62,0,0-11.56,12.22-25.56,16.44l8.67,72.88s-39.11,18.17-85.55-2.91l32.95-136.13a7,7,0,0,1,3.89-4.72l17.44-7.94A10.06,10.06,0,0,1,655.83,263.31Z"/><path class="cls-40" d="M649.51,303.33s11.78,21.3,10.89,39.08Z"/><path class="cls-38" d="M631.72,273.24l1.55-16.71a13.72,13.72,0,0,1-4.46,2.62c-9.19,3.46-24.61,6.16-20.67-49.8,0,0,25.7-32.45,38.37,26.22l2.49,27s-8.16,15.89-16,13.27C631.67,275.41,631.61,273.76,631.72,273.24Z"/><path class="cls-38" d="M612,236.5a4.46,4.46,0,0,1-8.92,0c0-2.46,3-8.76,5.45-8.76S612,234,612,236.5Z"/><path class="cls-8" d="M629.87,235l-1.78-19.49,7.37-5.4s-47.59,11.18-31.14-17.27c0,0,4,4.67,40,0,0,0,13.77-2.48,13.11,11.88,0,0,10.15,26.58-9.63,44.8L645.37,228Z"/><circle class="cls-38" cx="642.46" cy="228.9" r="7.6"/><path class="cls-48" d="M574.76,575.52c-16.26,1.92-31.11,16.11-31.11,16.11h47.9s-1.27-12.16-5.19-13.11C586.36,578.52,577.86,575.16,574.76,575.52Z"/><path class="cls-3" d="M584.27,519.89l-9.51,55.63s2.67,11.68,12,3.4l14.51-54.18Z"/><polygon class="cls-38" points="581.82 534.22 597.61 538.42 601.27 524.75 584.27 519.89 581.82 534.22"/><path class="cls-48" d="M695.69,591.63s5.73-7.4,14.56-9l4.92-7.83,8.63-6.79s8.77-.59,11.94,6.16l-9.46,17.42Z"/><path class="cls-3" d="M673.57,531.34s31.63,36,44.08,44.18c0,0,8.42,3.08,8.42-5.92l-38.38-49Z"/><polygon class="cls-38" points="683.15 541.66 696.36 531.49 687.69 520.58 673.57 531.34 683.15 541.66"/><path class="cls-35" d="M638.33,226.56a4.73,4.73,0,0,1,5.72-2.3c4.06,1.19,3.11,5.61,3.11,5.61a6.17,6.17,0,0,0-8.83-3.31Z"/><ellipse class="cls-2" cx="613.17" cy="224.48" rx="1.11" ry="3.19"/><path class="cls-49" d="M611.8,218.5c2-1.24,3.77.67,3.77.67"/><path class="cls-50" d="M610.17,246.19a7.59,7.59,0,0,0,7.16-2.17"/><path class="cls-1" d="M633.27,256.53l4.69-3.45s-1.81,5.24-5.06,7.52C632.9,260.6,633.07,258.56,633.27,256.53Z"/><path class="cls-34" d="M841.68,348.2s-22.88,26-31.52,33.63c-14.51,12.88-22.83,29.29-14.51,35.8a2.52,2.52,0,0,0,2.88-2.82c-.13-3.16,8.44-20.41,16.19-8.67,3,4.55,3-5.29,2.14-9.81a5,5,0,0,1,.82-3.81C822,386.34,842,363,851.62,354.75,868,340.58,841.68,348.2,841.68,348.2Z"/><path class="cls-34" d="M923.19,336.09s25.74,71.08,1.38,95.41c0,0-8.86,6.92-6.65-10.39s-3.7-9.76-3.7-9.76-5.8,3.26-2.52-6.06c2.44-6.9,11.65-4.74,11.65-4.74s1-33.39-12-56.26C911.38,344.29,908.91,331.4,923.19,336.09Z"/><path class="cls-11" d="M805.22,375.74l35.52-49,18.93,24.5L829.44,398S813,385.52,805.22,375.74Z"/><path class="cls-9" d="M831.44,388.18s-17.33,54.45-18,93.79c0,0,2.67,38.44,75.34,88.88L909,559.52l-29.56-56.89-4.88-113.55Z"/><path class="cls-51" d="M831.44,388.18s12.89,79.56,34.89,109.12c0,0,43.56,22,97.78-25.89L954.56,452s-31.28,0-43.86,3.11c0,0-1.48-51.78-10.59-68S831.44,388.18,831.44,388.18Z"/><path class="cls-52" d="M882.4,265s45.6,10.53,59.93,125.2a44.36,44.36,0,0,1-28,3.33s-9.66-55.33-20.66-68.67l13.66,63.5s-48.66,13.08-82.66-2.92L850,280.24a6.8,6.8,0,0,1,2.18-3.64l11.16-9.08"/><path class="cls-34" d="M861.83,276.69l3.06-20.12s-28,28.66-25.56-34c0,0,25.56-42.67,38.23,16l5.37,29.35a2.6,2.6,0,0,1-.82,2.42c-3.84,3.46-11.36,10.93-17,10.35C863.17,280.48,861.12,278.54,861.83,276.69Z"/><path class="cls-34" d="M843.4,243a3.45,3.45,0,0,1-3.16,3.59c-4.06.69-4.06-1.59-4.06-3.59s1.89-4.72,3.89-4.72S843.4,241,843.4,243Z"/><path class="cls-44" d="M862.58,236s-7.58-22.44-23.25-13.44c0,0-5.25-3.12-3.05-8.23s14.41-18.22,33.3-15.44,23.11,13.89,23.11,13.89,7.67,12.22-2.11,28.78S872.43,251.3,872,251.3s3.79-3.16,2.9-13.49-6.08-13.64-6.08-13.64A18,18,0,0,0,862.58,236Z"/><circle class="cls-34" cx="872.3" cy="229.96" r="7.16"/><path class="cls-44" d="M885.89,205s8.11-21.65,31.28-6.48-5.34,52.5-5.34,52.5,3-42.67-18.83-36.17S885.89,205,885.89,205Z"/><path class="cls-43" d="M883,591.63s7.16-6.83,16-8.39l3.46-7.36,8.65-7.83s8.76-.59,11.93,6.16l-9.46,17.42Z"/><path class="cls-43" d="M971.92,463.67a65.12,65.12,0,0,0,27.39,20.6l-18.95-42.53c-11.9,2.78-11.87,11.56-11.87,11.56"/><path class="cls-53" d="M893.81,568l10,6.61s8.2,2.43,7.28-6.59l-5.9-6.39Z"/><path class="cls-53" d="M956,455l12.7-1s5.5,2.64,2.95,9l-9.32,4.81Z"/><path class="cls-38" d="M867.83,228.15a4.72,4.72,0,0,1,5.73-2.3c4.05,1.19,3.11,5.61,3.11,5.61a6.19,6.19,0,0,0-8.84-3.31Z"/><path class="cls-54" d="M842.56,229.84c2-1.25,3.77.66,3.77.66"/><path class="cls-50" d="M842.4,252.1a7.63,7.63,0,0,0,4.83-1.14"/><path class="cls-12" d="M842,234.42a3.23,3.23,0,0,1,3.23.58"/><path class="cls-35" d="M1052.79,349.3s-28.82,19.16-39.15,24.33C996.3,382.31,984,396,990.36,404.45a2.52,2.52,0,0,0,3.51-2c.69-3.08,13.44-17.53,17.88-4.18,1.72,5.17,4.27-4.34,4.61-8.93a5.06,5.06,0,0,1,1.78-3.47c5.76-4.85,31.15-22.16,42.55-27.69C1080.19,348.75,1052.79,349.3,1052.79,349.3Z"/><path class="cls-35" d="M1153.38,325.21s43.94,61.52,27,91.51c0,0-6.67,9-9.21-8.22s-6.19-8.39-6.19-8.39-4.7,4.7-4-5.17c.48-7.3,9.94-7.7,9.94-7.7s-8.06-32.41-26.69-51C1144.22,336.28,1138.37,324.54,1153.38,325.21Z"/><path class="cls-6" d="M1010.45,366.47l39.86-32.35a21.16,21.16,0,0,0,6.32-8.63l17.83-45.16-5.08,76.57-41.29,37.3S1015.43,377.92,1010.45,366.47Z"/><path class="cls-43" d="M1055.45,389.62s-17.33,54.46-18,93.79c0,0,2.67,38.44,75.33,88.89L1133,561l-29.56-56.89-4.89-113.56Z"/><path class="cls-48" d="M1055.45,389.62s12.89,79.57,34.89,109.12c0,0,43.56,22,97.78-25.89l-9.56-19.44s-31.27,0-43.86,3.11c0,0-1.47-51.78-10.58-68S1055.45,389.62,1055.45,389.62Z"/><path class="cls-7" d="M1106.4,266.43s61.73,36,17.4,57.28a8.54,8.54,0,0,0-4.65,9.47l12.19,56.62s-48.67,13.07-82.67-2.93L1074,281.68a6.82,6.82,0,0,1,2.17-3.63l11.17-9.08"/><path class="cls-35" d="M1080.27,280.27,1088.9,258s-28,28.67-25.56-34c0,0,1.22-13.16,9.72-15,16.75-3.55,21.28-2.47,28.5,31l5.38,29.35a2.67,2.67,0,0,1-.82,2.43c-3.84,3.45-16.91,14.63-23.61,12.92A3.33,3.33,0,0,1,1080.27,280.27Z"/><circle class="cls-35" cx="1064.87" cy="242.99" r="4.2"/><circle class="cls-28" cx="1096.31" cy="231.41" r="7.16"/><path class="cls-2" d="M1107,593.08s7.17-6.84,16-8.39l3.47-7.37,8.64-7.83s8.77-.59,11.94,6.16l-9.46,17.43Z"/><path class="cls-2" d="M1195.92,465.12a65.12,65.12,0,0,0,27.4,20.6l-19-42.53c-11.91,2.77-11.88,11.56-11.88,11.56"/><path class="cls-9" d="M1117.82,569.48l10,6.61s8.21,2.43,7.28-6.6l-5.89-6.39Z"/><path class="cls-9" d="M1180,456.4l12.7-1s5.5,2.64,2.94,9l-9.32,4.81Z"/><path class="cls-7" d="M1160.33,382.9s-22.31-48-38.4-60.56c0,0-21.38-29.61-18.13-42.12s21.23.6,21.23.6,33,21.84,61.37,91.33C1186.4,372.15,1177.26,381.37,1160.33,382.9Z"/><path class="cls-48" d="M1063.48,223l15.64,8.42-1.85,33.07s4-.5,5.25,0,1.94,3.52,1.74,5.45-8.09,8.08-8.09,8.08-2,23.55,22.81,8.89c0,0,15.39-12.64,26.15-6.61l4.6,4.19a35.18,35.18,0,0,0-12.67-15.33c-10.08-6.84-4.39-35-4.39-35s4.56-25-15.91-30.22C1081.24,200,1064.78,204.41,1063.48,223Z"/><path class="cls-43" d="M1079.12,231.41l1-14.08s.09,8.09-5.12,11.84Z"/><path class="cls-43" d="M1086.69,265.08s10.76-7.48,13.43-20.73C1100.12,244.35,1094.31,257.91,1086.69,265.08Z"/><path class="cls-1" d="M1063.48,223l15.64,8.42-.27,4.78S1074.26,228.79,1063.48,223Z"/><ellipse class="cls-2" cx="1067.48" cy="236.61" rx="1.11" ry="3.19"/><path class="cls-49" d="M1066.11,230.63c2-1.24,3.77.67,3.77.67"/><path class="cls-50" d="M1066.88,252.9a7.62,7.62,0,0,0,7.17-2.16"/><path class="cls-34" d="M1276.5,278.77l3.06-20.21s-27.23,21.13-23.3-36c0,0,25.56-42.67,38.22,16l5.38,29.35a2.6,2.6,0,0,1-.82,2.42c-3.84,3.46-13.1,13.56-19.79,11.85C1277.33,281.7,1275.78,280.62,1276.5,278.77Z"/><circle class="cls-34" cx="1257.21" cy="242.76" r="4.2"/><path class="cls-34" d="M1289,344.27s-46.35,59.72-79.93,52.12c0,0-10.58-3.8,5.24-11.18s6.27-8.33,6.27-8.33-5.85-3.17,3.78-5.37c7.14-1.62,10.23,7.32,10.23,7.32s28.75-17,41.18-40.16C1275.8,338.67,1285.37,329.7,1289,344.27Z"/><path class="cls-34" d="M1233,310.41s-32.83,11-44.15,13.26c-19,3.85-34.45,13.86-30.52,23.68a2.51,2.51,0,0,0,3.9-1c1.48-2.79,17.56-13.41,18.36.64.31,5.44,5.25-3.08,6.78-7.42a5,5,0,0,1,2.62-2.88c6.83-3.19,35.86-13.27,48.31-15.63C1259.56,317,1233,310.41,1233,310.41Z"/><path class="cls-1" d="M1389.79,463.74A71.84,71.84,0,0,0,1420,486.46l-20.9-46.91C1386,442.61,1386,452.3,1386,452.3"/><path class="cls-1" d="M1229.18,591.63h-52.66s16.91-13.22,38-16.78l11.38,2.89S1229.29,581,1229.18,591.63Z"/><path class="cls-3" d="M1214.25,577.3l3.12-15.61,13.67,4.75-7.23,14.41S1216,585.52,1214.25,577.3Z"/><path class="cls-3" d="M1373.53,455.2l6.35,12,12.18-5.78s2.09-7.26-4.68-8.89Z"/><polygon class="cls-6" points="1210.58 560.23 1251.2 386.64 1290.37 388.18 1293.37 484.27 1242.25 570.85 1210.58 560.23"/><path class="cls-44" d="M1269.61,278.35s-10.24,24.5-80.69,39.62c0,0,4.22,17.11,11.11,29.77,0,0,42.48-10.48,61-24.68S1269.61,278.35,1269.61,278.35Z"/><path class="cls-7" d="M1256.11,387.88s9.57,87.67,31.75,109.67c0,0,31.84,21,95.84-26l-12-24.33s-25-2.22-44,3.78c0,0-.55-53.76-7.76-63.7S1256.11,387.88,1256.11,387.88Z"/><path class="cls-45" d="M1298.78,262s37.47,6.56,14.36,67.69l12.23,59.13s-36.34,7.17-64.89,1.78l-6.11,3.82s-9.17-7.87-19.84-25.43l21.58-20.17,13.5-70.5a7.59,7.59,0,0,1,4.43-5.54Z"/><path class="cls-44" d="M1262.9,388.18S1297,358,1311,333.1C1311,333.1,1299.33,364,1262.9,388.18Z"/><path class="cls-4" d="M1256.26,222.57s9.61-10.88,28.94,6.12l5.5-1.67,4.5,4.33-3.83,8.5s.19,16.14-6.81,26.81c0,0,25.94,9.75,40.81-6.1,0,0-17-12.54-13.84-44.37,0,0-3.33-22.17-29.83-21.67,0,0-15.83.83-22.17,9.33,0,0-10.33-1.66-9.83,10.84s6.41,17.75,6.41,17.75Z"/><circle class="cls-34" cx="1290.21" cy="231.94" r="8.14"/><path class="cls-38" d="M1286.55,228.6a4.7,4.7,0,0,1,6-1.47c3.85,1.74,2.3,6,2.3,6a6.18,6.18,0,0,0-8.28-4.52Z"/><path class="cls-38" d="M864.89,256.57l3.86-3.67s-4.34,6.81-4.86,10.24Z"/><path class="cls-38" d="M1279.56,258.56l5-3.7s-5.11,7-6.17,11.4Z"/><ellipse class="cls-2" cx="1261.71" cy="233.55" rx="1.11" ry="3.19"/><path class="cls-36" d="M1260.34,227.57c2-1.25,3.77.66,3.77.66"/><path class="cls-37" d="M1260.34,250.77l1.37,4s4.65-3.17,4.73-5.08C1266.51,248.25,1265.33,250.66,1260.34,250.77Z"/><path class="cls-4" d="M1269.92,218.85s14.08,6.59,10.08,19c0,0,7.43-7.41.72-20.33S1269.92,218.85,1269.92,218.85Z"/><circle id="Ellipse_11" data-name="Ellipse 11" class="cls-55" cx="115.72" cy="86.89" r="56"/><ellipse id="Ellipse_12" data-name="Ellipse 12" class="cls-5" cx="89.27" cy="86.89" rx="23.33" ry="34.22"/><ellipse id="Ellipse_13" data-name="Ellipse 13" class="cls-55" cx="84.61" cy="88.45" rx="12.44" ry="23.33"/></g></g></svg>