<svg xmlns="http://www.w3.org/2000/svg" width="218.368" height="40.585" viewBox="0 0 218.368 40.585">
  <g id="Chase" transform="translate(0 0)">
    <g id="Layer_1" data-name="Layer 1" transform="translate(0 0)">
      <g id="layer1">
        <g id="logotype">
          <g id="g17202">
            <g id="logo" transform="translate(177.767)">
              <path id="logo-ne" d="M416.684,213.84a1.434,1.434,0,0,0-1.434,1.434V225.32h26.543L429.7,213.84h-13.02" transform="translate(-402.164 -213.84)" fill="#c0cbdc"/>
              <path id="logo-se" d="M458.27,241.014a1.434,1.434,0,0,0-1.434-1.434H446.79v26.538l11.475-12.09V241.014" transform="translate(-417.669 -226.494)" fill="#c0cbdc"/>
              <path id="logo-sw" d="M416.525,282.57a1.434,1.434,0,0,0,1.434-1.434V271.09H391.42L403.5,282.57h13.02" transform="translate(-390.449 -241.984)" fill="#c0cbdc"/>
              <path id="logo-nw" d="M389.51,240.845a1.439,1.439,0,0,0,1.434,1.439H400.99V215.74l-11.48,12.085v13.02" transform="translate(-389.51 -214.774)" fill="#c0cbdc"/>
            </g>
            <g id="type" transform="translate(0 4.804)">
              <path id="H" d="M127.715,223.37v12.258H110.638V223.37H104.42v30.9h6.218V240.976h17.077V254.25h6.228V223.37h-6.228" transform="translate(-71.593 -223.329)" fill="#c0cbdc"/>
              <path id="E" d="M313,223.37v30.89h27.281l-3.452-5.44H319.223v-7.845h17.036v-5.236H319.223v-7.062h17.565l3.386-5.308H313" transform="translate(-174.131 -223.329)" fill="#c0cbdc"/>
              <path id="C" d="M49.586,223.35c-6.467,0-9.736,3.935-9.736,9.66v11.515c0,6.609,4.21,9.715,9.705,9.715H69.042l-3.62-5.648H50.735c-3.122,0-4.484-1.129-4.484-4.621V233.518c0-3.376,1.149-4.692,4.576-4.692H65.57l3.472-5.475H49.586" transform="translate(-39.85 -223.319)" fill="#c0cbdc"/>
              <path id="S" d="M251.739,223.315c-3.732,0-7.565,2.247-7.565,8.023V232.8c0,6.019,3.686,8.317,7.372,8.333h12.939c1.347,0,2.435.224,2.435,2.5v2.623c-.036,2.034-1.052,2.506-2.481,2.506H247.418l-3.488,5.44h20.91c5.043,0,8.465-2.511,8.465-8.3v-2.13c0-5.592-3.178-8.251-8.109-8.251H252.837c-1.368,0-2.323-.371-2.323-2.4v-2.14c0-1.729.656-2.359,2.252-2.359h16.213l3.386-5.328H251.739" transform="translate(-140.176 -223.29)" fill="#c0cbdc"/>
              <path id="A" d="M183.832,223.37l-14.652,30.9H176.1l2.857-6.38h15.923l2.842,6.38h6.95l-14.683-30.9Zm3.091,6.421,5.628,12.837H181.326l5.592-12.837" transform="translate(-103.429 -223.329)" fill="#c0cbdc"/>
            </g>
          </g>
        </g>
      </g>
    </g>
  </g>
</svg>
