<svg id="Citi" xmlns="http://www.w3.org/2000/svg" width="68.043" height="43.875" viewBox="0 0 68.043 43.875">
  <g id="Layer_1" data-name="Layer 1" transform="translate(0 0)">
    <path id="Path_52" data-name="Path 52" d="M202.55,223.2h5.556V196.07H202.55V223.2" transform="translate(-175.478 -179.835)" fill="#c0cbdc"/>
    <path id="Path_53" data-name="Path 53" d="M279.416,177.473a8.057,8.057,0,0,1-4.1,1.359c-1.8,0-2.617-.949-2.617-3.061V161.377h5.662v-5.106h-5.655V147.83l-5.446,2.917v5.524h-4.7v5.106h4.7v15.312c0,4.169,2.472,7.024,6.163,7.1a8.718,8.718,0,0,0,4.928-1.245l.059-.037,1.334-5.233-.328.2" transform="translate(-225.02 -140.01)" fill="#c0cbdc"/>
    <path id="Path_54" data-name="Path 54" d="M385.56,223.2h5.563V196.07H385.56V223.2" transform="translate(-326.565 -179.835)" fill="#c0cbdc"/>
    <path id="Path_55" data-name="Path 55" d="M68.1,213.17l-.126.12a9.236,9.236,0,0,1-6.58,3.06c-4.884,0-8.439-3.663-8.439-8.73S56.5,198.9,61.4,198.9a9.227,9.227,0,0,1,6.58,3.074l.126.119,3.14-3.8-.084-.1a12.007,12.007,0,0,0-9.615-4.595,14.571,14.571,0,0,0-9.955,3.646,14.85,14.85,0,0,0,0,20.773,14.53,14.53,0,0,0,9.96,3.654,11.991,11.991,0,0,0,9.615-4.6l.084-.092-3.14-3.806" transform="translate(-47.35 -177.788)" fill="#c0cbdc"/>
    <path id="Path_56" data-name="Path 56" d="M225.8,114.479a26.966,26.966,0,0,0-44.151,0l-.262.37h6.386l.07-.077a21.783,21.783,0,0,1,31.747,0l.07.077h6.39l-.249-.37" transform="translate(-158.009 -103)" fill="#c0cbdc"/>
  </g>
</svg>
