<svg xmlns="http://www.w3.org/2000/svg" width="117.671" height="40.586" viewBox="0 0 117.671 40.586">
  <g id="Dell" transform="translate(0 0)">
    <g id="Layer_1" data-name="Layer 1" transform="translate(0 0)">
      <g id="g3464">
        <path id="path3466" d="M56.189,196.109c0-4.551-3.01-7.137-7.3-7.137H46.277v14.276h2.542c3.973,0,7.369-2.159,7.369-7.142m46.548,5.139-19.279,15.18L65.841,202.557a17.026,17.026,0,0,1-15.762,10.35H35V179.315H50.078A16.9,16.9,0,0,1,65.835,189.7L83.459,175.84l6.527,5.139L73.84,193.674l3.1,2.43,16.146-12.689,6.538,5.123L83.48,201.249l3.1,2.433,16.165-12.711V179.315h11.718V203.1h11.688v9.852H102.737Zm38.249,1.858h11.685v9.852H129.257v-33.64h11.729Z" transform="translate(-35 -175.84)" fill="#c0cbdc"/>
      </g>
    </g>
  </g>
</svg>
