<svg id="finance" xmlns="http://www.w3.org/2000/svg" width="677.372" height="540.184" viewBox="0 0 677.372 540.184">
  <rect id="Bg" width="677.372" height="540.184" rx="11.32" fill="#fff"/>
  <path id="Side" d="M9.2,0H225.276V540.184H9.2a9.2,9.2,0,0,1-9.2-9.2V9.2A9.2,9.2,0,0,1,9.2,0Z" fill="#3e8948"/>
  <g id="GreenText" transform="translate(22.1 462.275)">
    <rect id="Rectangle_449" data-name="Rectangle 449" width="35.273" height="11.657" rx="3.27" transform="translate(82.98 28.8)" fill="#63c74d"/>
    <rect id="Rectangle_450" data-name="Rectangle 450" width="56.966" height="11.657" rx="3.27" transform="translate(124.148 28.8)" fill="#63c74d"/>
    <rect id="Rectangle_451" data-name="Rectangle 451" width="102.777" height="11.657" rx="3.27" transform="translate(0 46.323)" fill="#63c74d"/>
    <rect id="Rectangle_452" data-name="Rectangle 452" width="77.189" height="11.657" rx="3.27" transform="translate(0 28.8)" fill="#63c74d"/>
    <rect id="Rectangle_453" data-name="Rectangle 453" width="102.777" height="21.086" rx="3.27" fill="#63c74d"/>
  </g>
  <g id="Avatar" transform="translate(13.372 12.709)">
    <circle id="Ellipse_68" data-name="Ellipse 68" cx="28.582" cy="28.582" r="28.582" fill="#fff"/>
    <circle id="Ellipse_69" data-name="Ellipse 69" cx="7.174" cy="7.174" r="7.174" transform="translate(39.661 40.447)" fill="#63c74d" stroke="#fff" stroke-miterlimit="10" stroke-width="2.56"/>
    <path id="Path_1079" data-name="Path 1079" d="M42.634,44h2.218a8.434,8.434,0,0,1,8.434,8.434v6.577H34.2V52.463A8.434,8.434,0,0,1,42.634,44Z" transform="translate(-15.161 -15.01)" fill="#3e8948"/>
    <circle id="Ellipse_70" data-name="Ellipse 70" cx="6.501" cy="6.501" r="6.501" transform="translate(22.081 13.884)" fill="#3e8948"/>
  </g>
  <text id="James" transform="translate(82.686 40.494)" fill="#fff" font-size="22" font-family="Roboto-Black, Roboto" font-weight="800"><tspan x="0" y="0">James</tspan></text>
  <text id="Monthly_Revenue" data-name="Monthly Revenue" transform="translate(257.137 38.333)" fill="#262b44" font-size="18" font-family="Roboto-Medium, Roboto" font-weight="500"><tspan x="0" y="0">Monthly R</tspan><tspan y="0" letter-spacing="-0.01em">ev</tspan><tspan y="0">enue</tspan></text>
  <text id="Finance-2" data-name="Finance" transform="translate(82.686 61.181)" fill="#fff" font-size="16" font-family="Roboto-Medium, Roboto" font-weight="500"><tspan x="0" y="0">Finance</tspan></text>
  <g id="Icons" transform="translate(608.02 9.467)">
    <circle id="Ellipse_71" data-name="Ellipse 71" cx="7.582" cy="7.582" r="7.582" transform="translate(43.698)" fill="#ebedf2"/>
    <circle id="Ellipse_72" data-name="Ellipse 72" cx="7.582" cy="7.582" r="7.582" transform="translate(21.854)" fill="#ebedf2"/>
    <circle id="Ellipse_73" data-name="Ellipse 73" cx="7.582" cy="7.582" r="7.582" fill="#ebedf2"/>
    <line id="Line_75" data-name="Line 75" x2="5.364" y2="5.354" transform="translate(48.598 4.9)" fill="none" stroke="#fff" stroke-linecap="round" stroke-miterlimit="10" stroke-width="2"/>
    <line id="Line_76" data-name="Line 76" x1="5.364" y2="5.364" transform="translate(48.598 4.975)" fill="none" stroke="#fff" stroke-linecap="round" stroke-miterlimit="10" stroke-width="2.07"/>
    <rect id="Rectangle_454" data-name="Rectangle 454" width="7.657" height="6.321" rx="1.52" transform="translate(25.597 4.416)" fill="#fff"/>
    <line id="Line_77" data-name="Line 77" x2="7.108" transform="translate(4.028 10.339)" fill="none" stroke="#fff" stroke-linecap="round" stroke-miterlimit="10" stroke-width="2"/>
  </g>
  <g id="RedLine" transform="translate(314.975 212.074)">
    <line id="Line_78" data-name="Line 78" x2="44.854" y2="18.471" fill="none" stroke="#e43b44" stroke-linecap="round" stroke-miterlimit="10" stroke-width="4"/>
    <line id="Line_79" data-name="Line 79" y1="4.919" x2="52.654" transform="translate(44.854 13.552)" fill="none" stroke="#e43b44" stroke-linecap="round" stroke-miterlimit="10" stroke-width="4"/>
    <line id="Line_80" data-name="Line 80" x2="69.286" y2="38.751" transform="translate(97.508 13.552)" fill="none" stroke="#e43b44" stroke-linecap="round" stroke-miterlimit="10" stroke-width="4"/>
    <line id="Line_81" data-name="Line 81" y1="4.331" x2="48.645" transform="translate(166.794 47.972)" fill="none" stroke="#e43b44" stroke-linecap="round" stroke-miterlimit="10" stroke-width="4"/>
    <line id="Line_82" data-name="Line 82" x2="57.705" y2="39.926" transform="translate(215.439 47.972)" fill="none" stroke="#e43b44" stroke-linecap="round" stroke-miterlimit="10" stroke-width="4"/>
    <line id="Line_83" data-name="Line 83" x2="52.019" y2="5.895" transform="translate(273.144 87.898)" fill="none" stroke="#e43b44" stroke-linecap="round" stroke-miterlimit="10" stroke-width="4"/>
  </g>
  <g id="GreenLine" transform="translate(301.707 238.477)">
    <line id="Line_84" data-name="Line 84" x2="35.065" y2="14.405" transform="translate(0 197.963)" fill="none" stroke="#63c74d" stroke-linecap="round" stroke-miterlimit="10" stroke-width="4"/>
    <line id="Line_85" data-name="Line 85" y1="34.61" x2="24.318" transform="translate(35.065 177.759)" fill="none" stroke="#63c74d" stroke-linecap="round" stroke-miterlimit="10" stroke-width="4"/>
    <line id="Line_86" data-name="Line 86" x2="28.431" y2="17.305" transform="translate(59.382 177.759)" fill="none" stroke="#63c74d" stroke-linecap="round" stroke-miterlimit="10" stroke-width="4"/>
    <line id="Line_87" data-name="Line 87" y1="40.41" x2="32.458" transform="translate(87.813 154.654)" fill="none" stroke="#63c74d" stroke-linecap="round" stroke-miterlimit="10" stroke-width="4"/>
    <line id="Line_88" data-name="Line 88" x2="12.614" y2="11.192" transform="translate(120.272 154.654)" fill="none" stroke="#63c74d" stroke-linecap="round" stroke-miterlimit="10" stroke-width="4"/>
    <line id="Line_89" data-name="Line 89" y1="52.549" x2="41.698" transform="translate(132.885 113.297)" fill="none" stroke="#63c74d" stroke-linecap="round" stroke-miterlimit="10" stroke-width="4"/>
    <line id="Line_90" data-name="Line 90" y1="18.11" x2="26.952" transform="translate(174.584 95.186)" fill="none" stroke="#63c74d" stroke-linecap="round" stroke-miterlimit="10" stroke-width="4"/>
    <line id="Line_91" data-name="Line 91" y1="37.064" x2="15.59" transform="translate(201.536 58.122)" fill="none" stroke="#63c74d" stroke-linecap="round" stroke-miterlimit="10" stroke-width="4"/>
    <line id="Line_92" data-name="Line 92" x2="23.162" y2="16.423" transform="translate(217.126 58.122)" fill="none" stroke="#63c74d" stroke-linecap="round" stroke-miterlimit="10" stroke-width="4"/>
    <line id="Line_93" data-name="Line 93" y1="31.397" x2="44.418" transform="translate(240.287 43.148)" fill="none" stroke="#63c74d" stroke-linecap="round" stroke-miterlimit="10" stroke-width="4"/>
    <line id="Line_94" data-name="Line 94" y1="43.148" x2="14.547" transform="translate(284.706)" fill="none" stroke="#63c74d" stroke-linecap="round" stroke-miterlimit="10" stroke-width="4"/>
    <line id="Line_95" data-name="Line 95" x2="40.286" y2="27.796" transform="translate(299.253)" fill="none" stroke="#63c74d" stroke-linecap="round" stroke-miterlimit="10" stroke-width="4"/>
  </g>
  <text id="_0" data-name="£0" transform="translate(255.583 475.26)" fill="#c0cbdc" font-size="13" font-family="MyriadPro-Regular, Myriad Pro"><tspan x="0" y="0">£0</tspan></text>
  <text id="_500" data-name="£500" transform="translate(255.583 400.421)" fill="#c0cbdc" font-size="13" font-family="MyriadPro-Regular, Myriad Pro"><tspan x="0" y="0">£500</tspan></text>
  <text id="_1000" data-name="£1000" transform="translate(255.583 325.487)" fill="#c0cbdc" font-size="13" font-family="MyriadPro-Regular, Myriad Pro"><tspan x="0" y="0">£1000</tspan></text>
  <text id="_1500" data-name="£1500" transform="translate(255.583 250.297)" fill="#c0cbdc" font-size="13" font-family="MyriadPro-Regular, Myriad Pro"><tspan x="0" y="0">£1500</tspan></text>
  <text id="_2000" data-name="£2000" transform="translate(255.583 174.339)" fill="#c0cbdc" font-size="13" font-family="MyriadPro-Regular, Myriad Pro"><tspan x="0" y="0">£2000</tspan></text>
  <g id="TopText" transform="translate(257.137 49.233)">
    <rect id="Rectangle_455" data-name="Rectangle 455" width="77.189" height="11.657" rx="3.27" transform="translate(0 24.413)" fill="#ebedf2"/>
    <rect id="Rectangle_456" data-name="Rectangle 456" width="51.981" height="11.657" rx="3.27" transform="translate(85.264 24.413)" fill="#ebedf2"/>
    <rect id="Rectangle_457" data-name="Rectangle 457" width="104.227" height="11.657" rx="3.27" transform="translate(144.097 24.413)" fill="#ebedf2"/>
    <rect id="Rectangle_458" data-name="Rectangle 458" width="25.986" height="11.657" rx="3.27" transform="translate(253.451 24.413)" fill="#ebedf2"/>
    <rect id="Rectangle_459" data-name="Rectangle 459" width="109.638" height="11.657" rx="3.27" transform="translate(0 43.546)" fill="#ebedf2"/>
    <rect id="Rectangle_460" data-name="Rectangle 460" width="102.9" height="16.13" rx="3.27" fill="#ebedf2"/>
  </g>
</svg>
