<svg xmlns="http://www.w3.org/2000/svg" viewBox="0 0 595.02 611.56"><defs><style>.cls-1{fill:#181425;}.cls-2{fill:#733e39;}.cls-3{fill:#3e2731;}.cls-4,.cls-8{fill:none;stroke-linecap:round;stroke-miterlimit:10;}.cls-4{stroke:#3e2731;}.cls-5{fill:#be4a2f;}.cls-6{fill:#fee761;}.cls-7{fill:#f5f5f5;}.cls-8{stroke:#181425;}.cls-9{fill:#735f4b;}.cls-15,.cls-9{opacity:0.4;}.cls-10{fill:#c6c6c6;}.cls-11{fill:#3a4466;}.cls-12{fill:#c0cbdc;}.cls-13{opacity:0.3;}.cls-14,.cls-15{fill:#fff;}</style></defs><g id="Layer_2" data-name="Layer 2"><g id="Layer_1-2" data-name="Layer 1"><ellipse class="cls-1" cx="483.58" cy="133.42" rx="28.11" ry="23.22" transform="translate(50.42 386.46) rotate(-45.72)"/><path class="cls-1" d="M517.57,34.52s-39.36-21.16-63.12,31.22C433,113,392.52,102.5,392.52,102.5l52.87,24.25L489.68,93.9Z"/><polygon class="cls-2" points="463.74 105.31 446.22 118.02 462.33 133.73 475.31 116.59 463.74 105.31"/><path class="cls-3" d="M462,106.59l-10.5,7.62s12.72-4.4,23.61,2.62Z"/><path class="cls-2" d="M519.18,111.18c-17.1,15.52-43,11.09-56.78-2.31-11.78-11.48-7-33.62,10.09-49.14s41.41-16.57,54.31-2.36S536.28,95.67,519.18,111.18Z"/><path class="cls-1" d="M515.56,102.06s-5.17,1.48-7.4-1.32c0,0,19.76-15.8,7.94-30.43s-9-31.78,3.63-36.81,38.95,10.67,39.13,38.16-8.67,47.73-33.2,59.19-58.77,75.23-58.77,75.23l-20.08-21.75,59.85-64.87Z"/><circle class="cls-2" cx="515.02" cy="108.98" r="6.89"/><path class="cls-4" d="M480.55,77.91s-6.09-6.27-.62-11.91c2.81-2.9,4.4,2.36,8.26,4,2.85,1.2,6.94-1.26,6.94-1.26"/><ellipse class="cls-2" cx="447.21" cy="134.11" rx="12" ry="37.73" transform="translate(38.95 360.63) rotate(-45.72)"/><path class="cls-2" d="M428.33,107.09,221.46,26.54s-7-2.9-8.24-10.17c-1.77-10-4.39-10.87-4.39-10.87s-5.14-1.88.14,15.15L179.51,5.88a4.41,4.41,0,0,0-2.37-.46c-1.5.13-3.15.78.55,3.54,5.13,3.82,19.55,12.89,19.55,12.89l-25.33-8.4s-8.26-.84-.89,4.25l23.57,9.73-24.79-6.8s-5.81.22-.12,3.3L191.94,32l-17.13-.93s-4.87.53.81,2.66,23.21,7.91,50.3,13.4,178.84,78,178.84,78S428.72,124.2,428.33,107.09Z"/><path class="cls-2" d="M474.34,151.44l96.15,197.19s3.43,6.7,10.78,7.42c10.09,1,11.17,3.53,11.17,3.53s2.27,5-15.11,1l17,29.05A4.47,4.47,0,0,1,595,392c0,1.51-.54,3.21-3.58-.27-4.2-4.82-14.36-18.49-14.36-18.49l10.33,24.6s1.48,8.17-4.17,1.22L571.73,376.3l8.69,24.2s.22,5.81-3.28.37l-9.75-21.57,2.26,17s-.16,4.9-2.73-.6-9.67-22.54-17.24-49.12S458.12,174.3,458.12,174.3,457.26,152.38,474.34,151.44Z"/><ellipse class="cls-2" cx="439.59" cy="143.44" rx="17" ry="27.17" transform="translate(29.98 357.99) rotate(-45.72)"/><path class="cls-2" d="M108.26,290.09a29,29,0,0,0-3.6,5.93C99.5,310.65,71.35,391.1,59.24,438.1c-.51,2-3.08,4.61-5.65,5.42-8.93,2.8-34.52,2.12-49.45,4.2-19.88,2.77,53.69,19.52,68.65,17.39a13.84,13.84,0,0,0,2.08-13.19C70.8,439.6,92.05,400,107.3,372.8c11-19.52,22.38-39.1,28.28-60.69,2.73-10,7.54-20.61,3.76-27.61C131.9,270.71,116.89,279.14,108.26,290.09Z"/><path class="cls-2" d="M113.42,296.87s19.06-25.87,93.06-7.94C289.57,309.07,127.68,337.16,113.42,296.87Z"/><path class="cls-2" d="M245.56,437.22s-69.37,69.54-110.41,103.91c-1.57,1.32-1.58,4.89-2.46,7.43-5.66,16.33-3.22,44.56-6.52,59.26-3.89,17.36-20-53.66-20.28-68.93,0,0,1.76-4.86,10-5.91,12.87-1.63,39.5-37.88,57.45-63.34,12.9-18.29,25.65-37,42.6-51.66,7.84-6.76,15.35-15.68,23.3-15.28C256,403.52,252.68,424.9,245.56,437.22Z"/><path class="cls-5" d="M117.52,532.34a10.45,10.45,0,0,0-11.38,5.55c-2.36,4.21,3.3,66.76,14.44,73,9.51,5.35,7.53-24.62,7.93-31.44,0,0-.54,7.53-1.22,11.07-.64,3.33-1.78,3.61-3.18-1.37C121.3,579.16,122.92,577.33,117.52,532.34Z"/><path class="cls-6" d="M123.59,262.2S176.48,268.42,244.3,236c76.18-36.39,184-128.93,184-128.93a33.53,33.53,0,0,1,4,1.41A29.14,29.14,0,0,1,437,111s-17.18,12.89-14.59,27.42,18.15,19.17,18.15,19.17,12.1,5,30.25-13.62c0,0,2.6,4.31,3.36,5.87.65,1.35,2.25,5.77,2.25,5.77S323.6,359,274.32,471.63c0,0-14.85-37.93-39.36-62.45-11.64-11.65-25.67-21.42-37.19-28.47a143,143,0,0,1-53.14-57C137.94,310.46,125.21,277.67,123.59,262.2Z"/><path class="cls-1" d="M508.48,52.1s-10.64,2.65-27.25.11S523.62,32.26,508.48,52.1Z"/><ellipse class="cls-3" cx="503.3" cy="78.25" rx="3.87" ry="2.33" transform="translate(37.91 285.24) rotate(-32.82)"/><ellipse class="cls-3" cx="486.39" cy="59.72" rx="3.87" ry="2.33" transform="matrix(0.79, -0.61, 0.61, 0.79, 65.75, 311.13)"/><path class="cls-7" d="M471.17,83.76l.84-2.13s7.6,10.83,18.05,11.25c0,0,.29,4-4.88,5S471.45,87.29,471.17,83.76Z"/><path class="cls-8" d="M506.35,69.65s7.1,2.27,6.48,8.8"/><path class="cls-8" d="M490.31,52.52s5.47,1.39,6.13,6"/><circle class="cls-9" cx="498.79" cy="93.79" r="0.67"/><circle class="cls-9" cx="498.68" cy="101.29" r="0.67"/><circle class="cls-9" cx="504.45" cy="98.82" r="0.67"/><path class="cls-1" d="M452.62,69.53S440.8,90.15,416.69,94.11C416.69,94.11,443.19,93.13,452.62,69.53Z"/><path class="cls-10" d="M474.79,87.37a19.5,19.5,0,0,0,7.25,6A37.33,37.33,0,0,1,474.79,87.37Z"/><path class="cls-10" d="M479.47,93.31a4.78,4.78,0,0,1,1.25-2.19A11.9,11.9,0,0,1,479.47,93.31Z"/><ellipse class="cls-9" cx="469.71" cy="67.76" rx="0.67" ry="0.44" transform="translate(93.25 356.71) rotate(-45.72)"/><ellipse class="cls-9" cx="469" cy="72.69" rx="0.67" ry="0.44" transform="translate(89.5 357.69) rotate(-45.72)"/><ellipse class="cls-9" cx="474.03" cy="69.15" rx="0.67" ry="0.44" transform="translate(93.55 360.23) rotate(-45.72)"/><path class="cls-5" d="M75.9,456.67s-.27,5.31-3.11,8.44-66.47-5-72.15-15c-5-8.71,20.35-3.5,26.82-4,0,0-4.76.22-8.13.55-2.87.28-3.67,2.39,1.18,3.45C30.28,452.21,32.64,453.27,75.9,456.67Z"/><rect class="cls-11" x="182.59" width="24" height="47.43" rx="2.73" transform="translate(389.19 47.43) rotate(-180)"/><rect class="cls-12" x="184.09" y="1.5" width="21" height="44.44" rx="1.96" transform="translate(389.19 47.43) rotate(-180)"/><g class="cls-13"><ellipse class="cls-14" cx="483.58" cy="133.42" rx="28.11" ry="23.22" transform="translate(50.42 386.46) rotate(-45.72)"/><path class="cls-14" d="M517.57,34.52s-39.36-21.16-63.12,31.22C433,113,392.52,102.5,392.52,102.5l52.87,24.25L489.68,93.9Z"/><polygon class="cls-14" points="463.74 105.31 446.22 118.02 462.33 133.73 475.31 116.59 463.74 105.31"/><path class="cls-14" d="M462,106.59l-10.5,7.62s12.72-4.4,23.61,2.62Z"/><path class="cls-14" d="M519.18,111.18c-17.1,15.52-43,11.09-56.78-2.31-11.78-11.48-7-33.62,10.09-49.14s41.41-16.57,54.31-2.36S536.28,95.67,519.18,111.18Z"/><path class="cls-14" d="M515.56,102.06s-5.17,1.48-7.4-1.32c0,0,19.76-15.8,7.94-30.43s-9-31.78,3.63-36.81,38.95,10.67,39.13,38.16-8.67,47.73-33.2,59.19-58.77,75.23-58.77,75.23l-20.08-21.75,59.85-64.87Z"/><circle class="cls-14" cx="515.02" cy="108.98" r="6.89"/><path class="cls-14" d="M480.55,77.91s-6.09-6.27-.62-11.91c2.81-2.9,4.4,2.36,8.26,4,2.85,1.2,6.94-1.26,6.94-1.26"/><ellipse class="cls-14" cx="447.21" cy="134.11" rx="12" ry="37.73" transform="translate(38.95 360.63) rotate(-45.72)"/><path class="cls-14" d="M428.33,107.09,221.46,26.54s-7-2.9-8.24-10.17c-1.77-10-4.39-10.87-4.39-10.87s-5.14-1.88.14,15.15L179.51,5.88a4.41,4.41,0,0,0-2.37-.46c-1.5.13-3.15.78.55,3.54,5.13,3.82,19.55,12.89,19.55,12.89l-25.33-8.4s-8.26-.84-.89,4.25l23.57,9.73-24.79-6.8s-5.81.22-.12,3.3L191.94,32l-17.13-.93s-4.87.53.81,2.66,23.21,7.91,50.3,13.4,178.84,78,178.84,78S428.72,124.2,428.33,107.09Z"/><path class="cls-14" d="M474.34,151.44l96.15,197.19s3.43,6.7,10.78,7.42c10.09,1,11.17,3.53,11.17,3.53s2.27,5-15.11,1l17,29.05A4.47,4.47,0,0,1,595,392c0,1.51-.54,3.21-3.58-.27-4.2-4.82-14.36-18.49-14.36-18.49l10.33,24.6s1.48,8.17-4.17,1.22L571.73,376.3l8.69,24.2s.22,5.81-3.28.37l-9.75-21.57,2.26,17s-.16,4.9-2.73-.6-9.67-22.54-17.24-49.12S458.12,174.3,458.12,174.3,457.26,152.38,474.34,151.44Z"/><ellipse class="cls-14" cx="439.59" cy="143.44" rx="17" ry="27.17" transform="translate(29.98 357.99) rotate(-45.72)"/><path class="cls-14" d="M108.26,290.09a29,29,0,0,0-3.6,5.93C99.5,310.65,71.35,391.1,59.24,438.1c-.51,2-3.08,4.61-5.65,5.42-8.93,2.8-34.52,2.12-49.45,4.2-19.88,2.77,53.69,19.52,68.65,17.39a13.84,13.84,0,0,0,2.08-13.19C70.8,439.6,92.05,400,107.3,372.8c11-19.52,22.38-39.1,28.28-60.69,2.73-10,7.54-20.61,3.76-27.61C131.9,270.71,116.89,279.14,108.26,290.09Z"/><path class="cls-14" d="M113.42,296.87s19.06-25.87,93.06-7.94C289.57,309.07,127.68,337.16,113.42,296.87Z"/><path class="cls-14" d="M245.56,437.22s-69.37,69.54-110.41,103.91c-1.57,1.32-1.58,4.89-2.46,7.43-5.66,16.33-3.22,44.56-6.52,59.26-3.89,17.36-20-53.66-20.28-68.93,0,0,1.76-4.86,10-5.91,12.87-1.63,39.5-37.88,57.45-63.34,12.9-18.29,25.65-37,42.6-51.66,7.84-6.76,15.35-15.68,23.3-15.28C256,403.52,252.68,424.9,245.56,437.22Z"/><path class="cls-14" d="M117.52,532.34a10.45,10.45,0,0,0-11.38,5.55c-2.36,4.21,3.3,66.76,14.44,73,9.51,5.35,7.53-24.62,7.93-31.44,0,0-.54,7.53-1.22,11.07-.64,3.33-1.78,3.61-3.18-1.37C121.3,579.16,122.92,577.33,117.52,532.34Z"/><path class="cls-14" d="M123.59,262.2S176.48,268.42,244.3,236c76.18-36.39,184-128.93,184-128.93a33.53,33.53,0,0,1,4,1.41A29.14,29.14,0,0,1,437,111s-17.18,12.89-14.59,27.42,18.15,19.17,18.15,19.17,12.1,5,30.25-13.62c0,0,2.6,4.31,3.36,5.87.65,1.35,2.25,5.77,2.25,5.77S323.6,359,274.32,471.63c0,0-14.85-37.93-39.36-62.45-11.64-11.65-25.67-21.42-37.19-28.47a143,143,0,0,1-53.14-57C137.94,310.46,125.21,277.67,123.59,262.2Z"/><path class="cls-14" d="M508.48,52.1s-10.64,2.65-27.25.11S523.62,32.26,508.48,52.1Z"/><ellipse class="cls-14" cx="503.3" cy="78.25" rx="3.87" ry="2.33" transform="translate(37.91 285.24) rotate(-32.82)"/><ellipse class="cls-14" cx="486.39" cy="59.72" rx="3.87" ry="2.33" transform="matrix(0.79, -0.61, 0.61, 0.79, 65.75, 311.13)"/><path class="cls-14" d="M471.17,83.76l.84-2.13s7.6,10.83,18.05,11.25c0,0,.29,4-4.88,5S471.45,87.29,471.17,83.76Z"/><path class="cls-14" d="M506.35,69.65s7.1,2.27,6.48,8.8"/><path class="cls-14" d="M490.31,52.52s5.47,1.39,6.13,6"/><circle class="cls-15" cx="498.79" cy="93.79" r="0.67"/><circle class="cls-15" cx="498.68" cy="101.29" r="0.67"/><circle class="cls-15" cx="504.45" cy="98.82" r="0.67"/><path class="cls-14" d="M452.62,69.53S440.8,90.15,416.69,94.11C416.69,94.11,443.19,93.13,452.62,69.53Z"/><path class="cls-14" d="M474.79,87.37a19.5,19.5,0,0,0,7.25,6A37.33,37.33,0,0,1,474.79,87.37Z"/><path class="cls-14" d="M479.47,93.31a4.78,4.78,0,0,1,1.25-2.19A11.9,11.9,0,0,1,479.47,93.31Z"/><ellipse class="cls-15" cx="469.71" cy="67.76" rx="0.67" ry="0.44" transform="translate(93.25 356.71) rotate(-45.72)"/><ellipse class="cls-15" cx="469" cy="72.69" rx="0.67" ry="0.44" transform="translate(89.5 357.69) rotate(-45.72)"/><ellipse class="cls-15" cx="474.03" cy="69.15" rx="0.67" ry="0.44" transform="translate(93.55 360.23) rotate(-45.72)"/><path class="cls-14" d="M75.9,456.67s-.27,5.31-3.11,8.44-66.47-5-72.15-15c-5-8.71,20.35-3.5,26.82-4,0,0-4.76.22-8.13.55-2.87.28-3.67,2.39,1.18,3.45C30.28,452.21,32.64,453.27,75.9,456.67Z"/><rect class="cls-14" x="182.59" width="24" height="47.43" rx="2.73" transform="translate(389.19 47.43) rotate(-180)"/><rect class="cls-14" x="184.09" y="1.5" width="21" height="44.44" rx="1.96" transform="translate(389.19 47.43) rotate(-180)"/></g></g></g></svg>