<svg xmlns="http://www.w3.org/2000/svg" xmlns:xlink="http://www.w3.org/1999/xlink" viewBox="0 0 914.97 636.78"><defs><style>.cls-1{fill:#a22633;}.cls-2{fill:#733e39;}.cls-3{fill:#8b9bb4;}.cls-4{fill:#5a6988;}.cls-5{fill:#3a4466;}.cls-6{fill:#e8b796;}.cls-7{fill:#265c42;}.cls-8{fill:#c28569;}.cls-9{fill:#be4a2f;}.cls-10{fill:#3e2731;}.cls-11,.cls-12{fill:none;stroke-linecap:round;stroke-miterlimit:10;}.cls-11{stroke:#c28569;}.cls-12{stroke:#be4a2f;stroke-width:2px;}.cls-13{fill:url(#linear-gradient);}.cls-14{fill:#193c3e;}.cls-15{fill:#c0cbdc;}.cls-16{fill:#acb9cc;}.cls-17{opacity:0.3;}.cls-18{fill:#fff;}</style><linearGradient id="linear-gradient" x1="555.37" y1="355.63" x2="562.11" y2="362.8" gradientUnits="userSpaceOnUse"><stop offset="0" stop-color="#c28569"/><stop offset="1" stop-color="#e8b796"/></linearGradient></defs><g id="Layer_2" data-name="Layer 2"><g id="Layer_1-2" data-name="Layer 1"><path class="cls-1" d="M212.26,75.39l-1.93-20s9.59-13.63,20.51.7l4.49,15.63Z"/><path class="cls-2" d="M160.32,4.79s35.56-2.61,84.66,37c0,0-2.92,16.77-16,19S182.69,64.58,160.32,4.79Z"/><path class="cls-3" d="M408,285.05s.67-33.33-54.67-52-108.66-168-108.66-168a44.89,44.89,0,0,0-40,12.67c-18,18,92.66,224.67,92.66,224.67l63.34,28.14Z"/><path class="cls-2" d="M0,184.16s16.22-70.22,54.67-78.89c0,0,14.66,3.56,20.66,30.23C75.33,135.5,36.22,191.27,0,184.16Z"/><path class="cls-1" d="M71.11,163.23,57.9,152.13a9,9,0,0,1-3.25-7.45c.27-5.17,2.4-12.56,12.32-12.69a13.81,13.81,0,0,1,7.22,2l13.44,8Z"/><path class="cls-3" d="M368.22,299.5S320.67,243.05,272,247.05,99.33,134.39,99.33,134.39s-32.66,1.33-34,36,180,175.33,249.34,186"/><polygon class="cls-3" points="699.96 579.79 672.79 582.55 671.21 580.2 697.79 577.84 699.96 579.79"/><polygon class="cls-4" points="668 629.38 666.61 626.88 671.21 580.2 672.79 582.55 668 629.38"/><polygon class="cls-5" points="699.96 579.79 672.79 582.55 668 629.38 695 623.72 699.96 579.79"/><path class="cls-6" d="M504.67,485.05s11.41,72.27,127,145.1a43,43,0,0,0,22.44,6.62c12.44.13,31-2,44.16-13.5,0,0,5.34-7.11,1.56-7.11,0,0,7.33-8.22-1.56-7.77,0,0-8.44,8.66-18.22,10.44,0,0,11.11-6.44,12.67-10.44s-3.11-3.12-3.11-3.12-17.78,11.78-25.34,6.89c0,0,5.78-4.66,4.22-10.89s-5.55-4-5.55-4-3.11,15.78-15.33,14S568,555.5,540.44,491.27Z"/><path class="cls-6" d="M667.42,356.39s89.25,11.33,143.91,53.33c0,0,31.67,7.67,40.67,35.67,0,0,1.17,4.33-1.5,3.83,0,0,2.17,10.33-3.33,5.17,0,0,2.16,9.5-4.67,3.33,0,0,3.33,10.83-3,4.67s-13.17-17.84-26.83-27.34c0,0,7.16,12.67.83,14.84,0,0-9.83-10.5-13.33-23.17s-86-42.83-139-44Z"/><path class="cls-7" d="M314.67,356.39s28.66-74,98.66-77.34c0,0,52.4,38.95,146.2,51.48l31.14,33.61s3.92,36.58-41.56,65.58c0,0-6.54,37.78,3.66,60.89,0,0-28.77,16.44-59.44,5.11,0,0-9.55-12.67-9.64-55.39C483.69,440.33,416.67,429.72,314.67,356.39Z"/><path class="cls-7" d="M640.67,392.72l19,9s12-29,11.66-53l-19.66-6Z"/><ellipse class="cls-6" cx="553.75" cy="389.23" rx="21.18" ry="19.71" transform="translate(-96.5 201.31) rotate(-18.98)"/><path class="cls-6" d="M576.49,400.55s-8.29-4.47-15.9,1.84c-15.42,12.77-28.09-29.78-6.59-27,10.59,1.36,14.33-2.78,14.33-2.78Z"/><path class="cls-8" d="M561.39,401.76s-2.27-14.46,4.23-21.62,5.15,18.91,5.15,18.91S567.54,398.14,561.39,401.76Z"/><ellipse class="cls-6" cx="605.67" cy="367.39" rx="43" ry="59.33"/><path class="cls-9" d="M576.33,370.72l4.84-21.17L572,338.72s20.78,22.5,62.44,24.5,32-53.28,32-53.28l-11.67,4.7s7.23-7.25,4.9-15.59c0,0-10,8.67-26.34,3.34s-44-25.67-68.66,2.66c0,0-28.67,18.34-14.67,47.34s15.82,2.51,15.82,2.51l1.35,1.22,2.16,10.27Z"/><path class="cls-9" d="M602.94,355.52s20,6,29.33,22.22c0,0-2-18.44-20.89-24.89S602.94,355.52,602.94,355.52Z"/><ellipse class="cls-6" cx="561.77" cy="363.22" rx="9" ry="11.25"/><path class="cls-9" d="M566.33,310.72s-6.7-14.67-20.18-8c0,0,11.18-11.81,30.18-1.74S576.68,320.06,566.33,310.72Z"/><ellipse class="cls-10" cx="609.2" cy="384.61" rx="6.22" ry="2.8" transform="translate(196.92 975.43) rotate(-87.36)"/><ellipse class="cls-10" cx="640.58" cy="379.64" rx="5.19" ry="2.34" transform="translate(231.83 1002.04) rotate(-87.36)"/><path class="cls-11" d="M618.67,417.72s-10.84,1.55-14.67-5.28"/><path class="cls-12" d="M600.92,374.89c-.26,0,5.75-6.37,15.25-.42"/><path class="cls-12" d="M636.09,372.3s5.4-4.21,9.15-.6"/><path class="cls-9" d="M603,292.05s19.14,8.34,36.75,2c0,0-13.45,12.79-32,5.5S603,292.05,603,292.05Z"/><path class="cls-10" d="M244.78,42.24c-2.95,6.38-24.46,3.44-47.43-7.89-12.34-6.08-39.95-26-37-31.46,3.28-6,24.39-2.38,47.63,8.36S247.72,35.86,244.78,42.24Z"/><path class="cls-13" d="M556.33,364.14s-.08-8.34,7.5-7.92S558.33,376.82,556.33,364.14Z"/><path class="cls-14" d="M483.69,440.33s-.13-19.72,3-29.28-42.17,17.56-42.17,17.56S464.33,436.86,483.69,440.33Z"/><polygon class="cls-3" points="785.17 583.97 693.19 542.62 693.75 537.54 785.74 578.89 785.17 583.97"/><polygon class="cls-4" points="868.29 522.37 785.74 578.89 785.17 583.97 867.73 527.45 868.29 522.37"/><polygon class="cls-15" points="781.46 488.97 693.75 537.54 785.74 578.89 868.29 522.37 781.46 488.97"/><polygon class="cls-16" points="803.62 501.22 725.07 547.35 786.08 574.68 849.62 517.76 803.62 501.22"/><path class="cls-3" d="M910.21,455.15,825,509.52a21.9,21.9,0,0,0-8.51,9.87l-32.75,59.28,1.87,1.21,80.69-57.74,48.28-63.88C915.48,456.56,911.83,454.13,910.21,455.15Z"/><path class="cls-4" d="M912.09,456.36l-85.21,54.37a22.13,22.13,0,0,0-8.51,9.87l-32.75,59.28,82.56-56.52,46.56-64.53A1.88,1.88,0,0,0,912.09,456.36Z"/><circle class="cls-15" cx="695.32" cy="584.78" r="1.56"/><path class="cls-11" d="M631.19,393.33s6.54,3.05,3.49,9.32c-3.27,6.74-9.88,3.11-9.88,3.11"/><g class="cls-17"><path class="cls-18" d="M212.26,75.39l-1.93-20s9.59-13.63,20.51.7l4.49,15.63Z"/><path class="cls-18" d="M160.32,4.79s35.56-2.61,84.66,37c0,0-2.92,16.77-16,19S182.69,64.58,160.32,4.79Z"/><path class="cls-18" d="M408,285.05s.67-33.33-54.67-52-108.66-168-108.66-168a44.89,44.89,0,0,0-40,12.67c-18,18,92.66,224.67,92.66,224.67l63.34,28.14Z"/><path class="cls-18" d="M0,184.16s16.22-70.22,54.67-78.89c0,0,14.66,3.56,20.66,30.23C75.33,135.5,36.22,191.27,0,184.16Z"/><path class="cls-18" d="M71.11,163.23,57.9,152.13a9,9,0,0,1-3.25-7.45c.27-5.17,2.4-12.56,12.32-12.69a13.81,13.81,0,0,1,7.22,2l13.44,8Z"/><path class="cls-18" d="M368.22,299.5S320.67,243.05,272,247.05,99.33,134.39,99.33,134.39s-32.66,1.33-34,36,180,175.33,249.34,186"/><polygon class="cls-18" points="699.96 579.79 672.79 582.55 671.21 580.2 697.79 577.84 699.96 579.79"/><polygon class="cls-18" points="668 629.38 666.61 626.88 671.21 580.2 672.79 582.55 668 629.38"/><polygon class="cls-18" points="699.96 579.79 672.79 582.55 668 629.38 695 623.72 699.96 579.79"/><path class="cls-18" d="M504.67,485.05s11.41,72.27,127,145.1a43,43,0,0,0,22.44,6.62c12.44.13,31-2,44.16-13.5,0,0,5.34-7.11,1.56-7.11,0,0,7.33-8.22-1.56-7.77,0,0-8.44,8.66-18.22,10.44,0,0,11.11-6.44,12.67-10.44s-3.11-3.12-3.11-3.12-17.78,11.78-25.34,6.89c0,0,5.78-4.66,4.22-10.89s-5.55-4-5.55-4-3.11,15.78-15.33,14S568,555.5,540.44,491.27Z"/><path class="cls-18" d="M667.42,356.39s89.25,11.33,143.91,53.33c0,0,31.67,7.67,40.67,35.67,0,0,1.17,4.33-1.5,3.83,0,0,2.17,10.33-3.33,5.17,0,0,2.16,9.5-4.67,3.33,0,0,3.33,10.83-3,4.67s-13.17-17.84-26.83-27.34c0,0,7.16,12.67.83,14.84,0,0-9.83-10.5-13.33-23.17s-86-42.83-139-44Z"/><path class="cls-18" d="M314.67,356.39s28.66-74,98.66-77.34c0,0,52.4,38.95,146.2,51.48l31.14,33.61s3.92,36.58-41.56,65.58c0,0-6.54,37.78,3.66,60.89,0,0-28.77,16.44-59.44,5.11,0,0-9.55-12.67-9.64-55.39C483.69,440.33,416.67,429.72,314.67,356.39Z"/><path class="cls-18" d="M640.67,392.72l19,9s12-29,11.66-53l-19.66-6Z"/><ellipse class="cls-18" cx="553.75" cy="389.23" rx="21.18" ry="19.71" transform="translate(-96.5 201.31) rotate(-18.98)"/><path class="cls-18" d="M576.49,400.55s-8.29-4.47-15.9,1.84c-15.42,12.77-28.09-29.78-6.59-27,10.59,1.36,14.33-2.78,14.33-2.78Z"/><path class="cls-18" d="M561.39,401.76s-2.27-14.46,4.23-21.62,5.15,18.91,5.15,18.91S567.54,398.14,561.39,401.76Z"/><ellipse class="cls-18" cx="605.67" cy="367.39" rx="43" ry="59.33"/><path class="cls-18" d="M576.33,370.72l4.84-21.17L572,338.72s20.78,22.5,62.44,24.5,32-53.28,32-53.28l-11.67,4.7s7.23-7.25,4.9-15.59c0,0-10,8.67-26.34,3.34s-44-25.67-68.66,2.66c0,0-28.67,18.34-14.67,47.34s15.82,2.51,15.82,2.51l1.35,1.22,2.16,10.27Z"/><path class="cls-18" d="M602.94,355.52s20,6,29.33,22.22c0,0-2-18.44-20.89-24.89S602.94,355.52,602.94,355.52Z"/><ellipse class="cls-18" cx="561.77" cy="363.22" rx="9" ry="11.25"/><path class="cls-18" d="M566.33,310.72s-6.7-14.67-20.18-8c0,0,11.18-11.81,30.18-1.74S576.68,320.06,566.33,310.72Z"/><ellipse class="cls-18" cx="609.2" cy="384.61" rx="6.22" ry="2.8" transform="translate(196.92 975.43) rotate(-87.36)"/><ellipse class="cls-18" cx="640.58" cy="379.64" rx="5.19" ry="2.34" transform="translate(231.83 1002.04) rotate(-87.36)"/><path class="cls-18" d="M618.67,417.72s-10.84,1.55-14.67-5.28"/><path class="cls-18" d="M600.92,374.89c-.26,0,5.75-6.37,15.25-.42"/><path class="cls-18" d="M636.09,372.3s5.4-4.21,9.15-.6"/><path class="cls-18" d="M603,292.05s19.14,8.34,36.75,2c0,0-13.45,12.79-32,5.5S603,292.05,603,292.05Z"/><path class="cls-18" d="M244.78,42.24c-2.95,6.38-24.46,3.44-47.43-7.89-12.34-6.08-39.95-26-37-31.46,3.28-6,24.39-2.38,47.63,8.36S247.72,35.86,244.78,42.24Z"/><path class="cls-18" d="M556.33,364.14s-.08-8.34,7.5-7.92S558.33,376.82,556.33,364.14Z"/><path class="cls-18" d="M483.69,440.33s-.13-19.72,3-29.28-42.17,17.56-42.17,17.56S464.33,436.86,483.69,440.33Z"/><polygon class="cls-18" points="785.17 583.97 693.19 542.62 693.75 537.54 785.74 578.89 785.17 583.97"/><polygon class="cls-18" points="868.29 522.37 785.74 578.89 785.17 583.97 867.73 527.45 868.29 522.37"/><polygon class="cls-18" points="781.46 488.97 693.75 537.54 785.74 578.89 868.29 522.37 781.46 488.97"/><polygon class="cls-18" points="803.62 501.22 725.07 547.35 786.08 574.68 849.62 517.76 803.62 501.22"/><path class="cls-18" d="M910.21,455.15,825,509.52a21.9,21.9,0,0,0-8.51,9.87l-32.75,59.28,1.87,1.21,80.69-57.74,48.28-63.88C915.48,456.56,911.83,454.13,910.21,455.15Z"/><path class="cls-18" d="M912.09,456.36l-85.21,54.37a22.13,22.13,0,0,0-8.51,9.87l-32.75,59.28,82.56-56.52,46.56-64.53A1.88,1.88,0,0,0,912.09,456.36Z"/><circle class="cls-18" cx="695.32" cy="584.78" r="1.56"/><path class="cls-18" d="M631.19,393.33s6.54,3.05,3.49,9.32c-3.27,6.74-9.88,3.11-9.88,3.11"/></g></g></g></svg>