<svg xmlns="http://www.w3.org/2000/svg" viewBox="0 0 965.38 499.03"><defs><style>.cls-1{fill:#c28569;}.cls-2{fill:#c0cbdc;}.cls-10,.cls-11,.cls-3,.cls-9{fill:none;}.cls-3{stroke:#8b9bb4;}.cls-10,.cls-11,.cls-12,.cls-3,.cls-9{stroke-miterlimit:10;}.cls-11,.cls-3{stroke-width:2px;}.cls-4{fill:#5a6988;}.cls-5{fill:#124e89;}.cls-6{fill:#8b9bb4;}.cls-7{fill:#733e39;}.cls-8{fill:#181425;}.cls-10,.cls-12,.cls-9{stroke:#733e39;}.cls-10,.cls-11,.cls-9{stroke-linecap:round;}.cls-9{stroke-width:1.5px;}.cls-11{stroke:#181425;}.cls-12,.cls-17{fill:#fff;}.cls-13{fill:#262b44;}.cls-14{fill:#3a4466;}.cls-15{fill:#3e2731;}.cls-16{opacity:0.3;}</style></defs><g id="Layer_2" data-name="Layer 2"><g id="Layer_1-2" data-name="Layer 1"><path class="cls-1" d="M277.7,287.61s-101.77,12.22-183.11-23c0,0-3.22-20.67-21-28.67s0,10,3.5,13.84-57.67-17-57.67-17-10.17-2-2.67,4.5,33,17.5,33,17.5L5.54,250.61s-12,1-.67,6.33,45.5,7.84,45.5,7.84L12.2,265.94s-12.33,1.5.17,6.17L48,274.44l-29.84,4s-15.33,1,1,5.84,65.34,1.33,65.34,1.33,95.83,46,195.39,34.67Z"/><path class="cls-1" d="M464.48,211.54s74-60.18,103-137.35c0,0-11.74-15.52-5.56-32.62s6.69,6.46,7,11.28S594.82,3.29,594.82,3.29s5.24-8.1,4.74,1.12-9.63,33.39-9.63,33.39L615.7,5.56s8.42-7.38,4.66,3.65-24.17,35.5-24.17,35.5l25.45-24.78s9-7.28,4,4.1L604.16,49.4l22-17.37s10.58-9.61,3.25,4.44S588,81,588,81s-25,97-104.47,151.82Z"/><path class="cls-2" d="M346.36,237.16s-15.71,6.45-30.57,25.46a34.55,34.55,0,0,1-10.12,9.08c-7.44,4.18-20.73,9.82-39.94,11.24,0,0-1.19,41.84,9.14,62.67,0,0,46.67-4.5,59.5-13.5s80.56,95.54,88.44,113.05c12,26.67,43.78,46.67,56.23,29.78,20.58-27.94,29.77-155.33,29.77-155.33s-18.66-40.45-43.55-64.45c0,0,24.44,1.34,49.78-22.66,0,0-18.23-35.78-36.23-45.11,0,0-12.44,13.33-36.22,14.89s-26-.67-48.72,9.33A358.61,358.61,0,0,0,346.36,237.16Z"/><path class="cls-3" d="M491,365.83c-34.67-85.78-100.07-124-100.07-124"/><path class="cls-4" d="M387.7,207.93s-29.5,6.68-42.83,28l6.83,9.84,42.17-27.32Z"/><path class="cls-1" d="M397,223.61s-12.67-1.89-19.78-22.45-62.67-8.88-43.33,3.34a42.87,42.87,0,0,1,20.22,31.83S391,269.61,397,223.61Z"/><path class="cls-4" d="M385.54,264.61s7.94-24.56,28.16-21l-11.33-13.56L375.15,248Z"/><path class="cls-5" d="M399.26,245.58V233s-5.4-4.32-7.5-4c-5.92.92-12.1,5.74-13.88,9.56-1,2.09.88,9.19.88,9.19l15,2.51A4.7,4.7,0,0,0,399.26,245.58Z"/><path class="cls-5" d="M388.79,247.73s21.85,57.55,135.85,54.21l22.86-38S458.81,294.16,397,241.83"/><path class="cls-6" d="M379.54,235.94l6,28.67-39.18-18s-2.49-5.67-1.49-10.67Z"/><path class="cls-6" d="M389.2,229.78l24.5,13.83L400.37,213.2s-6.67-5.44-12.67-5.27Z"/><path class="cls-7" d="M384.54,214.92s-17.22,6.26-31.47,2.14,27-9.13,27-9.13S384.23,214.53,384.54,214.92Z"/><path class="cls-1" d="M379.9,208.05s14.67-8,9-29.33-10.67-42-40.33-60.33-65.17-1-65.17-1l-17.67,33.33,53,59S339.45,228.72,379.9,208.05Z"/><path class="cls-1" d="M348.33,118.31c-8.35,9.24-13.19,10.33-18.55,12.17-11.2,3.86-31.85,12.06-41.29,22.74-13.29,15.06-15.34-8.94-15.34-8.94l72-27.85,3.21,1.88Z"/><path class="cls-8" d="M280.57,154.72s13.76-16.65,48-25.67c33.33-8.77,29.08-37.89,29.08-37.89s-6.42-33.44-50.75-16.77c0,0,18.21,1,12.94,6.33s-15.27,1-15.27,1,3,8-1.67,11c0,0,0-10.78-6.78-9,0,0,3.56,20.56-33.78,41.44,0,0-23.11,9.78-5.11,29.56,0,0-1.66,59.11,61.5,55L298.9,186.8l14.55-7.86-18.77-26.89Z"/><circle class="cls-1" cx="299.23" cy="187.39" r="9"/><path class="cls-9" d="M356.18,166.09s1.12.13,5.69-2.7c3.3-2,8.94-6.91,4.22-11.62-4.5-4.49-8.94-.72-12.66-.49-5.13.3-7.07-4.51-7.07-4.51"/><path class="cls-10" d="M362.16,135.16s-6.7-.83-9.2,5.07"/><path class="cls-10" d="M336.82,151.8c-10.09-.75-12.34,10.5-12.34,10.5"/><path class="cls-11" d="M329.91,138.88c-11.76,1.06-13.76,12.89-13.76,12.89"/><path class="cls-11" d="M356.48,121.94s-8.83,1.61-12.66,8.53"/><path class="cls-12" d="M375.15,179.72l-2.77-3.56-1.29-4.39s-4.28,8.51-31.72,11.67C339.37,183.44,351.2,199.44,375.15,179.72Z"/><path class="cls-7" d="M298.45,182.28s-6.83,1.58-3.33,8.91A20.32,20.32,0,0,1,298.45,182.28Z"/><path class="cls-13" d="M522.88,490.58s60.82-1.64,96.16-47S723.7,362.94,723.7,362.94l164,67.34s8-27.34,21.34-40L751.7,302.08s-30-17.8-55.33-5.14S573,357.61,573,357.61Z"/><path class="cls-14" d="M451.37,401.61,554,239.94s12.66-27.69,51.66-28l190.48-24.85s-6.48,32.78,4.19,52.53L625,269.94l-69.27,169s-23.33,84.67-85.33,53S451.37,401.61,451.37,401.61Z"/><path class="cls-7" d="M826.39,129.05s-24.46.67-41,61.8c-11.85,43.68,13.56,58.07,41,54.27Z"/><ellipse class="cls-15" cx="826.39" cy="187.08" rx="14.69" ry="58.04"/><path class="cls-7" d="M962.6,356.82s-20.53-10.06-60.76,33.31c-28.75,31-14,53.91,10.41,62.69Z"/><ellipse class="cls-15" cx="937.42" cy="404.82" rx="54.2" ry="13.72" transform="translate(143.53 1046.98) rotate(-62.33)"/><path class="cls-6" d="M334.37,332.11l15.71-10s-9.77,9.21-3,16C347,338.09,339.12,330.36,334.37,332.11Z"/><path class="cls-6" d="M465.26,255.16s-4.06-5-7.39-7.19,9.63,7,15,6.6A55.89,55.89,0,0,1,465.26,255.16Z"/><g class="cls-16"><path class="cls-17" d="M277.7,287.61s-101.77,12.22-183.11-23c0,0-3.22-20.67-21-28.67s0,10,3.5,13.84-57.67-17-57.67-17-10.17-2-2.67,4.5,33,17.5,33,17.5L5.54,250.61s-12,1-.67,6.33,45.5,7.84,45.5,7.84L12.2,265.94s-12.33,1.5.17,6.17L48,274.44l-29.84,4s-15.33,1,1,5.84,65.34,1.33,65.34,1.33,95.83,46,195.39,34.67Z"/><path class="cls-17" d="M464.48,211.54s74-60.18,103-137.35c0,0-11.74-15.52-5.56-32.62s6.69,6.46,7,11.28S594.82,3.29,594.82,3.29s5.24-8.1,4.74,1.12-9.63,33.39-9.63,33.39L615.7,5.56s8.42-7.38,4.66,3.65-24.17,35.5-24.17,35.5l25.45-24.78s9-7.28,4,4.1L604.16,49.4l22-17.37s10.58-9.61,3.25,4.44S588,81,588,81s-25,97-104.47,151.82Z"/><path class="cls-17" d="M346.36,237.16s-15.71,6.45-30.57,25.46a34.55,34.55,0,0,1-10.12,9.08c-7.44,4.18-20.73,9.82-39.94,11.24,0,0-1.19,41.84,9.14,62.67,0,0,46.67-4.5,59.5-13.5s80.56,95.54,88.44,113.05c12,26.67,43.78,46.67,56.23,29.78,20.58-27.94,29.77-155.33,29.77-155.33s-18.66-40.45-43.55-64.45c0,0,24.44,1.34,49.78-22.66,0,0-18.23-35.78-36.23-45.11,0,0-12.44,13.33-36.22,14.89s-26-.67-48.72,9.33A358.61,358.61,0,0,0,346.36,237.16Z"/><path class="cls-17" d="M491,365.83c-34.67-85.78-100.07-124-100.07-124"/><path class="cls-17" d="M387.7,207.93s-29.5,6.68-42.83,28l6.83,9.84,42.17-27.32Z"/><path class="cls-17" d="M397,223.61s-12.67-1.89-19.78-22.45-62.67-8.88-43.33,3.34a42.87,42.87,0,0,1,20.22,31.83S391,269.61,397,223.61Z"/><path class="cls-17" d="M385.54,264.61s7.94-24.56,28.16-21l-11.33-13.56L375.15,248Z"/><path class="cls-17" d="M399.26,245.58V233s-5.4-4.32-7.5-4c-5.92.92-12.1,5.74-13.88,9.56-1,2.09.88,9.19.88,9.19l15,2.51A4.7,4.7,0,0,0,399.26,245.58Z"/><path class="cls-17" d="M388.79,247.73s21.85,57.55,135.85,54.21l22.86-38S458.81,294.16,397,241.83"/><path class="cls-17" d="M379.54,235.94l6,28.67-39.18-18s-2.49-5.67-1.49-10.67Z"/><path class="cls-17" d="M389.2,229.78l24.5,13.83L400.37,213.2s-6.67-5.44-12.67-5.27Z"/><path class="cls-17" d="M384.54,214.92s-17.22,6.26-31.47,2.14,27-9.13,27-9.13S384.23,214.53,384.54,214.92Z"/><path class="cls-17" d="M379.9,208.05s14.67-8,9-29.33-10.67-42-40.33-60.33-65.17-1-65.17-1l-17.67,33.33,53,59S339.45,228.72,379.9,208.05Z"/><path class="cls-17" d="M348.33,118.31c-8.35,9.24-13.19,10.33-18.55,12.17-11.2,3.86-31.85,12.06-41.29,22.74-13.29,15.06-15.34-8.94-15.34-8.94l72-27.85,3.21,1.88Z"/><path class="cls-17" d="M280.57,154.72s13.76-16.65,48-25.67c33.33-8.77,29.08-37.89,29.08-37.89s-6.42-33.44-50.75-16.77c0,0,18.21,1,12.94,6.33s-15.27,1-15.27,1,3,8-1.67,11c0,0,0-10.78-6.78-9,0,0,3.56,20.56-33.78,41.44,0,0-23.11,9.78-5.11,29.56,0,0-1.66,59.11,61.5,55L298.9,186.8l14.55-7.86-18.77-26.89Z"/><circle class="cls-17" cx="299.23" cy="187.39" r="9"/><path class="cls-17" d="M356.18,166.09s1.12.13,5.69-2.7c3.3-2,8.94-6.91,4.22-11.62-4.5-4.49-8.94-.72-12.66-.49-5.13.3-7.07-4.51-7.07-4.51"/><path class="cls-17" d="M362.16,135.16s-6.7-.83-9.2,5.07"/><path class="cls-17" d="M336.82,151.8c-10.09-.75-12.34,10.5-12.34,10.5"/><path class="cls-17" d="M329.91,138.88c-11.76,1.06-13.76,12.89-13.76,12.89"/><path class="cls-17" d="M356.48,121.94s-8.83,1.61-12.66,8.53"/><path class="cls-17" d="M375.15,179.72l-2.77-3.56-1.29-4.39s-4.28,8.51-31.72,11.67C339.37,183.44,351.2,199.44,375.15,179.72Z"/><path class="cls-17" d="M298.45,182.28s-6.83,1.58-3.33,8.91A20.32,20.32,0,0,1,298.45,182.28Z"/><path class="cls-17" d="M522.88,490.58s60.82-1.64,96.16-47S723.7,362.94,723.7,362.94l164,67.34s8-27.34,21.34-40L751.7,302.08s-30-17.8-55.33-5.14S573,357.61,573,357.61Z"/><path class="cls-17" d="M451.37,401.61,554,239.94s12.66-27.69,51.66-28l190.48-24.85s-6.48,32.78,4.19,52.53L625,269.94l-69.27,169s-23.33,84.67-85.33,53S451.37,401.61,451.37,401.61Z"/><path class="cls-17" d="M826.39,129.05s-24.46.67-41,61.8c-11.85,43.68,13.56,58.07,41,54.27Z"/><ellipse class="cls-17" cx="826.39" cy="187.08" rx="14.69" ry="58.04"/><path class="cls-17" d="M962.6,356.82s-20.53-10.06-60.76,33.31c-28.75,31-14,53.91,10.41,62.69Z"/><ellipse class="cls-17" cx="937.42" cy="404.82" rx="54.2" ry="13.72" transform="translate(143.53 1046.98) rotate(-62.33)"/><path class="cls-17" d="M334.37,332.11l15.71-10s-9.77,9.21-3,16C347,338.09,339.12,330.36,334.37,332.11Z"/><path class="cls-17" d="M465.26,255.16s-4.06-5-7.39-7.19,9.63,7,15,6.6A55.89,55.89,0,0,1,465.26,255.16Z"/></g></g></g></svg>