<svg id="hero" xmlns="http://www.w3.org/2000/svg" width="926.036" height="651.779" viewBox="0 0 926.036 651.779">
  <ellipse id="shadow" cx="450.232" cy="72.431" rx="450.232" ry="72.431" transform="translate(0 506.917)" fill="#ebedf2"/>
  <g id="bg" transform="translate(88.208)">
    <rect id="whiteBg" width="724.05" height="415.936" rx="11.32" fill="#fff"/>
    <path id="yellowSide" d="M127.965,0h175.2V415.936h-175.2a7.085,7.085,0,0,1-7.086-7.086V7.086A7.086,7.086,0,0,1,127.965,0Z" transform="translate(-120.88)" fill="#fee761"/>
    <rect id="yellowText" width="138.996" height="16.236" rx="3.27" transform="translate(21.651 381.902)" fill="#fff"/>
    <g id="box3" transform="translate(199.365 295.242)">
      <rect id="Rectangle_124" data-name="Rectangle 124" width="506.099" height="93.892" rx="3.78" fill="#ebedf2" stroke="#ebedf2" stroke-miterlimit="10" stroke-width="1"/>
      <g id="text" transform="translate(23.898 18.863)">
        <rect id="Rectangle_125" data-name="Rectangle 125" width="138.996" height="16.236" rx="3.27" transform="translate(74.898 5.334)" fill="#c0cbdc"/>
        <rect id="Rectangle_126" data-name="Rectangle 126" width="56.151" height="56.151" rx="4.38" fill="#c0cbdc"/>
        <rect id="Rectangle_127" data-name="Rectangle 127" width="95.454" height="9.311" rx="2.22" transform="translate(74.898 27.328)" fill="#c0cbdc"/>
        <rect id="Rectangle_128" data-name="Rectangle 128" width="55.079" height="9.311" rx="2.22" transform="translate(177.057 27.328)" fill="#c0cbdc"/>
        <rect id="Rectangle_129" data-name="Rectangle 129" width="42.425" height="9.311" rx="2.22" transform="translate(238.594 27.328)" fill="#c0cbdc"/>
        <rect id="Rectangle_130" data-name="Rectangle 130" width="55.079" height="9.311" rx="2.22" transform="translate(287.419 27.328)" fill="#c0cbdc"/>
        <rect id="Rectangle_131" data-name="Rectangle 131" width="87.981" height="9.311" rx="2.22" transform="translate(185.259 41.513)" fill="#c0cbdc"/>
        <rect id="Rectangle_132" data-name="Rectangle 132" width="42.425" height="9.311" rx="2.22" transform="translate(136.369 41.513)" fill="#c0cbdc"/>
        <rect id="Rectangle_133" data-name="Rectangle 133" width="55.079" height="9.311" rx="2.22" transform="translate(74.898 41.513)" fill="#c0cbdc"/>
      </g>
      <g id="circleTick" transform="translate(442.286 28.94)">
        <circle id="circle" cx="18.002" cy="18.002" r="18.002" fill="#c0cbdc"/>
        <g id="tick" transform="translate(9.034 12.938)">
          <line id="Line_51" data-name="Line 51" x2="5.94" y2="5.947" transform="translate(0 5.247)" fill="none" stroke="#fff" stroke-linecap="round" stroke-miterlimit="10" stroke-width="6"/>
          <line id="Line_52" data-name="Line 52" y1="11.595" x2="11.595" transform="translate(6.341)" fill="none" stroke="#fff" stroke-linecap="round" stroke-miterlimit="10" stroke-width="6"/>
        </g>
      </g>
    </g>
    <g id="box2" transform="translate(199.263 180.159)">
      <rect id="Rectangle_134" data-name="Rectangle 134" width="506.099" height="93.892" rx="3.78" fill="#ebedf2" stroke="#ebedf2" stroke-miterlimit="10" stroke-width="1"/>
      <g id="text-2" data-name="text" transform="translate(23.905 18.863)">
        <rect id="Rectangle_135" data-name="Rectangle 135" width="138.996" height="16.236" rx="3.27" transform="translate(74.89 5.334)" fill="#c0cbdc"/>
        <rect id="Rectangle_136" data-name="Rectangle 136" width="56.151" height="56.151" rx="4.38" fill="#c0cbdc"/>
        <rect id="Rectangle_137" data-name="Rectangle 137" width="95.454" height="9.311" rx="2.22" transform="translate(74.89 27.328)" fill="#c0cbdc"/>
        <rect id="Rectangle_138" data-name="Rectangle 138" width="55.079" height="9.311" rx="2.22" transform="translate(177.05 27.328)" fill="#c0cbdc"/>
        <rect id="Rectangle_139" data-name="Rectangle 139" width="42.425" height="9.311" rx="2.22" transform="translate(238.594 27.328)" fill="#c0cbdc"/>
        <rect id="Rectangle_140" data-name="Rectangle 140" width="55.079" height="9.311" rx="2.22" transform="translate(287.412 27.328)" fill="#c0cbdc"/>
        <rect id="Rectangle_141" data-name="Rectangle 141" width="87.981" height="9.311" rx="2.22" transform="translate(185.252 41.513)" fill="#c0cbdc"/>
        <rect id="Rectangle_142" data-name="Rectangle 142" width="42.425" height="9.311" rx="2.22" transform="translate(136.361 41.513)" fill="#c0cbdc"/>
        <rect id="Rectangle_143" data-name="Rectangle 143" width="55.079" height="9.311" rx="2.22" transform="translate(74.89 41.513)" fill="#c0cbdc"/>
      </g>
      <g id="circleTick-2" data-name="circleTick" transform="translate(442.286 28.94)">
        <circle id="circle-2" data-name="circle" cx="18.002" cy="18.002" r="18.002" fill="#c0cbdc"/>
        <g id="tick-2" data-name="tick" transform="translate(9.034 12.938)">
          <line id="Line_53" data-name="Line 53" x2="5.947" y2="5.94" transform="translate(0 5.247)" fill="none" stroke="#fff" stroke-linecap="round" stroke-miterlimit="10" stroke-width="6"/>
          <line id="Line_54" data-name="Line 54" y1="11.588" x2="11.588" transform="translate(6.349)" fill="none" stroke="#fff" stroke-linecap="round" stroke-miterlimit="10" stroke-width="6"/>
        </g>
      </g>
    </g>
    <g id="box1" transform="translate(155.173 64.981)">
      <rect id="Rectangle_144" data-name="Rectangle 144" width="506.099" height="93.892" rx="3.78" fill="#ebedf2" stroke="#ebedf2" stroke-miterlimit="10" stroke-width="1"/>
      <g id="text-3" data-name="text" transform="translate(23.905 18.87)">
        <rect id="Rectangle_145" data-name="Rectangle 145" width="138.996" height="16.236" rx="3.27" transform="translate(74.89 5.327)" fill="#c0cbdc"/>
        <rect id="Rectangle_146" data-name="Rectangle 146" width="56.151" height="56.151" rx="4.38" fill="#c0cbdc"/>
        <rect id="Rectangle_147" data-name="Rectangle 147" width="95.454" height="9.311" rx="2.22" transform="translate(74.89 27.328)" fill="#c0cbdc"/>
        <rect id="Rectangle_148" data-name="Rectangle 148" width="55.079" height="9.311" rx="2.22" transform="translate(177.05 27.328)" fill="#c0cbdc"/>
        <rect id="Rectangle_149" data-name="Rectangle 149" width="42.425" height="9.311" rx="2.22" transform="translate(238.594 27.328)" fill="#c0cbdc"/>
        <rect id="Rectangle_150" data-name="Rectangle 150" width="55.079" height="9.311" rx="2.22" transform="translate(287.412 27.328)" fill="#c0cbdc"/>
        <rect id="Rectangle_151" data-name="Rectangle 151" width="87.981" height="9.311" rx="2.22" transform="translate(185.252 41.506)" fill="#c0cbdc"/>
        <rect id="Rectangle_152" data-name="Rectangle 152" width="42.425" height="9.311" rx="2.22" transform="translate(136.361 41.506)" fill="#c0cbdc"/>
        <rect id="Rectangle_153" data-name="Rectangle 153" width="55.079" height="9.311" rx="2.22" transform="translate(74.89 41.506)" fill="#c0cbdc"/>
      </g>
      <g id="circleTick-3" data-name="circleTick" transform="translate(442.286 28.948)">
        <circle id="circle-3" data-name="circle" cx="18.002" cy="18.002" r="18.002" fill="#c0cbdc"/>
        <g id="tick-3" data-name="tick" transform="translate(9.034 12.931)">
          <line id="Line_55" data-name="Line 55" x2="5.947" y2="5.94" transform="translate(0 5.254)" fill="none" stroke="#fff" stroke-linecap="round" stroke-miterlimit="10" stroke-width="6"/>
          <line id="Line_56" data-name="Line 56" y1="11.595" x2="11.595" transform="translate(6.341)" fill="none" stroke="#fff" stroke-linecap="round" stroke-miterlimit="10" stroke-width="6"/>
        </g>
      </g>
    </g>
    <g id="Projects" transform="translate(207.078 19.181)">
      <path id="Path_243" data-name="Path 243" d="M406.462,33.811v3.853h-1.8V27.288h3.97a3.992,3.992,0,0,1,2.758.9,3.036,3.036,0,0,1,1.029,2.393,2.919,2.919,0,0,1-1.007,2.379,4.21,4.21,0,0,1-2.8.846Zm0-1.459h2.189a2.138,2.138,0,0,0,1.459-.452,1.664,1.664,0,0,0,.511-1.306,1.8,1.8,0,0,0-.533-1.328,1.963,1.963,0,0,0-1.408-.518h-2.189Z" transform="translate(-404.66 -26.555)" fill="#c0cbdc"/>
      <path id="Path_244" data-name="Path 244" d="M421.244,32.469a3.809,3.809,0,0,0-.73-.058,1.6,1.6,0,0,0-1.605.912V38.6H417.18V30.886h1.656v.861a1.963,1.963,0,0,1,1.744-1.007,1.656,1.656,0,0,1,.613.1Z" transform="translate(-408.044 -27.489)" fill="#c0cbdc"/>
      <path id="Path_245" data-name="Path 245" d="M423.45,34.665a4.532,4.532,0,0,1,.445-2.036,3.364,3.364,0,0,1,1.262-1.4,3.649,3.649,0,0,1,1.868-.489,3.349,3.349,0,0,1,2.532,1.007,3.948,3.948,0,0,1,1.051,2.663v.409a4.583,4.583,0,0,1-.438,2.036,3.233,3.233,0,0,1-1.211,1.372,3.546,3.546,0,0,1-1.883.489,3.357,3.357,0,0,1-2.612-1.087,4.167,4.167,0,0,1-.978-2.919Zm1.729.153a3.08,3.08,0,0,0,.5,1.861,1.708,1.708,0,0,0,2.729,0,3.422,3.422,0,0,0,.489-2.007,3.043,3.043,0,0,0-.5-1.846,1.693,1.693,0,0,0-2.707,0A3.357,3.357,0,0,0,425.179,34.818Z" transform="translate(-409.738 -27.488)" fill="#c0cbdc"/>
      <path id="Path_246" data-name="Path 246" d="M436.563,29.855v8.392a2.539,2.539,0,0,1-.591,1.81,2.255,2.255,0,0,1-1.722.62,3.532,3.532,0,0,1-.919-.117V39.188a2.634,2.634,0,0,0,.613.066c.576,0,.868-.314.883-.941V29.855Zm-1.883-2.007a.912.912,0,0,1,.248-.657.985.985,0,0,1,.73-.263.956.956,0,0,1,.73.263.971.971,0,0,1,0,1.313.949.949,0,0,1-.73.255.978.978,0,0,1-.73-.255A.912.912,0,0,1,434.68,27.849Z" transform="translate(-412.409 -26.459)" fill="#c0cbdc"/>
      <path id="Path_247" data-name="Path 247" d="M443.573,38.736A3.561,3.561,0,0,1,440.91,37.7a3.743,3.743,0,0,1-1.022-2.758v-.219a4.583,4.583,0,0,1,.445-2.058,3.32,3.32,0,0,1,1.248-1.416,3.276,3.276,0,0,1,1.8-.511,3.036,3.036,0,0,1,2.43,1.007,4.276,4.276,0,0,1,.854,2.846v.715h-5.035a2.284,2.284,0,0,0,.635,1.511,1.919,1.919,0,0,0,1.408.562,2.35,2.35,0,0,0,1.941-.963l.927.868a3.167,3.167,0,0,1-1.241,1.073,3.845,3.845,0,0,1-1.722.379Zm-.2-6.6a1.459,1.459,0,0,0-1.153.5,2.591,2.591,0,0,0-.555,1.394h3.3v-.131a2.109,2.109,0,0,0-.467-1.313A1.46,1.46,0,0,0,443.369,32.132Z" transform="translate(-414.181 -27.488)" fill="#c0cbdc"/>
      <path id="Path_248" data-name="Path 248" d="M454.065,37.349a1.583,1.583,0,0,0,1.08-.379,1.277,1.277,0,0,0,.452-.934h1.635a2.532,2.532,0,0,1-.452,1.343,2.919,2.919,0,0,1-1.138.985,3.43,3.43,0,0,1-1.554.365,3.3,3.3,0,0,1-2.561-1.043,4.152,4.152,0,0,1-.949-2.919v-.175a4.1,4.1,0,0,1,.941-2.824,3.269,3.269,0,0,1,2.561-1.058,3.167,3.167,0,0,1,2.24.8,2.861,2.861,0,0,1,.912,2.109H455.6a1.562,1.562,0,0,0-.452-1.095,1.459,1.459,0,0,0-1.08-.423,1.525,1.525,0,0,0-1.292.606,3.116,3.116,0,0,0-.431,1.861v.277a3.174,3.174,0,0,0,.452,1.868,1.532,1.532,0,0,0,1.27.635Z" transform="translate(-417.068 -27.48)" fill="#c0cbdc"/>
      <path id="Path_249" data-name="Path 249" d="M463.356,28.37v1.875h1.357V31.53h-1.357v4.305a.941.941,0,0,0,.168.635.817.817,0,0,0,.628.2,2.5,2.5,0,0,0,.606-.073v1.343a4.24,4.24,0,0,1-1.138.161c-1.335,0-2-.73-2-2.189V31.53h-1.27V30.245h1.27V28.37Z" transform="translate(-419.712 -26.849)" fill="#c0cbdc"/>
      <path id="Path_250" data-name="Path 250" d="M472.344,36.51a.774.774,0,0,0-.38-.73,4.056,4.056,0,0,0-1.262-.431,6.509,6.509,0,0,1-1.459-.467,1.977,1.977,0,0,1-1.321-1.751,2.051,2.051,0,0,1,.839-1.671,3.342,3.342,0,0,1,2.138-.671,3.459,3.459,0,0,1,2.233.686,2.189,2.189,0,0,1,.854,1.773H472.3a1.058,1.058,0,0,0-.372-.825,1.4,1.4,0,0,0-.985-.336,1.532,1.532,0,0,0-.927.263.839.839,0,0,0-.365.73.73.73,0,0,0,.336.62,4.837,4.837,0,0,0,1.357.445,6.35,6.35,0,0,1,1.6.533,2.248,2.248,0,0,1,.861.73,1.9,1.9,0,0,1,.285,1.058,2.021,2.021,0,0,1-.861,1.686,3.649,3.649,0,0,1-2.262.642,4,4,0,0,1-1.686-.343,2.7,2.7,0,0,1-1.153-.941,2.189,2.189,0,0,1-.416-1.284h1.671a1.233,1.233,0,0,0,.467.941,2.189,2.189,0,0,0,2.189.073A.817.817,0,0,0,472.344,36.51Z" transform="translate(-421.702 -27.501)" fill="#c0cbdc"/>
      <path id="Path_251" data-name="Path 251" d="M483.845,37.395V30.966H482.67V29.682h1.175V29a2.649,2.649,0,0,1,.73-1.978,2.715,2.715,0,0,1,1.992-.73,3.911,3.911,0,0,1,.971.131l-.044,1.35a3.51,3.51,0,0,0-.664-.058,1.116,1.116,0,0,0-1.241,1.277v.686h1.569v1.292h-1.569v6.429Z" transform="translate(-425.745 -26.285)" fill="#c0cbdc"/>
      <path id="Path_252" data-name="Path 252" d="M490.088,34.665a4.539,4.539,0,0,1,.453-2.036,3.305,3.305,0,0,1,1.255-1.4,3.649,3.649,0,0,1,1.868-.489,3.349,3.349,0,0,1,2.532,1.007,3.948,3.948,0,0,1,1.051,2.663v.409a4.582,4.582,0,0,1-.438,2.036,3.261,3.261,0,0,1-1.24,1.372,3.59,3.59,0,0,1-1.89.489,3.357,3.357,0,0,1-2.612-1.087,4.167,4.167,0,0,1-.978-2.919Zm1.729.153a3.079,3.079,0,0,0,.5,1.861,1.707,1.707,0,0,0,2.729,0,3.422,3.422,0,0,0,.489-2.007,3.043,3.043,0,0,0-.5-1.846,1.693,1.693,0,0,0-2.707,0A3.357,3.357,0,0,0,491.817,34.818Z" transform="translate(-427.748 -27.488)" fill="#c0cbdc"/>
      <path id="Path_253" data-name="Path 253" d="M505.945,32.469a3.649,3.649,0,0,0-.73-.058,1.6,1.6,0,0,0-1.605.912V38.6H501.88V30.886h1.649l.044.861a1.948,1.948,0,0,1,1.737-1.007,1.627,1.627,0,0,1,.613.1Z" transform="translate(-430.937 -27.489)" fill="#c0cbdc"/>
      <path id="Path_254" data-name="Path 254" d="M517.976,33.642h-2.014v3.992h-1.8V27.287h3.649a4.232,4.232,0,0,1,2.773.8,2.86,2.86,0,0,1,.978,2.335,2.919,2.919,0,0,1-.5,1.744,3.24,3.24,0,0,1-1.4,1.08l2.335,4.32v.095h-1.934Zm-2.014-1.459h1.853a2.065,2.065,0,0,0,1.459-.46,1.613,1.613,0,0,0,.511-1.255,1.722,1.722,0,0,0-.474-1.292,2.022,2.022,0,0,0-1.416-.467h-1.9Z" transform="translate(-434.257 -26.553)" fill="#c0cbdc"/>
      <path id="Path_255" data-name="Path 255" d="M529.7,38.736a3.568,3.568,0,0,1-2.671-1.036A3.772,3.772,0,0,1,526,34.941v-.219a4.583,4.583,0,0,1,.445-2.058,3.422,3.422,0,0,1,1.248-1.416,3.276,3.276,0,0,1,1.8-.511,3.036,3.036,0,0,1,2.437,1.007,4.276,4.276,0,0,1,.861,2.846v.715H527.75a2.284,2.284,0,0,0,.635,1.511,1.934,1.934,0,0,0,1.408.562,2.342,2.342,0,0,0,1.941-.963l.934.89a3.116,3.116,0,0,1-1.24,1.073A3.809,3.809,0,0,1,529.7,38.736Zm-.212-6.6a1.459,1.459,0,0,0-1.146.5,2.6,2.6,0,0,0-.562,1.394h3.327V33.89a2.109,2.109,0,0,0-.46-1.313A1.459,1.459,0,0,0,529.487,32.132Z" transform="translate(-437.455 -27.487)" fill="#c0cbdc"/>
      <path id="Path_256" data-name="Path 256" d="M543.917,33.676a4.655,4.655,0,0,1-.8,2.86,2.6,2.6,0,0,1-2.189,1.058,2.518,2.518,0,0,1-2.109-.978l-.088.839H537.16V26.51h1.729v4.006a2.539,2.539,0,0,1,2.021-.883,2.62,2.62,0,0,1,2.189,1.051,4.685,4.685,0,0,1,.81,2.919Zm-1.729-.153a3.277,3.277,0,0,0-.445-1.875,1.459,1.459,0,0,0-1.284-.628,1.613,1.613,0,0,0-1.583.956v3.182a1.635,1.635,0,0,0,1.6,1.007,1.459,1.459,0,0,0,1.255-.606,3.24,3.24,0,0,0,.46-1.832Z" transform="translate(-440.473 -26.346)" fill="#c0cbdc"/>
      <path id="Path_257" data-name="Path 257" d="M551.691,38.736A3.59,3.59,0,0,1,549.02,37.7,3.773,3.773,0,0,1,548,34.941v-.219a4.583,4.583,0,0,1,.445-2.058,3.422,3.422,0,0,1,1.248-1.416,3.284,3.284,0,0,1,1.8-.511,3.021,3.021,0,0,1,2.43,1.007,4.24,4.24,0,0,1,.861,2.831v.73h-5.042a2.291,2.291,0,0,0,.642,1.511,1.9,1.9,0,0,0,1.408.562,2.342,2.342,0,0,0,1.934-.963l.934.89a3.146,3.146,0,0,1-1.233,1.073,3.868,3.868,0,0,1-1.737.358Zm-.2-6.6a1.459,1.459,0,0,0-1.153.5,2.6,2.6,0,0,0-.562,1.394h3.335v-.131a2.109,2.109,0,0,0-.46-1.313,1.459,1.459,0,0,0-1.16-.445Z" transform="translate(-443.402 -27.487)" fill="#c0cbdc"/>
      <path id="Path_258" data-name="Path 258" d="M562.185,37.357a1.576,1.576,0,0,0,1.073-.379,1.313,1.313,0,0,0,.46-.934h1.627a2.518,2.518,0,0,1-.445,1.343,2.918,2.918,0,0,1-1.138.985,3.43,3.43,0,0,1-1.554.365,3.313,3.313,0,0,1-2.561-1.043,4.181,4.181,0,0,1-.949-2.919V34.6a4.1,4.1,0,0,1,.949-2.8,3.276,3.276,0,0,1,2.569-1.058,3.182,3.182,0,0,1,2.24.8,2.853,2.853,0,0,1,.9,2.109h-1.627a1.591,1.591,0,0,0-.452-1.095,1.46,1.46,0,0,0-1.08-.423,1.54,1.54,0,0,0-1.3.606,3.124,3.124,0,0,0-.46,1.853v.277a3.123,3.123,0,0,0,.452,1.868A1.525,1.525,0,0,0,562.185,37.357Z" transform="translate(-446.292 -27.488)" fill="#c0cbdc"/>
      <path id="Path_259" data-name="Path 259" d="M572.7,37.357a1.576,1.576,0,0,0,1.073-.379,1.313,1.313,0,0,0,.46-.934h1.627a2.517,2.517,0,0,1-.445,1.343,2.991,2.991,0,0,1-1.138.985,3.43,3.43,0,0,1-1.554.365,3.313,3.313,0,0,1-2.569-1.043,4.181,4.181,0,0,1-.949-2.919V34.6a4.1,4.1,0,0,1,.941-2.824,3.277,3.277,0,0,1,2.554-1.036,3.182,3.182,0,0,1,2.24.8,2.919,2.919,0,0,1,.9,2.109H574.22a1.627,1.627,0,0,0-.452-1.095,1.459,1.459,0,0,0-1.08-.423,1.54,1.54,0,0,0-1.3.606,3.065,3.065,0,0,0-.46,1.853v.277a3.123,3.123,0,0,0,.452,1.868A1.525,1.525,0,0,0,572.7,37.357Z" transform="translate(-449.133 -27.488)" fill="#c0cbdc"/>
      <path id="Path_260" data-name="Path 260" d="M584.592,38.6a2.724,2.724,0,0,1-.2-.73,2.919,2.919,0,0,1-3.926.2,2.1,2.1,0,0,1-.73-1.635,2.189,2.189,0,0,1,.919-1.853,4.466,4.466,0,0,1,2.62-.657h1.029v-.5a1.379,1.379,0,0,0-.336-.963,1.328,1.328,0,0,0-1.022-.358,1.54,1.54,0,0,0-.971.3.92.92,0,0,0-.372.73h-1.678a1.941,1.941,0,0,1,.423-1.189,2.847,2.847,0,0,1,1.146-.868,4.072,4.072,0,0,1,1.613-.314,3.211,3.211,0,0,1,2.189.686,2.43,2.43,0,0,1,.825,1.912v3.473a3.932,3.932,0,0,0,.292,1.664v.124Zm-1.9-1.248a1.992,1.992,0,0,0,.971-.255,1.656,1.656,0,0,0,.679-.664V34.975H583.4a2.576,2.576,0,0,0-1.459.336,1.08,1.08,0,0,0-.489.949.993.993,0,0,0,.336.8A1.269,1.269,0,0,0,582.688,37.354Z" transform="translate(-451.982 -27.492)" fill="#c0cbdc"/>
    </g>
    <g id="ProjectManager" transform="translate(64.616 38.388)">
      <path id="Path_261" data-name="Path 261" d="M211.057,58.82v3.459H209.43v-9.34h3.576a3.649,3.649,0,0,1,2.481.81,2.751,2.751,0,0,1,.927,2.153,2.663,2.663,0,0,1-.9,2.138,3.78,3.78,0,0,1-2.532.781Zm0-1.313h1.948a1.9,1.9,0,0,0,1.321-.409,1.5,1.5,0,0,0,.452-1.175,1.605,1.605,0,0,0-.46-1.2,1.751,1.751,0,0,0-1.27-.467h-1.992Z" transform="translate(-209.43 -52.696)" fill="#fff"/>
      <path id="Path_262" data-name="Path 262" d="M224.359,57.6a4.473,4.473,0,0,0-.635-.051,1.459,1.459,0,0,0-1.459.825v4.743H220.71v-6.94h1.459l.044.781a1.744,1.744,0,0,1,1.627-.9,1.5,1.5,0,0,1,.555.088Z" transform="translate(-212.479 -53.537)" fill="#fff"/>
      <path id="Path_263" data-name="Path 263" d="M226.338,59.581a4.1,4.1,0,0,1,.409-1.839,2.868,2.868,0,0,1,1.131-1.255,3.218,3.218,0,0,1,1.678-.438,3.021,3.021,0,0,1,2.284.9,3.525,3.525,0,0,1,.941,2.393v.365a4.152,4.152,0,0,1-.394,1.839,2.875,2.875,0,0,1-1.124,1.248,3.2,3.2,0,0,1-1.7.445,3.021,3.021,0,0,1-2.35-.978,3.751,3.751,0,0,1-.876-2.605Zm1.562.131a2.817,2.817,0,0,0,.438,1.678,1.545,1.545,0,0,0,2.459-.007,3.043,3.043,0,0,0,.445-1.8,2.8,2.8,0,0,0-.452-1.671,1.531,1.531,0,0,0-2.445-.007,3.021,3.021,0,0,0-.445,1.81Z" transform="translate(-213.999 -53.537)" fill="#fff"/>
      <path id="Path_264" data-name="Path 264" d="M238.144,55.244V62.8a2.248,2.248,0,0,1-.533,1.62,2,2,0,0,1-1.547.562,3.08,3.08,0,0,1-.825-.109V63.65a2.466,2.466,0,0,0,.547.058c.518,0,.781-.285.8-.854V55.244Zm-1.693-1.8a.8.8,0,0,1,.226-.591.846.846,0,0,1,.649-.241.868.868,0,0,1,.657.241.8.8,0,0,1,.226.591.817.817,0,0,1-.226.591.89.89,0,0,1-.657.234.876.876,0,0,1-.649-.234A.817.817,0,0,1,236.451,53.441Z" transform="translate(-216.406 -52.607)" fill="#fff"/>
      <path id="Path_265" data-name="Path 265" d="M244.456,63.254a3.218,3.218,0,0,1-2.4-.934,3.364,3.364,0,0,1-.927-2.488v-.161a4.2,4.2,0,0,1,.4-1.853,3.058,3.058,0,0,1,1.131-1.277,2.919,2.919,0,0,1,1.613-.452,2.7,2.7,0,0,1,2.189.9,3.787,3.787,0,0,1,.773,2.554v.628H242.7a2.072,2.072,0,0,0,.569,1.365,1.744,1.744,0,0,0,1.27.5,2.109,2.109,0,0,0,1.744-.9l.839.8a2.86,2.86,0,0,1-1.109.971A3.532,3.532,0,0,1,244.456,63.254Zm-.19-5.947a1.321,1.321,0,0,0-1.036.452,2.328,2.328,0,0,0-.5,1.248h2.97V58.89a1.934,1.934,0,0,0-.416-1.182,1.292,1.292,0,0,0-1.014-.4Z" transform="translate(-217.997 -53.547)" fill="#fff"/>
      <path id="Path_266" data-name="Path 266" d="M253.89,62a1.4,1.4,0,0,0,.97-.336,1.16,1.16,0,0,0,.409-.839h1.459a2.291,2.291,0,0,1-.409,1.2,2.642,2.642,0,0,1-1.022.89,3.05,3.05,0,0,1-1.4.328,2.919,2.919,0,0,1-2.306-.941,3.751,3.751,0,0,1-.854-2.605v-.161A3.649,3.649,0,0,1,251.584,57a2.919,2.919,0,0,1,2.306-.949,2.868,2.868,0,0,1,2.021.73,2.583,2.583,0,0,1,.854,1.883h-1.459a1.459,1.459,0,0,0-.4-.978,1.328,1.328,0,0,0-.978-.387,1.379,1.379,0,0,0-1.168.547,2.846,2.846,0,0,0-.416,1.664v.255a2.831,2.831,0,0,0,.409,1.678A1.365,1.365,0,0,0,253.89,62Z" transform="translate(-220.593 -53.537)" fill="#fff"/>
      <path id="Path_267" data-name="Path 267" d="M262.26,53.91V55.6h1.219v1.153H262.26v3.875a.868.868,0,0,0,.153.576.73.73,0,0,0,.562.175,2.335,2.335,0,0,0,.547-.066v1.211a4.02,4.02,0,0,1-1.029.146c-1.2,0-1.8-.664-1.8-1.985V56.749H259.56V55.6H260.7V53.91Z" transform="translate(-222.98 -52.959)" fill="#fff"/>
      <path id="Path_268" data-name="Path 268" d="M273.353,52.94l2.693,7.151,2.685-7.151h2.094v9.333h-1.613V59.194l.161-4.116-2.758,7.195H275.44l-2.751-7.188.161,4.108v3.079h-1.62V52.94Z" transform="translate(-226.134 -52.697)" fill="#fff"/>
      <path id="Path_269" data-name="Path 269" d="M290.87,63.112a2.225,2.225,0,0,1-.182-.649,2.605,2.605,0,0,1-3.525.182,1.89,1.89,0,0,1-.664-1.459,1.97,1.97,0,0,1,.825-1.7,3.962,3.962,0,0,1,2.357-.6h.956V58.42a1.226,1.226,0,0,0-.3-.861,1.2,1.2,0,0,0-.919-.328,1.343,1.343,0,0,0-.868.27.817.817,0,0,0-.343.671h-1.554a1.751,1.751,0,0,1,.372-1.065,2.605,2.605,0,0,1,1.029-.781,3.744,3.744,0,0,1,1.459-.277,2.919,2.919,0,0,1,1.941.613,2.189,2.189,0,0,1,.73,1.722v3.123a3.547,3.547,0,0,0,.263,1.459v.109Zm-1.715-1.124a1.8,1.8,0,0,0,.868-.219,1.532,1.532,0,0,0,.613-.606V59.858h-.854a2.247,2.247,0,0,0-1.3.3.985.985,0,0,0-.438.854.89.89,0,0,0,.3.73,1.153,1.153,0,0,0,.81.248Z" transform="translate(-230.26 -53.537)" fill="#fff"/>
      <path id="Path_270" data-name="Path 270" d="M297.984,56.173l.044.8a2.481,2.481,0,0,1,2.021-.927q2.189,0,2.189,2.481v4.583h-1.562v-4.5a1.46,1.46,0,0,0-.285-.978,1.189,1.189,0,0,0-.934-.314,1.5,1.5,0,0,0-1.386.876v4.94H296.51V56.173Z" transform="translate(-232.967 -53.537)" fill="#fff"/>
      <path id="Path_271" data-name="Path 271" d="M310.62,63.112a2.224,2.224,0,0,1-.182-.649,2.605,2.605,0,0,1-3.524.182,1.89,1.89,0,0,1-.664-1.459,1.97,1.97,0,0,1,.825-1.7,3.948,3.948,0,0,1,2.357-.6h.956V58.42a1.226,1.226,0,0,0-.3-.861,1.2,1.2,0,0,0-.919-.328,1.328,1.328,0,0,0-.868.27.817.817,0,0,0-.343.671H306.4a1.759,1.759,0,0,1,.4-1.065,2.605,2.605,0,0,1,1.029-.781,3.729,3.729,0,0,1,1.459-.277,2.919,2.919,0,0,1,1.948.613,2.189,2.189,0,0,1,.73,1.722v3.123a3.547,3.547,0,0,0,.263,1.459v.109Zm-1.715-1.124a1.8,1.8,0,0,0,.868-.219,1.532,1.532,0,0,0,.613-.606V59.858h-.839a2.248,2.248,0,0,0-1.3.3.985.985,0,0,0-.438.854.89.89,0,0,0,.3.73,1.153,1.153,0,0,0,.8.248Z" transform="translate(-235.598 -53.536)" fill="#fff"/>
      <path id="Path_272" data-name="Path 272" d="M315.917,59.6a4.072,4.072,0,0,1,.73-2.583,2.452,2.452,0,0,1,2.021-.963,2.269,2.269,0,0,1,1.861.825l.073-.73H322v6.728a2.8,2.8,0,0,1-.846,2.189,3.24,3.24,0,0,1-2.262.788,3.729,3.729,0,0,1-1.459-.35,2.627,2.627,0,0,1-1.1-.832l.73-.934a2.226,2.226,0,0,0,1.773.854,1.7,1.7,0,0,0,1.219-.423,1.6,1.6,0,0,0,.452-1.233v-.467a2.291,2.291,0,0,1-1.8.73,2.423,2.423,0,0,1-2.007-.919,4.167,4.167,0,0,1-.788-2.678Zm1.554.131a2.8,2.8,0,0,0,.423,1.649,1.386,1.386,0,0,0,1.182.6,1.51,1.51,0,0,0,1.4-.81v-3.05a1.459,1.459,0,0,0-1.386-.788,1.372,1.372,0,0,0-1.2.606,3.138,3.138,0,0,0-.423,1.8Z" transform="translate(-238.21 -53.537)" fill="#fff"/>
      <path id="Path_273" data-name="Path 273" d="M329.456,63.254a3.24,3.24,0,0,1-2.408-.934,3.386,3.386,0,0,1-.919-2.488v-.161a4.2,4.2,0,0,1,.4-1.853,3.094,3.094,0,0,1,1.124-1.277,2.985,2.985,0,0,1,1.62-.452,2.722,2.722,0,0,1,2.189.9,3.787,3.787,0,0,1,.773,2.554v.628H327.7a2.072,2.072,0,0,0,.569,1.365,1.744,1.744,0,0,0,1.27.5,2.109,2.109,0,0,0,1.744-.9l.839.8a2.861,2.861,0,0,1-1.109.971A3.532,3.532,0,0,1,329.456,63.254Zm-.19-5.947a1.313,1.313,0,0,0-1.036.452,2.328,2.328,0,0,0-.5,1.248h2.97V58.89a1.934,1.934,0,0,0-.416-1.182,1.292,1.292,0,0,0-1.014-.4Z" transform="translate(-240.971 -53.547)" fill="#fff"/>
      <path id="Path_274" data-name="Path 274" d="M339.786,57.6a4.656,4.656,0,0,0-.635-.051,1.459,1.459,0,0,0-1.459.825v4.743H336.13v-6.94h1.459l.036.781a1.759,1.759,0,0,1,1.569-.9,1.459,1.459,0,0,1,.547.088Z" transform="translate(-243.675 -53.538)" fill="#fff"/>
    </g>
    <g id="Rebecca" transform="translate(64.609 18.659)">
      <path id="Path_275" data-name="Path 275" d="M214.046,34.555h-1.627v4.378h-3V26.506h4.9a5.458,5.458,0,0,1,3.466.985,3.313,3.313,0,0,1,1.248,2.773,4.035,4.035,0,0,1-.525,2.153,3.765,3.765,0,0,1-1.642,1.386l2.6,5.028v.124h-3.218Zm-1.627-2.313h1.9a1.715,1.715,0,0,0,1.292-.445,2.05,2.05,0,0,0,0-2.525,1.686,1.686,0,0,0-1.284-.46h-1.9Z" transform="translate(-209.42 -25.82)" fill="#fff"/>
      <path id="Path_276" data-name="Path 276" d="M229.234,40.254a4.743,4.743,0,0,1-3.444-1.27,4.378,4.378,0,0,1-1.321-3.306v-.241a5.721,5.721,0,0,1,.525-2.51,3.853,3.853,0,0,1,1.54-1.678,4.641,4.641,0,0,1,2.393-.591,4.006,4.006,0,0,1,3.079,1.211,4.743,4.743,0,0,1,1.124,3.371v1.116H227.4a2.065,2.065,0,0,0,.679,1.226,1.985,1.985,0,0,0,1.35.445,2.6,2.6,0,0,0,2.138-.956l1.313,1.554a3.649,3.649,0,0,1-1.525,1.182,5.057,5.057,0,0,1-2.123.445Zm-.328-7.377c-.839,0-1.343.562-1.5,1.678h2.919v-.219a1.459,1.459,0,0,0-.35-1.073,1.408,1.408,0,0,0-1.044-.387Z" transform="translate(-213.487 -26.944)" fill="#fff"/>
      <path id="Path_277" data-name="Path 277" d="M246.56,34.159a5.633,5.633,0,0,1-.941,3.5,3.145,3.145,0,0,1-2.649,1.226,2.751,2.751,0,0,1-2.277-1.124l-.117.949H238V25.57h2.882V30.2a2.642,2.642,0,0,1,2.08-.912,3.13,3.13,0,0,1,2.663,1.241,5.648,5.648,0,0,1,.941,3.488Zm-2.919-.182a3.824,3.824,0,0,0-.35-1.9A1.211,1.211,0,0,0,242.2,31.5a1.372,1.372,0,0,0-1.35.73v3.649a1.394,1.394,0,0,0,1.365.73,1.226,1.226,0,0,0,1.292-.992,6.831,6.831,0,0,0,.168-1.642Z" transform="translate(-217.145 -25.57)" fill="#fff"/>
      <path id="Path_278" data-name="Path 278" d="M255.844,40.254a4.772,4.772,0,0,1-3.452-1.27,4.378,4.378,0,0,1-1.313-3.306v-.241a5.721,5.721,0,0,1,.525-2.51,3.882,3.882,0,0,1,1.532-1.678,4.685,4.685,0,0,1,2.4-.591,3.977,3.977,0,0,1,3.072,1.211,4.714,4.714,0,0,1,1.168,3.371v1.116h-5.765a2.065,2.065,0,0,0,.679,1.226,1.985,1.985,0,0,0,1.35.445,2.605,2.605,0,0,0,2.138-.956l1.313,1.554a3.649,3.649,0,0,1-1.525,1.182A5.057,5.057,0,0,1,255.844,40.254Zm-.328-7.377c-.839,0-1.343.562-1.5,1.678h2.919v-.219a1.292,1.292,0,0,0-1.4-1.459Z" transform="translate(-220.679 -26.944)" fill="#fff"/>
      <path id="Path_279" data-name="Path 279" d="M268.316,38.027a1.284,1.284,0,0,0,.941-.328,1.211,1.211,0,0,0,.321-.919h2.707a3.189,3.189,0,0,1-1.095,2.5,4.05,4.05,0,0,1-2.8.978,4.116,4.116,0,0,1-3.182-1.27,4.984,4.984,0,0,1-1.16-3.5v-.124a5.655,5.655,0,0,1,.518-2.474,3.758,3.758,0,0,1,1.459-1.649,4.458,4.458,0,0,1,2.313-.576,3.962,3.962,0,0,1,2.882.978,3.539,3.539,0,0,1,1.065,2.707h-2.707a1.583,1.583,0,0,0-.35-1.1,1.211,1.211,0,0,0-.934-.387c-.73,0-1.189.482-1.314,1.459a10.944,10.944,0,0,0-.058,1.248,3.9,3.9,0,0,0,.336,1.934,1.153,1.153,0,0,0,1.058.533Z" transform="translate(-224.183 -26.942)" fill="#fff"/>
      <path id="Path_280" data-name="Path 280" d="M280.783,38.027a1.3,1.3,0,0,0,.941-.328,1.211,1.211,0,0,0,.321-.919h2.707a3.189,3.189,0,0,1-1.095,2.5,4.05,4.05,0,0,1-2.809.978,4.116,4.116,0,0,1-3.182-1.27,4.984,4.984,0,0,1-1.16-3.5v-.124a5.655,5.655,0,0,1,.518-2.474,3.758,3.758,0,0,1,1.459-1.649,4.444,4.444,0,0,1,2.313-.576,3.977,3.977,0,0,1,2.89.978,3.539,3.539,0,0,1,1.065,2.707h-2.707a1.583,1.583,0,0,0-.35-1.1,1.219,1.219,0,0,0-.941-.387c-.73,0-1.182.482-1.306,1.459a10.958,10.958,0,0,0-.058,1.248,3.9,3.9,0,0,0,.336,1.934A1.153,1.153,0,0,0,280.783,38.027Z" transform="translate(-227.55 -26.942)" fill="#fff"/>
      <path id="Path_281" data-name="Path 281" d="M294.532,40.075a3.247,3.247,0,0,1-.277-.825,2.678,2.678,0,0,1-2.189,1,3.3,3.3,0,0,1-2.226-.8,2.5,2.5,0,0,1-.941-1.985,2.576,2.576,0,0,1,1.109-2.277,5.685,5.685,0,0,1,3.233-.766h.89v-.5c0-.854-.372-1.277-1.1-1.277A.9.9,0,0,0,292,33.669h-2.882a2.583,2.583,0,0,1,1.146-2.189,4.809,4.809,0,0,1,2.919-.832,4.21,4.21,0,0,1,2.795.861A2.992,2.992,0,0,1,297,33.887v4.094a4.072,4.072,0,0,0,.394,1.948v.146Zm-1.8-1.875a1.6,1.6,0,0,0,.89-.226,1.394,1.394,0,0,0,.511-.525V35.989h-.839c-1.007,0-1.5.445-1.5,1.35a.817.817,0,0,0,.263.635A.963.963,0,0,0,292.729,38.2Z" transform="translate(-230.901 -26.941)" fill="#fff"/>
    </g>
    <circle id="Ellipse_19" data-name="Ellipse 19" cx="22.008" cy="22.008" r="22.008" transform="translate(10.304 9.785)" fill="#fff"/>
    <circle id="Ellipse_20" data-name="Ellipse 20" cx="5.524" cy="5.524" r="5.524" transform="translate(40.835 40.93)" fill="#63c74d" stroke="#fff" stroke-miterlimit="10" stroke-width="2.56"/>
    <g id="icon" transform="translate(24.956 20.476)">
      <path id="Path_282" data-name="Path 282" d="M161.589,44H163.3a6.494,6.494,0,0,1,6.494,6.494v5.064H155.08V50.516A6.494,6.494,0,0,1,161.589,44Z" transform="translate(-155.08 -32.368)" fill="#feae34"/>
      <circle id="Ellipse_21" data-name="Ellipse 21" cx="5.006" cy="5.006" r="5.006" transform="translate(2.35)" fill="#feae34"/>
    </g>
    <g id="line" transform="translate(670.788 7.29)">
      <circle id="Ellipse_22" data-name="Ellipse 22" cx="5.838" cy="5.838" r="5.838" fill="#ebedf2"/>
      <line id="Line_57" data-name="Line 57" x2="5.473" transform="translate(3.101 7.961)" fill="none" stroke="#fff" stroke-linecap="round" stroke-miterlimit="10" stroke-width="2"/>
    </g>
    <g id="fullscreen" transform="translate(687.608 7.29)">
      <circle id="Ellipse_23" data-name="Ellipse 23" cx="5.838" cy="5.838" r="5.838" fill="#ebedf2"/>
      <rect id="Rectangle_154" data-name="Rectangle 154" width="5.896" height="4.867" rx="1.52" transform="translate(2.89 3.4)" fill="#fff"/>
    </g>
    <g id="cross" transform="translate(704.435 7.29)">
      <circle id="Ellipse_24" data-name="Ellipse 24" cx="5.838" cy="5.838" r="5.838" fill="#ebedf2"/>
      <line id="Line_58" data-name="Line 58" x2="4.13" y2="4.123" transform="translate(3.773 3.773)" fill="none" stroke="#fff" stroke-linecap="round" stroke-miterlimit="10" stroke-width="2"/>
      <line id="Line_59" data-name="Line 59" x1="4.13" y2="4.13" transform="translate(3.773 3.831)" fill="none" stroke="#fff" stroke-linecap="round" stroke-miterlimit="10" stroke-width="2.07"/>
    </g>
  </g>
  <g id="guy" transform="translate(110.916 90.032)">
    <path id="Path_283" data-name="Path 283" d="M285.586,332.61s-.73,50.423,7.786,102.722L279.749,443.6,273.67,335.85Z" transform="translate(-184.885 -179.932)" fill="#b86f50"/>
    <path id="Path_284" data-name="Path 284" d="M261.505,257.555l1.2-16.294s-8.268-8.275-18.484-3.167L243,247.66Z" transform="translate(-176.596 -153.936)" fill="#e8b796"/>
    <path id="Path_285" data-name="Path 285" d="M265.912,241.551l-.628,8.406s-1.357-5.75-8.632-8.479S266.876,234.064,265.912,241.551Z" transform="translate(-179.806 -154.227)" fill="#c28569"/>
    <path id="Path_286" data-name="Path 286" d="M236.9,742.692s-7.866,3.9-6.086,17.031c0,0,10.377,6.932,52.058,1.036,0,0,5.838-.555,3.079-4.283s-35.6-14.426-35.6-14.426Z" transform="translate(-173.231 -290.599)" fill="#733e39"/>
    <path id="Path_287" data-name="Path 287" d="M239.25,727.27v12.157s7.458,6.005,13.456,0V727.27Z" transform="translate(-175.582 -286.604)" fill="#b55088"/>
    <path id="Path_288" data-name="Path 288" d="M266.448,471.05H212.69V658.338s17.024,1.708,22.7,1.708c5.071,0,20.271-1.708,20.271-1.708Z" transform="translate(-168.403 -217.351)" fill="#262b44"/>
    <path id="Path_289" data-name="Path 289" d="M182.881,751.71s-8.158,7.866-5.56,17.754,26.89,7.137,28.021.9c.817-4.473-3.327-14.448-10.7-18.651C186.369,746.975,182.881,751.71,182.881,751.71Z" transform="translate(-158.705 -292.641)" fill="#733e39"/>
    <path id="Path_290" data-name="Path 290" d="M184.25,740.2v9.559a1.715,1.715,0,0,0,.788,1.459c1.985,1.277,7.355,4.021,12.048,0a1.766,1.766,0,0,0,.62-1.328V740.2a1.715,1.715,0,0,0-1.715-1.715H185.958a1.715,1.715,0,0,0-1.708,1.715Z" transform="translate(-160.716 -289.637)" fill="#b55088"/>
    <path id="Path_291" data-name="Path 291" d="M179.927,459.16l61.763,9.866L207.467,666.048s-13.281,1.583-17.71,1.583c-4.772,0-19.1-1.583-19.1-1.583Z" transform="translate(-157.043 -214.137)" fill="#3a4466"/>
    <path id="Path_292" data-name="Path 292" d="M245.333,410.676s5.108,2.671,26.27,0l-5.794-140.959,2.145-7.662L236.919,247.68l-5.159,9.72Z" transform="translate(-173.558 -156.977)" fill="#fff"/>
    <path id="Path_293" data-name="Path 293" d="M217.388,258.71s-53.021,46.337-26.737,95.592C215.607,400.982,217.388,258.71,217.388,258.71Z" transform="translate(-160.47 -159.958)" fill="#733e39"/>
    <rect id="Rectangle_155" data-name="Rectangle 155" width="75.027" height="58.08" rx="14.985" transform="translate(0 167.224) rotate(-5.768)" fill="#c0cbdc"/>
    <path id="Path_294" data-name="Path 294" d="M244.311,419.982s-54.488,4.218-73.621-15.893c0,0,14.448-47.993,21.731-101.269,6.283-45.972,25.131-51,25.131-51l25.168,13.536a3.123,3.123,0,0,1,1.591,2.722Z" transform="translate(-157.051 -158.096)" fill="#b86f50"/>
    <path id="Path_295" data-name="Path 295" d="M230.9,332.61s9.858,13.3,29.685,21.162v-20.6Z" transform="translate(-173.325 -179.932)" fill="#733e39"/>
    <path id="Path_296" data-name="Path 296" d="M382.35,185.038l1.3-2.809s1.708-10.406.73-16.893,8.757-11.354,8.757-11.354l7.786-14.434s4.057-2.59,4.378,1.948-3.729,12.485-3.729,12.485a9.253,9.253,0,0,1,3.751,6.487c0,.372.1.365-.306,1.459a13.055,13.055,0,0,1,1.97,6c.241,3.532-6.633,17.272-11.376,21.651S382.35,185.038,382.35,185.038Z" transform="translate(-214.26 -127.551)" fill="#e8b796"/>
    <rect id="Rectangle_156" data-name="Rectangle 156" width="18.484" height="17.243" transform="translate(169.387 54.674) rotate(24.82)" fill="#fff"/>
    <path id="Path_297" data-name="Path 297" d="M261.151,259.2s39.565,3.247,72.643-50.27l24.978,11.354s-34.479,69.972-96.081,83.6S210.553,242.336,261.151,259.2Z" transform="translate(-170.323 -146.503)" fill="#b86f50"/>
    <path id="Path_298" data-name="Path 298" d="M246.584,219.94s15.784,2.43,28.459-5.6V202.3s-5.838-.854-.73-4.5l-2.065-15.441s-3.524.971-6.808-8.275-11.07-16.535-11.07-16.535L212.9,175.793S215.717,218.846,246.584,219.94Z" transform="translate(-168.46 -132.616)" fill="#e8b796"/>
    <circle id="Ellipse_25" data-name="Ellipse 25" cx="4.926" cy="4.926" r="4.926" transform="translate(99.38 49.38)" fill="#e8b796"/>
    <path id="Path_299" data-name="Path 299" d="M291.059,214.08a21.891,21.891,0,0,1-10.479.62s5.677,3.408,11.267,2.6l-.788-1.6Z" transform="translate(-186.753 -147.895)" fill="#f5f5f5"/>
    <path id="Path_300" data-name="Path 300" d="M292.6,216.887a14.741,14.741,0,0,1-5.838-.306c-3.554-.788,0,0,0,0l5.546-.27Z" transform="translate(-187.998 -148.476)" fill="#e0e0e0"/>
    <path id="Path_301" data-name="Path 301" d="M291.65,213.72l.2,1.737s-.285.08-.781.175c-1.8.336-6.392.912-10.486-1.029C280.58,214.6,287.1,215.6,291.65,213.72Z" transform="translate(-186.753 -147.798)" fill="#f5f5f5"/>
    <ellipse id="Ellipse_26" data-name="Ellipse 26" cx="1.416" cy="3.809" rx="1.416" ry="3.809" transform="translate(89.632 45.192) rotate(-22.58)" fill="#3e2731"/>
    <path id="Path_302" data-name="Path 302" d="M222.72,170.687S295.6,161,250.193,123.38c0,0-.649,10.865-14.025,16.7,0,0,3.649-6.648-2.51-8.435,0,0-.978,10.216-19.14,15.244s-14.755,18.323-14.755,18.323-9.822,21.753,5.517,34.866,26.328,8.29,26.328,8.29l-8.027-14.536,4.867-14.025,5.02,9.647s5.663-.153,8.705-3c0,0-9.486-9.567-9.486-20.147" transform="translate(-164.072 -123.38)" fill="#733e39"/>
    <circle id="Ellipse_27" data-name="Ellipse 27" cx="6.487" cy="6.487" r="6.487" transform="translate(53.043 54.305)" fill="#e8b796"/>
    <path id="Path_303" data-name="Path 303" d="M228.429,207.427s-2.087-6.567,4.276-6.144C232.7,201.283,229.173,204.2,228.429,207.427Z" transform="translate(-172.569 -144.431)" fill="#c28569"/>
    <path id="Path_304" data-name="Path 304" d="M271.58,181.681c.073-.234,1.6-3.649,5.108-2.437" transform="translate(-184.32 -138.409)" fill="none" stroke="#3e2731" stroke-linecap="round" stroke-miterlimit="10" stroke-width="2"/>
    <path id="Path_305" data-name="Path 305" d="M405.33,164.606l2.452-5.006a8.028,8.028,0,0,1,1.408,1.27S407.213,162.6,405.33,164.606Z" transform="translate(-220.471 -133.17)" fill="#c28569"/>
    <path id="Path_306" data-name="Path 306" d="M410.3,174.241l2.269-3.751a5.02,5.02,0,0,1,.73,1.3A10.084,10.084,0,0,0,410.3,174.241Z" transform="translate(-221.815 -136.113)" fill="#c28569"/>
    <path id="Path_307" data-name="Path 307" d="M200.245,181.428s-7.764-2.985-10.625,4.378c0,0,4.656-5.6,12.456,1.693Z" transform="translate(-162.168 -138.908)" fill="#733e39"/>
    <path id="Path_308" data-name="Path 308" d="M230.82,222.463s5.444,6.29,11.427,1.153c0,0-6.75,2.751-10.216-7.355Z" transform="translate(-173.303 -148.484)" fill="#733e39"/>
  </g>
  <g id="girl" transform="translate(567.219 100.843)">
    <ellipse id="Ellipse_28" data-name="Ellipse 28" cx="16.944" cy="20.512" rx="16.944" ry="20.512" transform="translate(208.888 58.972)" fill="#181425"/>
    <path id="Path_309" data-name="Path 309" d="M1030.712,152.58s-31.341,9-17.068,48.467c12.865,35.6-13.624,50.759-13.624,50.759l39.974-14.273,6.407-39.726Z" transform="translate(-837.512 -142.083)" fill="#181425"/>
    <path id="Path_310" data-name="Path 310" d="M1051.971,240.84,1049.3,256.4h16.419l-1.948-15.565Z" transform="translate(-850.832 -165.939)" fill="#733e39"/>
    <path id="Path_311" data-name="Path 311" d="M1052,242.505l-1.6,9.326s4.378-8.757,13.667-10.661Z" transform="translate(-851.129 -166.028)" fill="#3e2731"/>
    <path id="Path_312" data-name="Path 312" d="M1077.985,194.476c-1.029,16.783-16.842,27.729-30.845,27.729-12,0-20.789-14-19.761-30.816s13.186-29.758,27.16-28.9S1079.014,177.656,1077.985,194.476Z" transform="translate(-844.885 -144.75)" fill="#733e39"/>
    <path id="Path_313" data-name="Path 313" d="M1044.509,204.248s-6.3,1.043-7.4-4.59c-.562-2.919,3.247-1.649,5.838-3.284,1.9-1.211,2.138-4.685,2.138-4.685" transform="translate(-847.522 -152.654)" fill="none" stroke="#3e2731" stroke-linecap="round" stroke-miterlimit="10" stroke-width="1"/>
    <path id="Path_314" data-name="Path 314" d="M1075.253,185s-1.948,3.4-4.539,3.079c0,0,2.269-18.323-11.354-19.943s-20.921-12-16.864-21.081,25.781-14.273,39.893,0,19.782,29.349,12.807,47.833,7.625,69.242,7.625,69.242L1081.236,263l-1.766-64.383Z" transform="translate(-848.691 -138.195)" fill="#181425"/>
    <circle id="Ellipse_29" data-name="Ellipse 29" cx="5.028" cy="5.028" r="5.028" transform="translate(224.774 45.669)" fill="#733e39"/>
    <ellipse id="Ellipse_30" data-name="Ellipse 30" cx="27.532" cy="8.757" rx="27.532" ry="8.757" transform="translate(179.649 89.612)" fill="#733e39"/>
    <path id="Path_315" data-name="Path 315" d="M960.871,266.84,811.762,330.164s-5.108,2.021-9.486-1.116c-6.02-4.32-7.83-3.444-7.83-3.444s-3.649,1.642,7.779,7.844l-22.906,7.3a3.233,3.233,0,0,0-1.459.963c-.73.839-1.248,2.021,2.094,1.576,4.619-.62,16.783-3.225,16.783-3.225l-17.513,8.516s-4.743,3.765,1.7,2.671l17.272-6.932L781.778,353.4s-2.919,3.079,1.62,1.78l15.733-7.129-9.428,8.238s-2.269,2.766,1.781.978,16.156-7.7,33.107-18.622,133.158-50.387,133.158-50.387S969.789,275.575,960.871,266.84Z" transform="translate(-777.319 -172.966)" fill="#733e39"/>
    <path id="Path_316" data-name="Path 316" d="M1094.426,268l100.525,124.584s3.532,4.21,8.873,3.525c7.341-.941,8.523.693,8.523.693s2.43,3.174-10.573,3.2l16.856,17.893a3.183,3.183,0,0,1,.832,1.547c.233,1.08.139,2.372-2.591.394-3.765-2.744-13.222-10.814-13.222-10.814L1215,424.83s2.386,5.575-2.766,1.547l-11.9-14.31,10.128,15.8s1.1,4.094-2.277.8l-10.442-13.755,4.378,11.734s.686,3.51-2.036,0-10.552-14.456-20.264-32.107S1086.618,286.9,1086.618,286.9,1082.429,271.444,1094.426,268Z" transform="translate(-860.727 -173.28)" fill="#733e39"/>
    <ellipse id="Ellipse_31" data-name="Ellipse 31" cx="19.826" cy="12.405" rx="19.826" ry="12.405" transform="translate(188.128 94.72)" fill="#733e39"/>
    <path id="Path_317" data-name="Path 317" d="M976.9,604.914s-9.027,71.1-10.464,110.143a6.833,6.833,0,0,1-3.182,4.743c-5.933,3.393-24.285,6.9-34.6,10.7-13.733,5.108,41.324,5.553,51.649,1.7a10.077,10.077,0,0,0-.569-9.727c-4.823-8.151,4.152-39.718,10.785-61.456,4.772-15.623,9.866-31.378,10.7-47.672.387-7.552,2.189-15.871-1.62-20.271C991.654,583.832,980.81,595.3,976.9,604.914Z" transform="translate(-817.631 -260.223)" fill="#733e39"/>
    <path id="Path_318" data-name="Path 318" d="M1102.079,609.584s9.019,71.11,10.457,110.15a6.847,6.847,0,0,0,3.182,4.743c5.933,3.386,23.212,9.486,33.567,13.31,13.74,5.108-40.251,2.919-50.576-.9a10.092,10.092,0,0,1,.569-9.734c4.823-8.144-4.152-39.718-10.785-61.456-4.772-15.623-9.866-31.378-10.7-47.672-.387-7.552-2.189-15.871,1.62-20.271C1087.317,588.5,1098.168,599.966,1102.079,609.584Z" transform="translate(-858.325 -261.485)" fill="#733e39"/>
    <path id="Path_319" data-name="Path 319" d="M1105.4,780.76s-.635,3.831.9,6.509,47.1,9.37,52.7,3.152c4.9-5.429-13.259-6.633-17.783-8.027,0,0,2.919,1.065,5.174,2.065,2.131.941,2.189,1.883-1.4,1.883C1137.7,786.35,1136.772,785.073,1105.4,780.76Z" transform="translate(-865.961 -311.872)" fill="#be4a2f"/>
    <path id="Path_320" data-name="Path 320" d="M936.46,507.848s24.329-20.49,36.974-80.786,30.451-161.113,30.451-161.113a24.162,24.162,0,0,1,2.8-1.3,21.05,21.05,0,0,1,3.693-1.073s-2.408,15.492,6.348,21.76,19.25.73,19.25.73,8.866-3.554,8.866-22.526c0,0,3.554.919,4.743,1.357,1.022.372,4.116,1.861,4.116,1.861s23.84,184.136,55.458,268.052c0,0-27.08-12.245-52.379-12.566-12.011-.161-24.321,1.883-33.932,4.072a104.349,104.349,0,0,1-56.808-2.664C955.827,520.136,945.195,515.1,936.46,507.848Z" transform="translate(-820.333 -172.074)" fill="#feae34"/>
    <path id="Path_321" data-name="Path 321" d="M1041.631,169.727s-4.2,6.808-14.178,13.945S1039.442,151.652,1041.631,169.727Z" transform="translate(-844.228 -145.416)" fill="#181425"/>
    <ellipse id="Ellipse_32" data-name="Ellipse 32" cx="2.824" cy="1.7" rx="2.824" ry="1.7" transform="translate(205.722 42.979) rotate(-77.1)" fill="#3e2731"/>
    <ellipse id="Ellipse_33" data-name="Ellipse 33" cx="2.824" cy="1.7" rx="2.824" ry="1.7" transform="matrix(0.137, -0.991, 0.991, 0.137, 187.677, 42.117)" fill="#3e2731"/>
    <path id="Path_322" data-name="Path 322" d="M1043,218.427l-.65-1.54s9.486,1.781,15.163-3.327c0,0,2.189,1.948,0,5.108S1044.948,220.127,1043,218.427Z" transform="translate(-848.953 -158.565)" fill="#f5f5f5"/>
    <path id="Path_323" data-name="Path 323" d="M1058.58,185.272s4.86-2.43,7.859,1.3" transform="translate(-853.34 -150.709)" fill="none" stroke="#181425" stroke-linecap="round" stroke-miterlimit="10" stroke-width="1"/>
    <path id="Path_324" data-name="Path 324" d="M1035.13,184.151s3.568-2.058,6.246,0" transform="translate(-847.002 -150.369)" fill="none" stroke="#181425" stroke-linecap="round" stroke-miterlimit="10" stroke-width="1"/>
    <circle id="Ellipse_34" data-name="Ellipse 34" cx="0.489" cy="0.489" r="0.489" transform="translate(213.099 50.536)" fill="#3e2731"/>
    <circle id="Ellipse_35" data-name="Ellipse 35" cx="0.489" cy="0.489" r="0.489" transform="translate(216.857 54.513)" fill="#3e2731"/>
    <circle id="Ellipse_36" data-name="Ellipse 36" cx="0.489" cy="0.489" r="0.489" transform="translate(218.615 50.281)" fill="#3e2731"/>
    <path id="Path_325" data-name="Path 325" d="M1017.684,223s4.327,16.783-6.254,31.144C1011.452,254.137,1024.806,240.126,1017.684,223Z" transform="translate(-840.596 -161.117)" fill="#181425"/>
    <path id="Path_326" data-name="Path 326" d="M1048.35,220.08a14.2,14.2,0,0,0,6.859-.54,27.218,27.218,0,0,1-6.859.54Z" transform="translate(-850.575 -160.182)" fill="#c6c6c6"/>
    <path id="Path_327" data-name="Path 327" d="M1055.68,220.608a3.48,3.48,0,0,1-.46-1.788,8.963,8.963,0,0,1,.46,1.788Z" transform="translate(-852.432 -159.987)" fill="#c6c6c6"/>
    <ellipse id="Ellipse_37" data-name="Ellipse 37" cx="0.321" cy="0.489" rx="0.321" ry="0.489" transform="translate(184.808 51.755)" fill="#3e2731"/>
    <ellipse id="Ellipse_38" data-name="Ellipse 38" cx="0.321" cy="0.489" rx="0.321" ry="0.489" transform="translate(186.953 54.696)" fill="#3e2731"/>
    <ellipse id="Ellipse_39" data-name="Ellipse 39" cx="0.321" cy="0.489" rx="0.321" ry="0.489" transform="translate(187.778 50.281)" fill="#3e2731"/>
    <path id="Path_328" data-name="Path 328" d="M980.931,776.09s.635,3.831-.9,6.5-48.161,6.764-53.765.547c-4.9-5.429,13.959-5.67,18.491-7.049,0,0-3.357.9-5.706,1.664-2.007.642-2.247,2.269,1.372,2.269C947.744,780.023,949.568,780.4,980.931,776.09Z" transform="translate(-817.358 -310.61)" fill="#be4a2f"/>
  </g>
</svg>
