<svg xmlns="http://www.w3.org/2000/svg" xmlns:xlink="http://www.w3.org/1999/xlink" viewBox="0 0 1221.03 947.43"><defs><style>.cls-1,.cls-30{fill:#0099db;}.cls-1,.cls-25,.cls-26,.cls-27,.cls-28,.cls-29{opacity:0.5;}.cls-2{fill:#a22633;}.cls-3{fill:#733e39;}.cls-4{fill:#8b9bb4;}.cls-5{fill:#5a6988;}.cls-6{fill:#3a4466;}.cls-7{fill:#e8b796;}.cls-8{fill:#265c42;}.cls-9{fill:#c28569;}.cls-10{fill:#be4a2f;}.cls-11{fill:#3e2731;}.cls-12,.cls-13,.cls-19,.cls-22{fill:none;stroke-linecap:round;stroke-miterlimit:10;}.cls-12{stroke:#c28569;stroke-width:0.81px;}.cls-13{stroke:#be4a2f;stroke-width:1.62px;}.cls-14{fill:url(#linear-gradient);}.cls-15{fill:#193c3e;}.cls-16{fill:#c0cbdc;}.cls-17{fill:#acb9cc;}.cls-18{fill:#181425;}.cls-19{stroke:#3e2731;}.cls-20{fill:#fee761;}.cls-21{fill:#f5f5f5;}.cls-22{stroke:#181425;}.cls-23{fill:#735f4b;opacity:0.4;}.cls-24{fill:#c6c6c6;}.cls-25{fill:#2ce8f5;}.cls-26{fill:#124e89;}.cls-27{fill:#b55088;}.cls-28{fill:#63c74d;}.cls-29{fill:#f6757a;}.cls-30{opacity:0.31;}</style><linearGradient id="linear-gradient" x1="450.86" y1="293.56" x2="456.34" y2="299.38" gradientUnits="userSpaceOnUse"><stop offset="0" stop-color="#c28569"/><stop offset="1" stop-color="#e8b796"/></linearGradient></defs><g id="Layer_2" data-name="Layer 2"><g id="Layer_1-2" data-name="Layer 1"><circle class="cls-1" cx="701.92" cy="460.97" r="287.05"/><g id="Guy"><path class="cls-2" d="M172.32,66.05l-1.57-16.24s7.79-11.06,16.65.58l3.65,12.68Z"/><path class="cls-3" d="M130.15,8.74S159,6.62,198.88,38.79c0,0-2.37,13.61-13,15.39S148.31,57.28,130.15,8.74Z"/><path class="cls-4" d="M331.22,236.26s.54-27.06-44.38-42.21S198.63,57.66,198.63,57.66a36.46,36.46,0,0,0-32.48,10.28c-14.61,14.62,75.23,182.39,75.23,182.39l51.42,22.85Z"/><path class="cls-3" d="M0,154.36s13.17-57,44.38-64.05c0,0,11.91,2.89,16.78,24.54C61.16,114.85,29.41,160.13,0,154.36Z"/><path class="cls-2" d="M57.73,137.36l-10.73-9a7.39,7.39,0,0,1-2.64-6c.23-4.19,2-10.19,10-10.29a11.2,11.2,0,0,1,5.86,1.59l10.91,6.52Z"/><path class="cls-4" d="M298.93,248s-38.61-45.82-78.12-42.58S80.64,114,80.64,114,54.12,115,53,143.17s146.13,142.34,202.41,151"/><polygon class="cls-4" points="568.24 475.53 546.18 477.78 544.9 475.87 566.48 473.96 568.24 475.53"/><polygon class="cls-5" points="542.3 515.8 541.17 513.77 544.9 475.87 546.18 477.78 542.3 515.8"/><polygon class="cls-6" points="568.24 475.53 546.18 477.78 542.3 515.8 564.22 511.2 568.24 475.53"/><path class="cls-7" d="M409.7,398.63S419,457.29,512.76,516.42A34.88,34.88,0,0,0,531,521.8c10.1.1,25.16-1.6,35.85-11,0,0,4.33-5.78,1.26-5.78,0,0,6-6.67-1.26-6.31,0,0-6.85,7-14.79,8.48,0,0,9-5.23,10.28-8.48s-2.53-2.53-2.53-2.53-14.43,9.57-20.56,5.6c0,0,4.69-3.79,3.43-8.84s-4.51-3.25-4.51-3.25-2.53,12.81-12.45,11.37-64.59-45.29-87-97.42Z"/><path class="cls-7" d="M541.82,294.17s72.46,9.2,116.84,43.3c0,0,25.7,6.22,33,28.95,0,0,1,3.52-1.22,3.12,0,0,1.76,8.38-2.7,4.19,0,0,1.76,7.71-3.79,2.71,0,0,2.7,8.79-2.44,3.78S670.83,365.75,659.74,358c0,0,5.82,10.29.68,12.05,0,0-8-8.53-10.83-18.81s-69.82-34.77-112.84-35.72Z"/><path class="cls-8" d="M255.45,294.17s23.27-60.07,80.1-62.78c0,0,42.54,31.62,118.69,41.79l25.27,27.29s3.19,29.69-33.73,53.24c0,0-5.31,30.66,3,49.43,0,0-23.36,13.35-48.25,4.15,0,0-7.76-10.29-7.83-45C392.67,362.32,338.26,353.71,255.45,294.17Z"/><path class="cls-8" d="M520.11,323.67,535.53,331S545.27,307.43,545,288l-16-4.87Z"/><ellipse class="cls-7" cx="449.55" cy="320.84" rx="17.19" ry="16" transform="translate(-79.92 163.69) rotate(-18.98)"/><path class="cls-7" d="M468,330a12,12,0,0,0-12.91,1.49c-12.52,10.36-22.81-24.18-5.35-21.92,8.59,1.11,11.63-2.26,11.63-2.26Z"/><path class="cls-9" d="M455.74,331s-1.83-11.74,3.45-17.56,4.17,15.36,4.17,15.36S460.74,328.07,455.74,331Z"/><ellipse class="cls-7" cx="491.69" cy="303.1" rx="34.91" ry="48.17"/><path class="cls-10" d="M467.88,305.81l3.92-17.19-7.44-8.79s16.87,18.27,50.69,19.89,26-43.25,26-43.25l-9.48,3.81s5.87-5.89,4-12.65c0,0-8.12,7-21.38,2.7s-35.72-20.83-55.74,2.17c0,0-23.27,14.88-11.91,38.42S459.35,293,459.35,293l1.09,1,1.76,8.33Z"/><path class="cls-10" d="M489.48,293.47s16.24,4.87,23.81,18c0,0-1.62-15-17-20.21S489.48,293.47,489.48,293.47Z"/><ellipse class="cls-7" cx="456.06" cy="299.72" rx="7.31" ry="9.14"/><path class="cls-10" d="M459.76,257.1s-5.44-11.91-16.39-6.5c0,0,9.08-9.58,24.51-1.41S468.16,264.69,459.76,257.1Z"/><ellipse class="cls-11" cx="494.56" cy="317.08" rx="5.05" ry="2.28" transform="translate(155.02 796.5) rotate(-87.36)"/><ellipse class="cls-11" cx="520.04" cy="313.05" rx="4.21" ry="1.9" transform="translate(183.36 818.11) rotate(-87.36)"/><path class="cls-12" d="M502.25,344s-8.8,1.27-11.91-4.28"/><path class="cls-13" d="M487.84,309.19c-.21,0,4.67-5.16,12.38-.33"/><path class="cls-13" d="M516.39,307.09s4.38-3.42,7.43-.49"/><path class="cls-10" d="M489.53,241.94s15.54,6.77,29.83,1.62c0,0-10.92,10.38-26,4.46S489.53,241.94,489.53,241.94Z"/><path class="cls-11" d="M198.72,39.14c-2.4,5.18-19.86,2.8-38.51-6.4-10-4.94-32.43-21.1-30-25.55C132.87,2.32,150,5.27,168.88,14S201.11,34,198.72,39.14Z"/><path class="cls-14" d="M451.64,300.47s-.07-6.77,6.09-6.43S453.27,310.76,451.64,300.47Z"/><path class="cls-15" d="M392.67,362.32s-.11-16,2.42-23.77-34.24,14.26-34.24,14.26S377,359.5,392.67,362.32Z"/><polygon class="cls-4" points="637.41 478.93 562.74 445.36 563.2 441.24 637.88 474.81 637.41 478.93"/><polygon class="cls-5" points="704.9 428.92 637.88 474.81 637.41 478.93 704.44 433.04 704.9 428.92"/><polygon class="cls-16" points="634.41 401.81 563.2 441.24 637.88 474.81 704.9 428.92 634.41 401.81"/><polygon class="cls-17" points="652.39 411.75 588.63 449.2 638.15 471.39 689.74 425.18 652.39 411.75"/><path class="cls-4" d="M738.93,374.35l-69.17,44.14a17.82,17.82,0,0,0-6.91,8l-26.59,48.13,1.53,1,65.49-46.87,39.2-51.87C743.2,375.5,740.25,373.53,738.93,374.35Z"/><path class="cls-5" d="M740.45,375.34l-69.17,44.13a17.9,17.9,0,0,0-6.91,8l-26.58,48.12,67-45.89,37.79-52.39A1.52,1.52,0,0,0,740.45,375.34Z"/><circle class="cls-16" cx="564.47" cy="479.59" r="1.27"/><path class="cls-12" d="M512.41,324.17s5.31,2.47,2.84,7.56c-2.66,5.47-8,2.52-8,2.52"/></g><g id="Girl"><ellipse class="cls-18" cx="1109.59" cy="469.29" rx="28.11" ry="23.22" transform="translate(-1.1 935.98) rotate(-45.72)"/><path class="cls-18" d="M1143.59,370.39s-39.36-21.16-63.13,31.22c-21.43,47.23-61.93,36.76-61.93,36.76l52.87,24.25,44.3-32.85Z"/><polygon class="cls-3" points="1089.76 441.17 1072.24 453.88 1088.35 469.6 1101.33 452.46 1089.76 441.17"/><path class="cls-11" d="M1088,442.46l-10.5,7.62s12.73-4.4,23.62,2.62Z"/><path class="cls-3" d="M1145.2,447.05c-17.1,15.52-43,11.08-56.79-2.31-11.77-11.48-7-33.62,10.1-49.14s41.41-16.57,54.3-2.37S1162.3,431.54,1145.2,447.05Z"/><path class="cls-18" d="M1141.58,437.93s-5.17,1.48-7.41-1.32c0,0,19.76-15.8,7.95-30.43s-9-31.79,3.63-36.82,38.94,10.67,39.13,38.17-8.67,47.73-33.2,59.19-58.78,75.22-58.78,75.22l-20.07-21.75,59.85-64.86Z"/><circle class="cls-3" cx="1141.03" cy="444.85" r="6.89"/><path class="cls-19" d="M1106.57,413.78s-6.1-6.27-.62-11.92c2.81-2.89,4.39,2.36,8.25,4,2.85,1.2,6.94-1.26,6.94-1.26"/><ellipse class="cls-3" cx="1073.22" cy="469.98" rx="12" ry="37.73" transform="translate(-12.57 910.15) rotate(-45.72)"/><path class="cls-3" d="M1054.35,443,847.47,362.41s-7-2.9-8.23-10.17c-1.77-10-4.39-10.87-4.39-10.87s-5.15-1.88.13,15.14l-29.45-14.77a4.4,4.4,0,0,0-2.37-.45c-1.5.13-3.16.78.55,3.54,5.12,3.81,19.54,12.89,19.54,12.89l-25.32-8.4s-8.27-.84-.89,4.25l23.57,9.72-24.8-6.8s-5.81.23-.11,3.3L818,367.85l-17.14-.94s-4.87.54.82,2.67,23.21,7.9,50.29,13.4,178.85,78,178.85,78S1054.74,460.06,1054.35,443Z"/><path class="cls-3" d="M1100.35,487.31l96.16,197.18s3.43,6.71,10.77,7.43c10.1,1,11.18,3.53,11.18,3.53s2.27,5-15.11,1l17,29a4.38,4.38,0,0,1,.64,2.33c0,1.51-.54,3.21-3.57-.27-4.2-4.82-14.36-18.49-14.36-18.49l10.33,24.6s1.48,8.17-4.17,1.22l-11.52-22.76,8.7,24.2s.22,5.81-3.28.37l-9.75-21.57,2.25,17s-.16,4.9-2.72-.61-9.67-22.53-17.24-49.11-91.56-172.29-91.56-172.29S1083.27,488.24,1100.35,487.31Z"/><ellipse class="cls-3" cx="1065.6" cy="479.31" rx="17" ry="27.17" transform="translate(-21.54 907.51) rotate(-45.72)"/><path class="cls-3" d="M734.28,626a28.54,28.54,0,0,0-3.6,5.93C725.52,646.52,697.36,727,685.26,774c-.51,2-3.08,4.61-5.65,5.42-8.93,2.8-34.53,2.12-49.45,4.2-19.88,2.77,53.69,19.52,68.64,17.39a13.83,13.83,0,0,0,2.09-13.19c-4.07-12.32,17.18-52,32.42-79.12,11-19.52,22.39-39.1,28.29-60.69,2.72-10,7.54-20.62,3.76-27.62C757.92,606.58,742.91,615,734.28,626Z"/><path class="cls-3" d="M739.43,632.74s19.06-25.87,93.06-7.94C915.59,644.93,753.7,673,739.43,632.74Z"/><path class="cls-3" d="M871.58,773.08S802.2,842.62,761.16,877c-1.57,1.32-1.57,4.89-2.45,7.43-5.67,16.33-3.22,44.56-6.52,59.26-3.89,17.36-20-53.66-20.28-68.93,0,0,1.76-4.87,10.05-5.91,12.87-1.63,39.5-37.89,57.45-63.34,12.89-18.3,25.64-37,42.59-51.66,7.85-6.77,15.36-15.68,23.3-15.29C882,739.39,878.7,760.76,871.58,773.08Z"/><path class="cls-10" d="M743.54,868.2a10.47,10.47,0,0,0-11.38,5.56c-2.36,4.21,3.3,66.75,14.44,73,9.51,5.35,7.53-24.62,7.93-31.44,0,0-.54,7.53-1.22,11.07-.64,3.33-1.78,3.61-3.18-1.37C747.32,915,748.93,913.19,743.54,868.2Z"/><path class="cls-20" d="M749.6,598.06s52.89,6.23,120.71-26.17c76.18-36.4,184-128.93,184-128.93a34.37,34.37,0,0,1,4,1.4,28.71,28.71,0,0,1,4.65,2.49s-17.19,12.89-14.59,27.42,18.15,19.17,18.15,19.17,12.09,5,30.25-13.62c0,0,2.6,4.31,3.36,5.87.64,1.35,2.25,5.77,2.25,5.77s-152.8,203.45-202.07,316c0,0-14.85-37.92-39.36-62.44-11.64-11.65-25.67-21.42-37.19-28.48a142.9,142.9,0,0,1-53.14-57C764,646.33,751.23,613.54,749.6,598.06Z"/><path class="cls-18" d="M1134.5,388s-10.65,2.65-27.26.1S1149.64,368.13,1134.5,388Z"/><ellipse class="cls-11" cx="1129.32" cy="414.12" rx="3.87" ry="2.33" transform="translate(-44.21 678.1) rotate(-32.82)"/><ellipse class="cls-11" cx="1112.41" cy="395.59" rx="3.87" ry="2.33" transform="translate(-8.6 766.11) rotate(-37.87)"/><path class="cls-21" d="M1097.19,419.63l.84-2.13s7.6,10.82,18,11.24c0,0,.29,4-4.89,5S1097.47,423.16,1097.19,419.63Z"/><path class="cls-22" d="M1132.37,405.52s7.1,2.27,6.47,8.8"/><path class="cls-22" d="M1116.33,388.38s5.47,1.4,6.13,6"/><circle class="cls-23" cx="1124.81" cy="429.66" r="0.67"/><circle class="cls-23" cx="1124.7" cy="437.16" r="0.67"/><circle class="cls-23" cx="1130.46" cy="434.68" r="0.67"/><path class="cls-18" d="M1078.64,405.4S1066.82,426,1042.71,430C1042.71,430,1069.21,429,1078.64,405.4Z"/><path class="cls-24" d="M1100.81,423.24a19.42,19.42,0,0,0,7.24,6A37.44,37.44,0,0,1,1100.81,423.24Z"/><path class="cls-24" d="M1105.49,429.18a4.78,4.78,0,0,1,1.25-2.19A12.27,12.27,0,0,1,1105.49,429.18Z"/><ellipse class="cls-23" cx="1095.72" cy="403.62" rx="0.67" ry="0.44" transform="translate(41.73 906.23) rotate(-45.72)"/><ellipse class="cls-23" cx="1095.02" cy="408.56" rx="0.67" ry="0.44" transform="translate(37.98 907.22) rotate(-45.72)"/><ellipse class="cls-23" cx="1100.05" cy="405.02" rx="0.67" ry="0.44" transform="translate(42.03 909.75) rotate(-45.72)"/><path class="cls-10" d="M701.92,792.54s-.27,5.31-3.12,8.44-66.46-5.05-72.14-15c-5-8.71,20.35-3.51,26.82-4,0,0-4.76.22-8.13.55-2.88.28-3.67,2.38,1.18,3.44C656.3,788.08,658.66,789.13,701.92,792.54Z"/><rect class="cls-6" x="808.61" y="335.87" width="24" height="47.43" rx="2.73" transform="translate(1641.22 719.17) rotate(-180)"/><rect class="cls-16" x="810.11" y="337.36" width="21" height="44.44" rx="1.96" transform="translate(1641.22 719.17) rotate(-180)"/></g><circle class="cls-25" cx="935.77" cy="81.79" r="70.03"/><circle class="cls-26" cx="1042.71" cy="160.99" r="105.44"/><rect class="cls-27" x="108.77" y="397.03" width="127.87" height="127.87"/><rect class="cls-28" x="347.58" y="683.36" width="47.63" height="47.63"/><rect class="cls-29" x="468.37" width="204.06" height="204.06"/><circle class="cls-30" cx="1018.53" cy="818.81" r="36.14"/></g></g></svg>