<svg id="projectManager" xmlns="http://www.w3.org/2000/svg" width="641.76" height="511.785" viewBox="0 0 641.76 511.785">
  <rect id="bg" width="641.76" height="511.785" rx="11.32" fill="#fff"/>
  <path id="sideBlue" d="M8.718,0H213.432V511.785H8.718A8.718,8.718,0,0,1,0,503.066V8.718A8.718,8.718,0,0,1,8.718,0Z" fill="#124e89"/>
  <g id="blueText" transform="translate(20.938 437.971)">
    <rect id="Rectangle_157" data-name="Rectangle 157" width="33.419" height="11.044" rx="3.27" transform="translate(78.617 27.286)" fill="#0099db"/>
    <rect id="Rectangle_158" data-name="Rectangle 158" width="53.971" height="11.044" rx="3.27" transform="translate(117.621 27.286)" fill="#0099db"/>
    <rect id="Rectangle_159" data-name="Rectangle 159" width="97.374" height="11.044" rx="3.27" transform="translate(0 43.888)" fill="#0099db"/>
    <rect id="Rectangle_160" data-name="Rectangle 160" width="73.131" height="11.044" rx="3.27" transform="translate(0 27.286)" fill="#0099db"/>
    <rect id="Rectangle_161" data-name="Rectangle 161" width="97.374" height="19.978" rx="3.27" fill="#0099db"/>
  </g>
  <g id="box4" transform="translate(230.959 392.117)">
    <g id="box-3">
      <rect id="Rectangle_162" data-name="Rectangle 162" width="394.02" height="95.264" rx="3.78" fill="#ebedf2" stroke="#ebedf2" stroke-miterlimit="10" stroke-width="1"/>
      <rect id="Rectangle_163" data-name="Rectangle 163" width="111.982" height="16.476" rx="3.27" transform="translate(100.247 24.548)" fill="#c0cbdc"/>
      <rect id="Rectangle_164" data-name="Rectangle 164" width="56.979" height="56.979" rx="4.38" transform="translate(24.251 19.143)" fill="#c0cbdc"/>
      <rect id="Rectangle_165" data-name="Rectangle 165" width="79.12" height="9.455" rx="2.22" transform="translate(100.247 46.869)" fill="#c0cbdc"/>
      <rect id="Rectangle_166" data-name="Rectangle 166" width="73.033" height="9.455" rx="2.22" transform="translate(186.748 46.869)" fill="#c0cbdc"/>
      <rect id="Rectangle_167" data-name="Rectangle 167" width="43.053" height="9.455" rx="2.22" transform="translate(266.344 46.869)" fill="#c0cbdc"/>
      <rect id="Rectangle_168" data-name="Rectangle 168" width="63.713" height="9.455" rx="2.22" transform="translate(212.22 61.262)" fill="#c0cbdc"/>
      <rect id="Rectangle_169" data-name="Rectangle 169" width="43.053" height="9.455" rx="2.22" transform="translate(162.613 61.262)" fill="#c0cbdc"/>
      <rect id="Rectangle_170" data-name="Rectangle 170" width="55.883" height="9.455" rx="2.22" transform="translate(100.247 61.262)" fill="#c0cbdc"/>
      <circle id="Ellipse_40" data-name="Ellipse 40" cx="18.263" cy="18.263" r="18.263" transform="translate(337.967 29.369)" fill="#c0cbdc"/>
      <line id="Line_60" data-name="Line 60" x2="6.034" y2="6.034" transform="translate(347.125 47.811)" fill="none" stroke="#fff" stroke-linecap="round" stroke-miterlimit="10" stroke-width="4.95"/>
      <line id="Line_61" data-name="Line 61" y1="11.762" x2="11.771" transform="translate(353.563 42.487)" fill="none" stroke="#fff" stroke-linecap="round" stroke-miterlimit="10" stroke-width="4.95"/>
    </g>
  </g>
  <g id="box3" transform="translate(230.959 281.347)">
    <g id="box-3-2" data-name="box-3">
      <rect id="Rectangle_171" data-name="Rectangle 171" width="394.02" height="95.264" rx="3.78" fill="#ebedf2" stroke="#ebedf2" stroke-miterlimit="10" stroke-width="1"/>
      <rect id="Rectangle_172" data-name="Rectangle 172" width="111.982" height="16.476" rx="3.27" transform="translate(100.247 24.548)" fill="#c0cbdc"/>
      <rect id="Rectangle_173" data-name="Rectangle 173" width="56.979" height="56.979" rx="4.38" transform="translate(24.251 19.143)" fill="#c0cbdc"/>
      <rect id="Rectangle_174" data-name="Rectangle 174" width="79.12" height="9.455" rx="2.22" transform="translate(100.247 46.869)" fill="#c0cbdc"/>
      <rect id="Rectangle_175" data-name="Rectangle 175" width="73.033" height="9.455" rx="2.22" transform="translate(186.748 46.869)" fill="#c0cbdc"/>
      <rect id="Rectangle_176" data-name="Rectangle 176" width="43.053" height="9.455" rx="2.22" transform="translate(266.344 46.869)" fill="#c0cbdc"/>
      <rect id="Rectangle_177" data-name="Rectangle 177" width="63.713" height="9.455" rx="2.22" transform="translate(212.22 61.261)" fill="#c0cbdc"/>
      <rect id="Rectangle_178" data-name="Rectangle 178" width="43.053" height="9.455" rx="2.22" transform="translate(162.613 61.261)" fill="#c0cbdc"/>
      <rect id="Rectangle_179" data-name="Rectangle 179" width="55.883" height="9.455" rx="2.22" transform="translate(100.247 61.261)" fill="#c0cbdc"/>
      <circle id="Ellipse_41" data-name="Ellipse 41" cx="18.263" cy="18.263" r="18.263" transform="translate(337.967 29.369)" fill="#c0cbdc"/>
      <line id="Line_62" data-name="Line 62" x2="6.034" y2="6.025" transform="translate(347.125 47.82)" fill="none" stroke="#fff" stroke-linecap="round" stroke-miterlimit="10" stroke-width="4.95"/>
      <line id="Line_63" data-name="Line 63" y1="11.771" x2="11.771" transform="translate(353.563 42.487)" fill="none" stroke="#fff" stroke-linecap="round" stroke-miterlimit="10" stroke-width="4.95"/>
    </g>
  </g>
  <g id="box2" transform="translate(230.537 170.379)">
    <g id="box-2">
      <rect id="Rectangle_180" data-name="Rectangle 180" width="394.02" height="95.264" rx="3.78" fill="#ebedf2" stroke="#ebedf2" stroke-miterlimit="10" stroke-width="1"/>
      <rect id="Rectangle_181" data-name="Rectangle 181" width="111.982" height="16.476" rx="3.27" transform="translate(100.238 24.557)" fill="#c0cbdc"/>
      <rect id="Rectangle_182" data-name="Rectangle 182" width="56.979" height="56.979" rx="4.38" transform="translate(24.251 19.143)" fill="#c0cbdc"/>
      <rect id="Rectangle_183" data-name="Rectangle 183" width="79.12" height="9.455" rx="2.22" transform="translate(100.238 46.869)" fill="#c0cbdc"/>
      <rect id="Rectangle_184" data-name="Rectangle 184" width="73.033" height="9.455" rx="2.22" transform="translate(186.747 46.869)" fill="#c0cbdc"/>
      <rect id="Rectangle_185" data-name="Rectangle 185" width="43.053" height="9.455" rx="2.22" transform="translate(266.344 46.869)" fill="#c0cbdc"/>
      <rect id="Rectangle_186" data-name="Rectangle 186" width="63.713" height="9.455" rx="2.22" transform="translate(212.22 61.261)" fill="#c0cbdc"/>
      <rect id="Rectangle_187" data-name="Rectangle 187" width="43.053" height="9.455" rx="2.22" transform="translate(162.613 61.261)" fill="#c0cbdc"/>
      <rect id="Rectangle_188" data-name="Rectangle 188" width="55.883" height="9.455" rx="2.22" transform="translate(100.238 61.261)" fill="#c0cbdc"/>
      <circle id="Ellipse_42" data-name="Ellipse 42" cx="18.263" cy="18.263" r="18.263" transform="translate(337.966 29.369)" fill="#c0cbdc"/>
      <line id="Line_64" data-name="Line 64" x2="6.034" y2="6.025" transform="translate(347.125 47.82)" fill="none" stroke="#fff" stroke-linecap="round" stroke-miterlimit="10" stroke-width="4.95"/>
      <line id="Line_65" data-name="Line 65" y1="11.771" x2="11.762" transform="translate(353.562 42.487)" fill="none" stroke="#fff" stroke-linecap="round" stroke-miterlimit="10" stroke-width="4.95"/>
    </g>
  </g>
  <g id="box1" transform="translate(230.537 60.471)">
    <g id="box-1">
      <rect id="Rectangle_189" data-name="Rectangle 189" width="394.02" height="95.264" rx="3.78" fill="#ebedf2" stroke="#ebedf2" stroke-miterlimit="10" stroke-width="1"/>
      <rect id="Rectangle_190" data-name="Rectangle 190" width="141.028" height="16.476" rx="3.27" transform="translate(100.238 24.548)" fill="#c0cbdc"/>
      <rect id="Rectangle_191" data-name="Rectangle 191" width="56.979" height="56.979" rx="4.38" transform="translate(24.251 19.142)" fill="#c0cbdc"/>
      <rect id="Rectangle_192" data-name="Rectangle 192" width="96.853" height="9.455" rx="2.22" transform="translate(100.238 46.869)" fill="#c0cbdc"/>
      <rect id="Rectangle_193" data-name="Rectangle 193" width="55.883" height="9.455" rx="2.22" transform="translate(203.897 46.869)" fill="#c0cbdc"/>
      <rect id="Rectangle_194" data-name="Rectangle 194" width="43.053" height="9.455" rx="2.22" transform="translate(266.344 46.869)" fill="#c0cbdc"/>
      <rect id="Rectangle_195" data-name="Rectangle 195" width="89.275" height="9.455" rx="2.22" transform="translate(212.22 61.261)" fill="#c0cbdc"/>
      <rect id="Rectangle_196" data-name="Rectangle 196" width="43.053" height="9.455" rx="2.22" transform="translate(162.613 61.261)" fill="#c0cbdc"/>
      <rect id="Rectangle_197" data-name="Rectangle 197" width="55.883" height="9.455" rx="2.22" transform="translate(100.238 61.261)" fill="#c0cbdc"/>
      <circle id="Ellipse_43" data-name="Ellipse 43" cx="18.263" cy="18.263" r="18.263" transform="translate(337.966 29.369)" fill="#c0cbdc"/>
      <line id="Line_66" data-name="Line 66" x2="6.034" y2="6.025" transform="translate(347.125 47.82)" fill="none" stroke="#fff" stroke-linecap="round" stroke-miterlimit="10" stroke-width="4.95"/>
      <line id="Line_67" data-name="Line 67" y1="11.771" x2="11.762" transform="translate(353.562 42.487)" fill="none" stroke="#fff" stroke-linecap="round" stroke-miterlimit="10" stroke-width="4.95"/>
    </g>
  </g>
  <g id="projectsForRebecca" transform="translate(244.92 23.601)">
    <path id="Path_329" data-name="Path 329" d="M275,35.316v4.741H272.78V27.289h4.884a4.911,4.911,0,0,1,3.394,1.113,3.726,3.726,0,0,1,1.257,2.945,3.591,3.591,0,0,1-1.257,2.927,5.181,5.181,0,0,1-3.448,1.042Zm0-1.8h2.694a2.631,2.631,0,0,0,1.8-.557,2.047,2.047,0,0,0,.62-1.607,2.2,2.2,0,0,0-.628-1.652,2.415,2.415,0,0,0-1.733-.637h-2.694Z" transform="translate(-272.78 -26.387)" fill="#c0cbdc"/>
    <path id="Path_330" data-name="Path 330" d="M290.291,32.868a5.386,5.386,0,0,0-.9-.072,1.966,1.966,0,0,0-1.975,1.122V40.41H285.29v-9.49h2.029l.054,1.059a2.4,2.4,0,0,1,2.146-1.239,2,2,0,0,1,.754.126Z" transform="translate(-274.058 -26.74)" fill="#c0cbdc"/>
    <path id="Path_331" data-name="Path 331" d="M291.569,35.579a5.584,5.584,0,0,1,.548-2.514,4.085,4.085,0,0,1,1.553-1.724,4.435,4.435,0,0,1,2.3-.6,4.13,4.13,0,0,1,3.116,1.239,4.857,4.857,0,0,1,1.293,3.277v.5a5.639,5.639,0,0,1-.539,2.505,3.978,3.978,0,0,1-1.535,1.688,4.364,4.364,0,0,1-2.316.6,4.13,4.13,0,0,1-3.214-1.338,5.127,5.127,0,0,1-1.2-3.591Zm2.128.18a3.852,3.852,0,0,0,.6,2.29,2.11,2.11,0,0,0,3.367,0,4.2,4.2,0,0,0,.6-2.46,3.753,3.753,0,0,0-.62-2.281,2.092,2.092,0,0,0-3.34,0A4.2,4.2,0,0,0,293.7,35.759Z" transform="translate(-274.698 -26.74)" fill="#c0cbdc"/>
    <path id="Path_332" data-name="Path 332" d="M305.419,30.53V40.856a3.125,3.125,0,0,1-.718,2.227,2.774,2.774,0,0,1-2.119.763,4.247,4.247,0,0,1-1.131-.144V42.014a3.242,3.242,0,0,0,.754.081c.709,0,1.068-.386,1.086-1.158V30.53Zm-2.308-2.46a1.122,1.122,0,0,1,.305-.817,1.176,1.176,0,0,1,.9-.323,1.194,1.194,0,0,1,.9.323,1.2,1.2,0,0,1,0,1.616,1.194,1.194,0,0,1-.9.323,1.176,1.176,0,0,1-.9-.323A1.113,1.113,0,0,1,303.111,28.07Z" transform="translate(-275.708 -26.351)" fill="#c0cbdc"/>
    <path id="Path_333" data-name="Path 333" d="M312.543,40.58a4.417,4.417,0,0,1-3.286-1.275A4.642,4.642,0,0,1,308,35.911v-.269a5.765,5.765,0,0,1,.548-2.532,4.166,4.166,0,0,1,1.544-1.742,4.067,4.067,0,0,1,2.209-.629,3.7,3.7,0,0,1,2.99,1.239,5.217,5.217,0,0,1,1.06,3.484v.9h-6.2a2.81,2.81,0,0,0,.781,1.859,2.344,2.344,0,0,0,1.733.691,2.864,2.864,0,0,0,2.379-1.185l1.149,1.1a3.807,3.807,0,0,1-1.517,1.32A4.759,4.759,0,0,1,312.543,40.58Zm-.251-8.126a1.8,1.8,0,0,0-1.419.611,3.268,3.268,0,0,0-.691,1.715h4.1v-.162A2.694,2.694,0,0,0,313.71,33,1.8,1.8,0,0,0,312.291,32.454Z" transform="translate(-276.377 -26.74)" fill="#c0cbdc"/>
    <path id="Path_334" data-name="Path 334" d="M322.991,38.883a1.966,1.966,0,0,0,1.329-.467,1.571,1.571,0,0,0,.557-1.149h2.011a3.115,3.115,0,0,1-.557,1.652,3.591,3.591,0,0,1-1.4,1.212,4.112,4.112,0,0,1-1.912.449,4.04,4.04,0,0,1-3.151-1.284A5.109,5.109,0,0,1,318.7,35.7v-.215a5.046,5.046,0,0,1,1.167-3.448,4.013,4.013,0,0,1,3.151-1.3,3.9,3.9,0,0,1,2.756.988,3.592,3.592,0,0,1,1.122,2.595h-2.011a1.939,1.939,0,0,0-.557-1.347A1.8,1.8,0,0,0,323,32.454a1.9,1.9,0,0,0-1.6.745,3.905,3.905,0,0,0-.566,2.281v.341a3.906,3.906,0,0,0,.557,2.3,1.877,1.877,0,0,0,1.6.763Z" transform="translate(-277.469 -26.74)" fill="#c0cbdc"/>
    <path id="Path_335" data-name="Path 335" d="M332.16,28.37v2.308h1.679v1.58H332.16v5.3a1.158,1.158,0,0,0,.215.781,1.006,1.006,0,0,0,.772.242,3.071,3.071,0,0,0,.745-.09v1.652a5.234,5.234,0,0,1-1.41.2q-2.451,0-2.451-2.694V32.258H328.47v-1.58h1.562V28.37Z" transform="translate(-278.468 -26.498)" fill="#c0cbdc"/>
    <path id="Path_336" data-name="Path 336" d="M341.531,37.829a.952.952,0,0,0-.467-.9,5.082,5.082,0,0,0-1.553-.53,8.009,8.009,0,0,1-1.8-.575,2.433,2.433,0,0,1-1.616-2.155,2.523,2.523,0,0,1,1.033-2.056,4.094,4.094,0,0,1,2.631-.826,4.292,4.292,0,0,1,2.747.844,2.694,2.694,0,0,1,1.051,2.182h-2.128a1.3,1.3,0,0,0-.458-1.015,1.724,1.724,0,0,0-1.212-.413,1.868,1.868,0,0,0-1.14.323,1.032,1.032,0,0,0-.449.9.9.9,0,0,0,.413.763,5.953,5.953,0,0,0,1.67.548,7.812,7.812,0,0,1,2.011.548,2.918,2.918,0,0,1,1.06.9,2.334,2.334,0,0,1,.35,1.3,2.487,2.487,0,0,1-1.059,2.074,4.489,4.489,0,0,1-2.783.79,4.956,4.956,0,0,1-2.083-.422,3.43,3.43,0,0,1-1.419-1.158,2.748,2.748,0,0,1-.5-1.58H337.9a1.491,1.491,0,0,0,.575,1.158,2.209,2.209,0,0,0,1.392.4,2.119,2.119,0,0,0,1.275-.314.988.988,0,0,0,.4-.79Z" transform="translate(-279.219 -26.745)" fill="#c0cbdc"/>
    <path id="Path_337" data-name="Path 337" d="M352.236,39.955v-7.91H350.79v-1.58h1.446v-.844a3.25,3.25,0,0,1,.9-2.433,3.367,3.367,0,0,1,2.46-.9,4.876,4.876,0,0,1,1.194.162l-.054,1.661a4.317,4.317,0,0,0-.817-.072,1.374,1.374,0,0,0-1.526,1.571v.844h1.93v1.589h-1.93v7.91Z" transform="translate(-280.747 -26.285)" fill="#c0cbdc"/>
    <path id="Path_338" data-name="Path 338" d="M358.209,35.579a5.585,5.585,0,0,1,.548-2.514,4.085,4.085,0,0,1,1.553-1.724,4.435,4.435,0,0,1,2.3-.6,4.13,4.13,0,0,1,3.116,1.239A4.857,4.857,0,0,1,367,35.256v.5a5.638,5.638,0,0,1-.539,2.505,3.978,3.978,0,0,1-1.517,1.688,4.363,4.363,0,0,1-2.316.6,4.13,4.13,0,0,1-3.214-1.338,5.127,5.127,0,0,1-1.2-3.591Zm2.128.18a3.852,3.852,0,0,0,.6,2.29,2.11,2.11,0,0,0,3.367,0,4.2,4.2,0,0,0,.6-2.46,3.753,3.753,0,0,0-.619-2.281,2.092,2.092,0,0,0-3.34,0A4.2,4.2,0,0,0,360.337,35.759Z" transform="translate(-281.504 -26.74)" fill="#c0cbdc"/>
    <path id="Path_339" data-name="Path 339" d="M375,32.868a5.387,5.387,0,0,0-.9-.072,1.948,1.948,0,0,0-1.966,1.122V40.41H370v-9.49h2.038l.054,1.059a2.4,2.4,0,0,1,2.137-1.239,2,2,0,0,1,.754.126Z" transform="translate(-282.709 -26.74)" fill="#c0cbdc"/>
    <path id="Path_340" data-name="Path 340" d="M386.967,35.109H384.5v4.911H382.28V27.289h4.489a5.253,5.253,0,0,1,3.412.988,3.52,3.52,0,0,1,1.2,2.873,3.591,3.591,0,0,1-.62,2.146,3.987,3.987,0,0,1-1.724,1.329l2.864,5.315v.117h-2.37Zm-2.469-1.8h2.281a2.577,2.577,0,0,0,1.751-.557,1.984,1.984,0,0,0,.637-1.553,2.119,2.119,0,0,0-.584-1.589,2.5,2.5,0,0,0-1.742-.575H384.5Z" transform="translate(-283.963 -26.387)" fill="#c0cbdc"/>
    <path id="Path_341" data-name="Path 341" d="M398.664,40.58a4.382,4.382,0,0,1-3.277-1.275,4.606,4.606,0,0,1-1.257-3.394v-.269a5.638,5.638,0,0,1,.548-2.532,4.1,4.1,0,0,1,3.744-2.37,3.735,3.735,0,0,1,3,1.239,5.262,5.262,0,0,1,1.05,3.5v.88h-6.2a2.81,2.81,0,0,0,.781,1.859,2.361,2.361,0,0,0,1.733.691A2.891,2.891,0,0,0,401.2,37.7l1.149,1.1a3.9,3.9,0,0,1-1.526,1.32,4.732,4.732,0,0,1-2.155.467Zm-.251-8.126a1.8,1.8,0,0,0-1.419.611,3.188,3.188,0,0,0-.682,1.715h4.058v-.162A2.541,2.541,0,0,0,399.795,33,1.8,1.8,0,0,0,398.412,32.454Z" transform="translate(-285.173 -26.74)" fill="#c0cbdc"/>
    <path id="Path_342" data-name="Path 342" d="M413.594,35.327a5.728,5.728,0,0,1-.988,3.52,3.205,3.205,0,0,1-2.694,1.3,3.089,3.089,0,0,1-2.6-1.2l-.1,1.033h-1.93V26.51h2.128v4.929a3.1,3.1,0,0,1,2.487-1.1,3.241,3.241,0,0,1,2.694,1.293,5.764,5.764,0,0,1,1,3.591Zm-2.137-.18a4.049,4.049,0,0,0-.539-2.316,1.8,1.8,0,0,0-1.58-.772,1.984,1.984,0,0,0-1.948,1.176v3.906a2,2,0,0,0,1.966,1.239,1.8,1.8,0,0,0,1.544-.745,3.923,3.923,0,0,0,.557-2.254Z" transform="translate(-286.313 -26.308)" fill="#c0cbdc"/>
    <path id="Path_343" data-name="Path 343" d="M420.663,40.58a4.391,4.391,0,0,1-3.286-1.275,4.642,4.642,0,0,1-1.257-3.394v-.269a5.638,5.638,0,0,1,.548-2.532,4.211,4.211,0,0,1,1.535-1.742,4.112,4.112,0,0,1,2.209-.629,3.735,3.735,0,0,1,3,1.239,5.262,5.262,0,0,1,1.059,3.5v.88h-6.2a2.81,2.81,0,0,0,.781,1.859,2.379,2.379,0,0,0,1.733.691,2.882,2.882,0,0,0,2.415-1.212l1.149,1.1a3.833,3.833,0,0,1-1.526,1.32A4.687,4.687,0,0,1,420.663,40.58Zm-.26-8.126a1.8,1.8,0,0,0-1.41.611,3.2,3.2,0,0,0-.691,1.715h4.058v-.162A2.6,2.6,0,0,0,421.794,33a1.8,1.8,0,0,0-1.392-.548Z" transform="translate(-287.419 -26.74)" fill="#c0cbdc"/>
    <path id="Path_344" data-name="Path 344" d="M431.11,38.879a1.939,1.939,0,0,0,1.32-.467A1.616,1.616,0,0,0,433,37.254h2a3.1,3.1,0,0,1-.548,1.652,3.645,3.645,0,0,1-1.41,1.212,4.435,4.435,0,0,1-5.064-.835,5.109,5.109,0,0,1-1.167-3.591v-.215A5.046,5.046,0,0,1,427.967,32a4.032,4.032,0,0,1,3.16-1.3,3.915,3.915,0,0,1,2.756.988A3.592,3.592,0,0,1,435,34.282h-2a2.02,2.02,0,0,0-.557-1.347,1.8,1.8,0,0,0-1.329-.521,1.894,1.894,0,0,0-1.6.745,3.834,3.834,0,0,0-.575,2.281v.341a3.905,3.905,0,0,0,.557,2.37,1.9,1.9,0,0,0,1.616.727Z" transform="translate(-288.51 -26.736)" fill="#c0cbdc"/>
    <path id="Path_345" data-name="Path 345" d="M441.58,38.88a1.939,1.939,0,0,0,1.32-.467,1.616,1.616,0,0,0,.566-1.149h2a3.1,3.1,0,0,1-.548,1.652,3.645,3.645,0,0,1-1.41,1.212,4.436,4.436,0,0,1-5.064-.835,5.109,5.109,0,0,1-1.167-3.591v-.215a5.046,5.046,0,0,1,1.158-3.475,4.031,4.031,0,0,1,3.16-1.3,3.915,3.915,0,0,1,2.757.988,3.592,3.592,0,0,1,1.113,2.595h-2a1.984,1.984,0,0,0-.566-1.347,1.8,1.8,0,0,0-1.32-.521,1.885,1.885,0,0,0-1.6.745,3.834,3.834,0,0,0-.575,2.281v.341a3.905,3.905,0,0,0,.557,2.3A1.894,1.894,0,0,0,441.58,38.88Z" transform="translate(-289.579 -26.737)" fill="#c0cbdc"/>
    <path id="Path_346" data-name="Path 346" d="M453.83,40.41a3.2,3.2,0,0,1-.251-.9,3.3,3.3,0,0,1-2.487,1.059,3.34,3.34,0,0,1-2.334-.817,2.586,2.586,0,0,1-.9-2.011,2.694,2.694,0,0,1,1.122-2.334,5.477,5.477,0,0,1,3.223-.808h1.311v-.62a1.49,1.49,0,0,0-1.67-1.625,1.9,1.9,0,0,0-1.167.413,1.14,1.14,0,0,0-.467.9h-2.128A2.334,2.334,0,0,1,448.6,32.2a3.474,3.474,0,0,1,1.4-1.068A5.091,5.091,0,0,1,452,30.749a4.013,4.013,0,0,1,2.694.844,2.99,2.99,0,0,1,1.015,2.352V38.22a4.812,4.812,0,0,0,.359,2.047v.153Zm-2.343-1.535a2.478,2.478,0,0,0,1.185-.305,2.083,2.083,0,0,0,.844-.826v-1.8h-1.149a3.223,3.223,0,0,0-1.8.413,1.347,1.347,0,0,0-.593,1.167,1.248,1.248,0,0,0,.4.979A1.6,1.6,0,0,0,451.487,38.875Z" transform="translate(-290.661 -26.741)" fill="#c0cbdc"/>
  </g>
  <circle id="Ellipse_44" data-name="Ellipse 44" cx="27.08" cy="27.08" r="27.08" transform="translate(12.669 12.04)" fill="#fff"/>
  <g id="rebecca" transform="translate(79.497 22.958)">
    <path id="Path_347" data-name="Path 347" d="M94.232,36.412h-2V41.8H88.54V26.509h6.025a6.716,6.716,0,0,1,4.265,1.212,4.076,4.076,0,0,1,1.535,3.412,4.965,4.965,0,0,1-.646,2.649,4.615,4.615,0,0,1-2.029,1.706l3.205,6.186v.153h-3.96Zm-2-2.846h2.334a2.119,2.119,0,0,0,1.571-.548,2.523,2.523,0,0,0,0-3.107,2.074,2.074,0,0,0-1.58-.566H92.221Z" transform="translate(-88.54 -25.665)" fill="#fff"/>
    <path id="Path_348" data-name="Path 348" d="M109.483,42.466a5.872,5.872,0,0,1-4.247-1.562,5.387,5.387,0,0,1-1.616-4.067v-.3a7.039,7.039,0,0,1,.646-3.089,4.777,4.777,0,0,1,1.886-2.065,5.764,5.764,0,0,1,2.954-.727,4.893,4.893,0,0,1,3.78,1.49,5.8,5.8,0,0,1,1.392,4.148v1.374h-7.048a2.541,2.541,0,0,0,.835,1.508,2.442,2.442,0,0,0,1.661.548,3.205,3.205,0,0,0,2.631-1.176l1.616,1.912a4.489,4.489,0,0,1-1.877,1.455A6.366,6.366,0,0,1,109.483,42.466Zm-.4-9.077c-1.033,0-1.652.691-1.85,2.065h3.591v-.269a1.589,1.589,0,0,0-1.724-1.8Z" transform="translate(-90.08 -26.089)" fill="#fff"/>
    <path id="Path_349" data-name="Path 349" d="M127.651,36.138a6.932,6.932,0,0,1-1.158,4.3,3.87,3.87,0,0,1-3.259,1.508,3.385,3.385,0,0,1-2.8-1.383l-.144,1.167H117.11V25.57H120.7v5.692a3.241,3.241,0,0,1,2.55-1.122,3.87,3.87,0,0,1,3.286,1.526,6.95,6.95,0,0,1,1.158,4.292Zm-3.591-.224a4.588,4.588,0,0,0-.44-2.343,1.464,1.464,0,0,0-1.338-.7,1.688,1.688,0,0,0-1.661.9v4.489a1.706,1.706,0,0,0,1.679.9,1.508,1.508,0,0,0,1.589-1.221,8.4,8.4,0,0,0,.207-2.02Z" transform="translate(-91.458 -25.57)" fill="#fff"/>
    <path id="Path_350" data-name="Path 350" d="M136.063,42.466a5.872,5.872,0,0,1-4.247-1.562,5.387,5.387,0,0,1-1.616-4.067v-.3a7.039,7.039,0,0,1,.646-3.089,4.777,4.777,0,0,1,1.886-2.065,5.728,5.728,0,0,1,2.945-.727,4.92,4.92,0,0,1,3.789,1.49,5.836,5.836,0,0,1,1.392,4.148v1.374h-7.048a2.577,2.577,0,0,0,.826,1.508,2.469,2.469,0,0,0,1.661.548,3.2,3.2,0,0,0,2.631-1.176l1.625,1.912a4.489,4.489,0,0,1-1.877,1.455,6.429,6.429,0,0,1-2.613.548Zm-.4-9.077c-1.042,0-1.652.691-1.85,2.065H137.4v-.269a1.589,1.589,0,0,0-1.724-1.8Z" transform="translate(-92.794 -26.089)" fill="#fff"/>
    <path id="Path_351" data-name="Path 351" d="M148.4,39.727a1.6,1.6,0,0,0,1.158-.4,1.491,1.491,0,0,0,.4-1.131h3.331a3.924,3.924,0,0,1-1.347,3.071,4.983,4.983,0,0,1-3.457,1.2,5.064,5.064,0,0,1-3.915-1.562,6.132,6.132,0,0,1-1.428-4.31v-.153a6.958,6.958,0,0,1,.637-3.044,4.624,4.624,0,0,1,1.8-2.029,5.468,5.468,0,0,1,2.846-.709,4.893,4.893,0,0,1,3.574,1.2,4.355,4.355,0,0,1,1.311,3.331h-3.331a1.949,1.949,0,0,0-.431-1.356,1.5,1.5,0,0,0-1.14-.449c-.9,0-1.455.593-1.607,1.8a13.471,13.471,0,0,0-.072,1.535,4.8,4.8,0,0,0,.413,2.379,1.41,1.41,0,0,0,1.266.629Z" transform="translate(-94.115 -26.088)" fill="#fff"/>
    <path id="Path_352" data-name="Path 352" d="M160.89,39.727a1.6,1.6,0,0,0,1.158-.4,1.49,1.49,0,0,0,.4-1.131h3.322a3.915,3.915,0,0,1-1.338,3.071,5.63,5.63,0,0,1-7.371-.359,6.133,6.133,0,0,1-1.428-4.31v-.153a6.833,6.833,0,0,1,.637-3.044,4.624,4.624,0,0,1,1.8-2.029,5.468,5.468,0,0,1,2.846-.709,4.9,4.9,0,0,1,3.556,1.2,4.346,4.346,0,0,1,1.3,3.331h-3.322a1.949,1.949,0,0,0-.431-1.356,1.5,1.5,0,0,0-1.158-.476c-.9,0-1.455.593-1.607,1.8a11.673,11.673,0,0,0-.072,1.535,4.92,4.92,0,0,0,.377,2.352A1.437,1.437,0,0,0,160.89,39.727Z" transform="translate(-95.391 -26.089)" fill="#fff"/>
    <path id="Path_353" data-name="Path 353" d="M174.949,42.249a4,4,0,0,1-.341-1.015,3.3,3.3,0,0,1-2.694,1.23,4.049,4.049,0,0,1-2.694-.979A3.089,3.089,0,0,1,168,39.044a3.178,3.178,0,0,1,1.374-2.8,6.976,6.976,0,0,1,4.013-.943h1.1v-.611c0-1.051-.458-1.571-1.365-1.571a1.1,1.1,0,0,0-1.257,1.248h-3.591a3.187,3.187,0,0,1,1.4-2.694,5.953,5.953,0,0,1,3.591-1.024,5.19,5.19,0,0,1,3.448,1.059A3.735,3.735,0,0,1,178,34.627v5.046a5.01,5.01,0,0,0,.485,2.4v.18Zm-2.227-2.308a1.993,1.993,0,0,0,1.1-.278,1.8,1.8,0,0,0,.629-.646v-1.8h-1.068c-1.239,0-1.85.548-1.85,1.661a1.006,1.006,0,0,0,.323.781,1.176,1.176,0,0,0,.862.278Z" transform="translate(-96.655 -26.088)" fill="#fff"/>
  </g>
  <circle id="Ellipse_45" data-name="Ellipse 45" cx="6.797" cy="6.797" r="6.797" transform="translate(50.245 50.361)" fill="#63c74d" stroke="#fff" stroke-miterlimit="10" stroke-width="2.56"/>
  <g id="projectManager-2" data-name="projectManager" transform="translate(79.506 47.235)">
    <path id="Path_354" data-name="Path 354" d="M90.543,60.176v4.256H88.55V52.939h4.391a4.489,4.489,0,0,1,3.062,1,3.385,3.385,0,0,1,1.131,2.694,3.277,3.277,0,0,1-1.1,2.631,4.669,4.669,0,0,1-3.107.916Zm0-1.616h2.4a2.343,2.343,0,0,0,1.634-.5,1.841,1.841,0,0,0,.557-1.473,1.975,1.975,0,0,0-.566-1.481A2.182,2.182,0,0,0,93,54.529h-2.46Z" transform="translate(-88.55 -52.641)" fill="#fff"/>
    <path id="Path_355" data-name="Path 355" d="M104.32,57.953a5.5,5.5,0,0,0-.781-.063,1.8,1.8,0,0,0-1.8,1.015v5.836h-1.9V56.2h1.8l.054.961a2.146,2.146,0,0,1,1.921-1.113,1.876,1.876,0,0,1,.682.108Z" transform="translate(-89.703 -52.959)" fill="#fff"/>
    <path id="Path_356" data-name="Path 356" d="M105.459,60.4a5.046,5.046,0,0,1,.494-2.263,3.591,3.591,0,0,1,1.4-1.544,3.933,3.933,0,0,1,2.065-.539,3.735,3.735,0,0,1,2.81,1.113,4.337,4.337,0,0,1,1.158,2.945v.449a5.109,5.109,0,0,1-.485,2.263,3.591,3.591,0,0,1-1.392,1.535,3.9,3.9,0,0,1-2.083.548,3.708,3.708,0,0,1-2.891-1.2,4.615,4.615,0,0,1-1.077-3.205Zm1.921.162a3.466,3.466,0,0,0,.539,2.065,1.9,1.9,0,0,0,3.026-.009,3.816,3.816,0,0,0,.539-2.218,3.385,3.385,0,0,0-.557-2.056,1.877,1.877,0,0,0-3,0A3.717,3.717,0,0,0,107.381,60.557Z" transform="translate(-90.276 -52.959)" fill="#fff"/>
    <path id="Path_357" data-name="Path 357" d="M117.932,55.851v9.3a2.8,2.8,0,0,1-.655,1.993,2.46,2.46,0,0,1-1.9.691,3.905,3.905,0,0,1-1.024-.135V66.194a3.205,3.205,0,0,0,.682.063c.637,0,.961-.341.979-1.042V55.851Zm-2.1-2.218a.979.979,0,0,1,.278-.727,1.042,1.042,0,0,1,.8-.3,1.077,1.077,0,0,1,.808.3.979.979,0,0,1,.278.727,1.006,1.006,0,0,1-.278.727,1.113,1.113,0,0,1-.808.287,1.077,1.077,0,0,1-.8-.287A1.006,1.006,0,0,1,115.831,53.633Z" transform="translate(-91.185 -52.607)" fill="#fff"/>
    <path id="Path_358" data-name="Path 358" d="M124.335,64.906a3.978,3.978,0,0,1-2.954-1.149,4.166,4.166,0,0,1-1.131-3.062v-.2a5.037,5.037,0,0,1,.494-2.281,3.807,3.807,0,0,1,1.383-1.571,3.645,3.645,0,0,1,1.993-.557,3.349,3.349,0,0,1,2.694,1.113,4.66,4.66,0,0,1,.952,3.143v.772H122.18a2.6,2.6,0,0,0,.709,1.679,2.146,2.146,0,0,0,1.562.611,2.6,2.6,0,0,0,2.146-1.113l1.033.979a3.484,3.484,0,0,1-1.374,1.194,4.292,4.292,0,0,1-1.921.44Zm-.224-7.318a1.616,1.616,0,0,0-1.275.557,2.864,2.864,0,0,0-.62,1.535h3.654v-.144a2.379,2.379,0,0,0-.512-1.455,1.607,1.607,0,0,0-1.248-.494Z" transform="translate(-91.787 -52.962)" fill="#fff"/>
    <path id="Path_359" data-name="Path 359" d="M133.736,63.367a1.724,1.724,0,0,0,1.194-.413,1.428,1.428,0,0,0,.5-1.033h1.8a2.694,2.694,0,0,1-.494,1.481,3.214,3.214,0,0,1-1.266,1.1,3.735,3.735,0,0,1-1.715.4,3.654,3.654,0,0,1-2.873-1.158,4.669,4.669,0,0,1-1.042-3.205v-.2a4.489,4.489,0,0,1,1.042-3.125,3.591,3.591,0,0,1,2.837-1.167,3.493,3.493,0,0,1,2.55.853,3.107,3.107,0,0,1,1.006,2.325h-1.8a1.733,1.733,0,0,0-.5-1.2,1.607,1.607,0,0,0-1.194-.476,1.7,1.7,0,0,0-1.437.673,3.5,3.5,0,0,0-.512,2.047v.314a3.484,3.484,0,0,0,.5,2.065,1.679,1.679,0,0,0,1.4.718Z" transform="translate(-92.766 -52.958)" fill="#fff"/>
    <path id="Path_360" data-name="Path 360" d="M141.992,53.91v2.074H143.5V57.4h-1.508V62.17a1.059,1.059,0,0,0,.2.709.9.9,0,0,0,.691.215,2.99,2.99,0,0,0,.673-.081V64.5a4.947,4.947,0,0,1-1.266.18c-1.473,0-2.209-.817-2.209-2.442V57.4h-1.41V55.984h1.41V53.91Z" transform="translate(-93.669 -52.74)" fill="#fff"/>
    <path id="Path_361" data-name="Path 361" d="M152.956,52.94l3.322,8.8,3.3-8.8h2.577V64.424h-1.984V60.635l.2-5.064-3.394,8.853h-1.428l-3.385-8.844.2,5.055v3.789H150.37V52.94Z" transform="translate(-94.864 -52.641)" fill="#fff"/>
    <path id="Path_362" data-name="Path 362" d="M171,64.745a2.738,2.738,0,0,1-.224-.8,3.214,3.214,0,0,1-4.337.224,2.325,2.325,0,0,1-.817-1.8,2.424,2.424,0,0,1,1.015-2.092,4.857,4.857,0,0,1,2.9-.736h1.176v-.575a1.509,1.509,0,0,0-.368-1.059,1.472,1.472,0,0,0-1.131-.4,1.661,1.661,0,0,0-1.077.332,1,1,0,0,0-.377.862h-1.921a2.164,2.164,0,0,1,.467-1.311,3.205,3.205,0,0,1,1.266-.961,4.588,4.588,0,0,1,1.8-.341,3.591,3.591,0,0,1,2.4.754,2.694,2.694,0,0,1,.9,2.119v3.843a4.364,4.364,0,0,0,.323,1.8v.135Zm-2.11-1.383a2.218,2.218,0,0,0,1.068-.269,1.885,1.885,0,0,0,.754-.745V60.74h-1.033a2.819,2.819,0,0,0-1.607.368,1.221,1.221,0,0,0-.53,1.051,1.1,1.1,0,0,0,.368.9A1.419,1.419,0,0,0,168.888,63.362Z" transform="translate(-96.421 -52.963)" fill="#fff"/>
    <path id="Path_363" data-name="Path 363" d="M177.435,56.2l.063.988a3.053,3.053,0,0,1,2.478-1.14q2.694,0,2.694,3.053v5.639h-1.921V59.21a1.8,1.8,0,0,0-.35-1.2,1.481,1.481,0,0,0-1.149-.386,1.85,1.85,0,0,0-1.7,1.077v6.079H175.63V56.2Z" transform="translate(-97.444 -52.959)" fill="#fff"/>
    <path id="Path_364" data-name="Path 364" d="M190.748,64.741a2.738,2.738,0,0,1-.224-.8,3.223,3.223,0,0,1-4.346.224,2.352,2.352,0,0,1-.808-1.8,2.424,2.424,0,0,1,1.015-2.092,4.857,4.857,0,0,1,2.9-.736h1.14v-.575a1.509,1.509,0,0,0-.368-1.059,1.472,1.472,0,0,0-1.131-.4,1.661,1.661,0,0,0-1.077.332,1,1,0,0,0-.413.826h-1.921a2.11,2.11,0,0,1,.467-1.311,3.205,3.205,0,0,1,1.266-.961,4.588,4.588,0,0,1,1.8-.341,3.591,3.591,0,0,1,2.388.754,2.64,2.64,0,0,1,.9,2.119v3.843a4.364,4.364,0,0,0,.323,1.8V64.7Zm-2.119-1.383a2.218,2.218,0,0,0,1.068-.269,1.885,1.885,0,0,0,.754-.745V60.736h-1.033a2.819,2.819,0,0,0-1.607.368,1.2,1.2,0,0,0-.53,1.051,1.122,1.122,0,0,0,.359.9A1.455,1.455,0,0,0,188.629,63.358Z" transform="translate(-98.438 -52.959)" fill="#fff"/>
    <path id="Path_365" data-name="Path 365" d="M195,60.413a4.956,4.956,0,0,1,.9-3.178,2.99,2.99,0,0,1,2.478-1.185,2.792,2.792,0,0,1,2.3,1.015l.09-.9h1.724v8.278a3.484,3.484,0,0,1-1.042,2.694,4,4,0,0,1-2.819.97,4.588,4.588,0,0,1-1.841-.4,3.232,3.232,0,0,1-1.356-1.024l.9-1.149a2.694,2.694,0,0,0,2.263,1.051,2.1,2.1,0,0,0,1.508-.521,1.966,1.966,0,0,0,.557-1.517v-.575a2.855,2.855,0,0,1-2.209.9A2.972,2.972,0,0,1,196,63.681,5.127,5.127,0,0,1,195,60.413Zm1.9.162a3.448,3.448,0,0,0,.53,2.029,1.706,1.706,0,0,0,1.455.736,1.859,1.859,0,0,0,1.724-1V58.591a1.8,1.8,0,0,0-1.706-.97,1.688,1.688,0,0,0-1.473.745,3.852,3.852,0,0,0-.494,2.209Z" transform="translate(-99.421 -52.959)" fill="#fff"/>
    <path id="Path_366" data-name="Path 366" d="M209.335,64.906a3.978,3.978,0,0,1-2.954-1.149,4.166,4.166,0,0,1-1.131-3.062v-.2a5.037,5.037,0,0,1,.494-2.281,3.807,3.807,0,0,1,1.383-1.571,3.592,3.592,0,0,1,1.993-.557,3.349,3.349,0,0,1,2.694,1.113,4.714,4.714,0,0,1,.952,3.143v.772H207.18a2.6,2.6,0,0,0,.709,1.679,2.146,2.146,0,0,0,1.562.611,2.6,2.6,0,0,0,2.146-1.113l1.033.979a3.484,3.484,0,0,1-1.374,1.194A4.318,4.318,0,0,1,209.335,64.906Zm-.224-7.318a1.616,1.616,0,0,0-1.275.557,2.865,2.865,0,0,0-.62,1.535h3.654v-.144a2.379,2.379,0,0,0-.512-1.455,1.607,1.607,0,0,0-1.248-.494Z" transform="translate(-100.468 -52.962)" fill="#fff"/>
    <path id="Path_367" data-name="Path 367" d="M219.738,57.953a5.5,5.5,0,0,0-.781-.063,1.8,1.8,0,0,0-1.8,1.015v5.836H215.24V56.2h1.8l.045.961a2.164,2.164,0,0,1,1.93-1.113,1.8,1.8,0,0,1,.673.108Z" transform="translate(-101.489 -52.959)" fill="#fff"/>
  </g>
  <g id="icon" transform="translate(30.707 25.194)">
    <path id="Path_368" data-name="Path 368" d="M42.191,44h2.1a7.991,7.991,0,0,1,7.991,7.991v6.231H34.2v-6.2A7.991,7.991,0,0,1,42.191,44Z" transform="translate(-34.2 -29.688)" fill="#124e89"/>
    <circle id="Ellipse_46" data-name="Ellipse 46" cx="6.159" cy="6.159" r="6.159" transform="translate(2.882)" fill="#124e89"/>
  </g>
  <g id="crossButton" transform="translate(617.455 8.97)">
    <circle id="Ellipse_47" data-name="Ellipse 47" cx="7.183" cy="7.183" r="7.183" fill="#ebedf2"/>
    <line id="Line_68" data-name="Line 68" x2="5.082" y2="5.073" transform="translate(4.642 4.642)" fill="none" stroke="#fff" stroke-linecap="round" stroke-miterlimit="10" stroke-width="2"/>
    <line id="Line_69" data-name="Line 69" x1="5.082" y2="5.082" transform="translate(4.642 4.714)" fill="none" stroke="#fff" stroke-linecap="round" stroke-miterlimit="10" stroke-width="2.07"/>
  </g>
  <g id="maxButton" transform="translate(596.759 8.97)">
    <circle id="Ellipse_48" data-name="Ellipse 48" cx="7.183" cy="7.183" r="7.183" fill="#ebedf2"/>
    <rect id="Rectangle_198" data-name="Rectangle 198" width="7.255" height="5.989" rx="1.52" transform="translate(3.547 4.184)" fill="#fff"/>
  </g>
  <g id="lineButton" transform="translate(576.054 8.97)">
    <circle id="Ellipse_49" data-name="Ellipse 49" cx="7.183" cy="7.183" r="7.183" fill="#ebedf2"/>
    <line id="Line_70" data-name="Line 70" x2="6.734" transform="translate(3.816 9.796)" fill="none" stroke="#fff" stroke-linecap="round" stroke-miterlimit="10" stroke-width="2"/>
  </g>
</svg>
